SplineFontDB: 3.0
FontName: PontanoSans-Bold
FullName: Pontano Sans Bold
FamilyName: Pontano Sans
Weight: Bold
Copyright: Copyright (c) 2011-13 by vernon adams. All rights reserved.
Version: 2
ItalicAngle: 0
UnderlinePosition: -205
UnderlineWidth: 102
Ascent: 1638
Descent: 410
UFOAscent: 1474
UFODescent: -410
LayerCount: 2
Layer: 0 0 "Back"  1
Layer: 1 0 "Fore"  0
FSType: 0
OS2Version: 0
OS2_WeightWidthSlopeOnly: 0
OS2_UseTypoMetrics: 0
CreationTime: 1386626868
ModificationTime: 1386629639
PfmFamily: 0
TTFWeight: 700
TTFWidth: 5
LineGap: 0
VLineGap: 0
Panose: 0 0 0 0 0 0 0 0 0 0
OS2TypoAscent: 2033
OS2TypoAOffset: 0
OS2TypoDescent: -573
OS2TypoDOffset: 0
OS2TypoLinegap: 0
OS2WinAscent: 2033
OS2WinAOffset: 0
OS2WinDescent: 573
OS2WinDOffset: 0
HheadAscent: 0
HheadAOffset: 1
HheadDescent: 0
HheadDOffset: 1
OS2SubXSize: 1434
OS2SubYSize: 1331
OS2SubXOff: 0
OS2SubYOff: 287
OS2SupXSize: 1434
OS2SupYSize: 1331
OS2SupXOff: 0
OS2SupYOff: 977
OS2StrikeYSize: 102
OS2StrikeYPos: 512
OS2Vendor: 'newt'
OS2CodePages: 00000093.00000000
OS2UnicodeRanges: 800000ef.4000004b.00000000.00000000
Lookup: 258 0 0 "'kern' Horizontal Kerning in Latin lookup 0"  {"'kern' Horizontal Kerning in Latin lookup 0 subtable"  } ['kern' ('latn' <'dflt' > ) ]
MarkAttachClasses: 1
DEI: 91125
LangName: 1033 "" "" "" "" "" "2.0" "" "Pontano Sans is a trademark of vernon adams." "vernon adams" "" "Copyright (c) 2011 by vernon adams. All rights reserved." "" "newtypography.co.uk" "" "http://scripts.sil.org/OFL" 
PickledData: "(dp1
S'com.typemytype.robofont.compileSettings.autohint'
p2
I01
sS'com.typemytype.robofont.compileSettings.decompose'
p3
I01
sS'com.typemytype.robofont.foreground.layerStrokeColor'
p4
(F0.5
F0
F0.5
F0.69999999999999996
tp5
sS'com.typemytype.robofont.guides'
p6
((dp7
S'angle'
p8
I0
sS'name'
p9
NsS'magnetic'
p10
I5
sS'isGlobal'
p11
I1
sS'y'
I1474
sS'x'
I110
s(dp12
g8
I0
sg9
Nsg10
I5
sg11
I1
sS'y'
I1047
sS'x'
I303
s(dp13
g8
I0
sg9
Nsg10
I5
sg11
I1
sS'y'
I899
sS'x'
I466
s(dp14
g8
I0
sg9

StartChar: .notdef
Encoding: 65536 -1 0
Width: 1024
VWidth: 0
Flags: W
LayerCount: 2
Fore
SplineSet
102 0 m 1
 102 1092 l 1
 922 1092 l 1
 922 0 l 1
 102 0 l 1
204 102 m 1
 820 102 l 1
 820 990 l 1
 204 990 l 1
 204 102 l 1
EndSplineSet
EndChar

StartChar: A
Encoding: 33 65 1
Width: 1297
VWidth: 0
Flags: W
PickledData: "(dp1
S'com.typemytype.robofont.layerData'
p2
(dp3
S'b'
(dp4
S'name'
p5
S'A'
sS'lib'
p6
(dp7
sS'unicodes'
p8
(tsS'width'
p9
I1297
sS'contours'
p10
((dp11
S'points'
p12
((dp13
S'segmentType'
p14
S'line'
p15
sS'x'
I64
sS'smooth'
p16
I00
sS'y'
I0
s(dp17
g14
S'line'
p18
sS'x'
I550
sg16
I00
sS'y'
I1464
s(dp19
g14
S'line'
p20
sS'x'
I742
sg16
I00
sS'y'
I1464
s(dp21
g14
S'line'
p22
sS'x'
I1230
sg16
I00
sS'y'
I0
s(dp23
g14
S'line'
p24
sS'x'
I1080
sg16
I00
sS'y'
I0
s(dp25
g14
S'line'
p26
sS'x'
I946
sg16
I00
sS'y'
I399
s(dp27
g14
S'line'
p28
sS'x'
I338
sg16
I00
sS'y'
I399
s(dp29
g14
S'line'
p30
sS'x'
I210
sg16
I00
sS'y'
I0
stp31
s(dp32
g12
((dp33
g14
S'line'
p34
sS'x'
I641
sg16
I00
sS'y'
I1362
s(dp35
g14
S'line'
p36
sS'x'
I541
sg16
I00
sS'y'
I1040
s(dp37
g14
S'line'
p38
sS'x'
I372
sg16
I00
sS'y'
I508
s(dp39
g14
S'line'
p40
sS'x'
I912
sg16
I00
sS'y'
I508
s(dp41
g14
S'line'
p42
sS'x'
I742
sg16
I00
sS'y'
I1041
stp43
stp44
sS'components'
p45
(tsS'anchors'
p46
(tsss."
LayerCount: 2
Fore
SplineSet
28 0 m 1
 484 1464 l 1
 804 1464 l 1
 1269 0 l 1
 1038 0 l 1
 916 379 l 1
 364 379 l 1
 248 0 l 1
 28 0 l 1
640 1320 m 1
 412 540 l 1
 866 540 l 1
 640 1320 l 1
EndSplineSet
EndChar

StartChar: AE
Encoding: 134 198 2
Width: 2030
VWidth: 0
Flags: W
PickledData: "(dp1
S'com.typemytype.robofont.layerData'
p2
(dp3
s."
LayerCount: 2
Fore
SplineSet
500 532 m 1
 974 532 l 1
 974 1378 l 1
 500 532 l 1
-47 0 m 1
 817 1464 l 1
 2005 1464 l 1
 2005 1296 l 1
 1192 1296 l 1
 1192 868 l 1
 1843 868 l 1
 1842 696 l 1
 1192 696 l 1
 1192 168 l 1
 2015 168 l 1
 2015 0 l 1
 974 0 l 1
 974 369 l 1
 410 369 l 1
 193 0 l 1
 -47 0 l 1
EndSplineSet
EndChar

StartChar: B
Encoding: 34 66 12
Width: 1331
VWidth: 0
Flags: W
PickledData: "(dp1
S'com.typemytype.robofont.layerData'
p2
(dp3
s."
LayerCount: 2
Fore
SplineSet
251 164 m 1
 586 164 l 2
 807 164 1032 168 1032 419 c 0
 1032 669 903 697 633 697 c 2
 251 697 l 1
 251 857 l 1
 639 857 l 2
 947 857 1006 903 994 1114 c 0
 983 1304 837 1300 602 1300 c 2
 251 1300 l 1
 251 1464 l 1
 595 1464 l 2
 897 1464 1203 1417 1203 1108 c 0
 1203 948 1172 812 976 778 c 1
 1190 746 1251 604 1251 413 c 0
 1251 85 1017 0 559 0 c 2
 251 0 l 1
 251 164 l 1
EndSplineSet
Refer: 309 -1 N 1 0 0 1 32 0 2
EndChar

StartChar: C
Encoding: 35 67 13
Width: 1394
VWidth: 0
Flags: W
PickledData: "(dp1
S'com.typemytype.robofont.layerData'
p2
(dp3
S'b'
(dp4
S'name'
p5
S'C'
sS'lib'
p6
(dp7
sS'unicodes'
p8
(tsS'width'
p9
I1394
sS'contours'
p10
((dp11
S'points'
p12
((dp13
S'segmentType'
p14
S'curve'
p15
sS'x'
I756
sS'smooth'
p16
I01
sS'y'
I1488
s(dp17
S'y'
I1488
sS'x'
I1014
sg16
I00
s(dp18
S'y'
I1362
sS'x'
I1215
sg16
I00
s(dp19
g14
S'curve'
p20
sS'x'
I1287
sg16
I00
sS'y'
I1099
s(dp21
g14
S'line'
p22
sS'x'
I1153
sg16
I00
sS'y'
I1068
s(dp23
S'y'
I1245
sS'x'
I1107
sg16
I00
s(dp24
S'y'
I1313
sS'x'
I982
sg16
I00
s(dp25
g14
S'curve'
p26
sS'x'
I751
sg16
I01
sS'y'
I1313
s(dp27
S'y'
I1313
sS'x'
I439
sg16
I00
s(dp28
S'y'
I1135
sS'x'
I330
sg16
I00
s(dp29
g14
S'curve'
p30
sS'x'
I330
sg16
I01
sS'y'
I738
s(dp31
S'y'
I311
sS'x'
I330
sg16
I00
s(dp32
S'y'
I150
sS'x'
I442
sg16
I00
s(dp33
g14
S'curve'
p34
sS'x'
I754
sg16
I01
sS'y'
I150
s(dp35
S'y'
I150
sS'x'
I977
sg16
I00
s(dp36
S'y'
I205
sS'x'
I1105
sg16
I00
s(dp37
g14
S'curve'
p38
sS'x'
I1167
sg16
I00
sS'y'
I377
s(dp39
g14
S'line'
p40
sS'x'
I1292
sg16
I00
sS'y'
I338
s(dp41
S'y'
I90
sS'x'
I1210
sg16
I00
s(dp42
S'y'
I-24
sS'x'
I1002
sg16
I00
s(dp43
g14
S'curve'
p44
sS'x'
I746
sg16
I01
sS'y'
I-24
s(dp45
S'y'
I-24
sS'x'
I341
sg16
I00
s(dp46
S'y'
I195
sS'x'
I98
sg16
I00
s(dp47
g14
S'curve'
p48
sS'x'
I98
sg16
I01
sS'y'
I738
s(dp49
S'y'
I1269
sS'x'
I98
sg16
I00
s(dp50
S'y'
I1488
sS'x'
I334
sg16
I00
stp51
s(dp52
g12
((dp53
g14
S'curve'
p54
sS'x'
I747
sg16
I01
sS'y'
I1313
s(dp55
S'y'
I1313
sS'x'
I414
sg16
I00
s(dp56
S'y'
I1096
sS'x'
I330
sg16
I00
s(dp57
g14
S'curve'
p58
sS'x'
I330
sg16
I01
sS'y'
I740
s(dp59
S'y'
I337
sS'x'
I330
sg16
I00
s(dp60
S'y'
I150
sS'x'
I428
sg16
I00
s(dp61
g14
S'curve'
p62
sS'x'
I747
sg16
I01
sS'y'
I150
s(dp63
S'y'
I150
sS'x'
I1068
sg16
I00
s(dp64
S'y'
I334
sS'x'
I1167
sg16
I00
s(dp65
g14
S'curve'
p66
sS'x'
I1167
sg16
I01
sS'y'
I739
s(dp67
S'y'
I1096
sS'x'
I1167
sg16
I00
s(dp68
S'y'
I1313
sS'x'
I1081
sg16
I00
stp69
s(dp70
g12
((dp71
g14
S'curve'
p72
sS'x'
I747
sg16
I01
sS'y'
I1488
s(dp73
S'y'
I1488
sS'x'
I1137
sg16
I00
s(dp74
S'y'
I1291
sS'x'
I1399
sg16
I00
s(dp75
g14
S'curve'
p76
sS'x'
I1399
sg16
I01
sS'y'
I741
s(dp77
S'y'
I183
sS'x'
I1399
sg16
I00
s(dp78
S'y'
I-24
sS'x'
I1147
sg16
I00
s(dp79
g14
S'curve'
p80
sS'x'
I746
sg16
I01
sS'y'
I-24
s(dp81
S'y'
I-24
sS'x'
I353
sg16
I00
s(dp82
S'y'
I176
sS'x'
I98
sg16
I00
s(dp83
g14
S'curve'
p84
sS'x'
I98
sg16
I01
sS'y'
I740
s(dp85
S'y'
I1292
sS'x'
I98
sg16
I00
s(dp86
S'y'
I1488
sS'x'
I358
sg16
I00
stp87
stp88
sS'components'
p89
(tsS'anchors'
p90
(tsss."
LayerCount: 2
Fore
SplineSet
98 734 m 0
 98 203 336 -24 758 -24 c 0
 1016 -24 1232 79 1325 355 c 1
 1121 402 l 1
 1065 253 972 150 749 150 c 0
 437 150 330 337 330 734 c 0
 330 1131 437 1313 749 1313 c 0
 972 1313 1065 1211 1121 1062 c 1
 1325 1109 l 1
 1232 1385 1016 1488 758 1488 c 0
 336 1488 98 1265 98 734 c 0
EndSplineSet
EndChar

StartChar: D
Encoding: 36 68 20
Width: 1444
VWidth: 0
Flags: W
PickledData: "(dp1
S'com.typemytype.robofont.guides'
p2
(tsS'com.typemytype.robofont.layerData'
p3
(dp4
S'b'
(dp5
S'name'
p6
S'D'
sS'lib'
p7
(dp8
sS'unicodes'
p9
(tsS'width'
p10
I1444
sS'contours'
p11
((dp12
S'points'
p13
((dp14
S'segmentType'
p15
S'line'
p16
sS'x'
I180
sS'smooth'
p17
I00
sS'y'
I1464
s(dp18
g15
S'line'
p19
sS'x'
I684
sg17
I01
sS'y'
I1464
s(dp20
S'y'
I1464
sS'x'
I1096
sg17
I00
s(dp21
S'y'
I1280
sS'x'
I1319
sg17
I00
s(dp22
g15
S'curve'
p23
sS'x'
I1319
sg17
I01
sS'y'
I738
s(dp24
S'y'
I203
sS'x'
I1319
sg17
I00
s(dp25
S'y'
I0
sS'x'
I1115
sg17
I00
s(dp26
g15
S'curve'
p27
sS'x'
I677
sg17
I01
sS'y'
I0
s(dp28
g15
S'line'
p29
sS'x'
I180
sg17
I00
sS'y'
I0
stp30
s(dp31
g13
((dp32
g15
S'curve'
p33
sS'x'
I685
sg17
I01
sS'y'
I1352
s(dp34
g15
S'line'
p35
sS'x'
I326
sg17
I00
sS'y'
I1352
s(dp36
g15
S'line'
p37
sS'x'
I326
sg17
I00
sS'y'
I112
s(dp38
g15
S'line'
p39
sS'x'
I629
sg17
I01
sS'y'
I112
s(dp40
S'y'
I112
sS'x'
I1040
sg17
I00
s(dp41
S'y'
I288
sS'x'
I1176
sg17
I00
s(dp42
g15
S'curve'
p43
sS'x'
I1176
sg17
I01
sS'y'
I737
s(dp44
S'y'
I1131
sS'x'
I1176
sg17
I00
s(dp45
S'y'
I1352
sS'x'
I1069
sg17
I00
stp46
stp47
sS'components'
p48
(tsS'anchors'
p49
(tsss."
LayerCount: 2
Fore
SplineSet
247 1464 m 1
 684 1464 l 2
 1126 1464 1346 1280 1346 738 c 0
 1346 213 1157 0 685 0 c 2
 249 0 l 1
 249 168 l 1
 622 168 l 2
 999 168 1125 292 1125 737 c 0
 1125 1127 1028 1296 682 1296 c 2
 247 1296 l 1
 247 1464 l 1
EndSplineSet
Refer: 309 -1 N 1 0 0 1 32 0 2
EndChar

StartChar: E
Encoding: 37 69 24
Width: 1230
VWidth: 0
Flags: W
PickledData: "(dp1
S'com.typemytype.robofont.layerData'
p2
(dp3
S'b'
(dp4
S'name'
p5
S'E'
sS'lib'
p6
(dp7
sS'unicodes'
p8
(tsS'width'
p9
I1230
sS'contours'
p10
((dp11
S'points'
p12
((dp13
S'segmentType'
p14
S'line'
p15
sS'x'
I1160
sS'smooth'
p16
I00
sS'y'
I0
s(dp17
g14
S'line'
p18
sS'x'
I180
sg16
I00
sS'y'
I0
s(dp19
g14
S'line'
p20
sS'x'
I180
sg16
I00
sS'y'
I1464
s(dp21
g14
S'line'
p22
sS'x'
I1149
sg16
I00
sS'y'
I1464
s(dp23
g14
S'line'
p24
sS'x'
I1149
sg16
I00
sS'y'
I1352
s(dp25
g14
S'line'
p26
sS'x'
I326
sg16
I00
sS'y'
I1352
s(dp27
g14
S'line'
p28
sS'x'
I326
sg16
I00
sS'y'
I838
s(dp29
g14
S'line'
p30
sS'x'
I1042
sg16
I00
sS'y'
I838
s(dp31
g14
S'line'
p32
sS'x'
I1042
sg16
I00
sS'y'
I723
s(dp33
g14
S'line'
p34
sS'x'
I326
sg16
I00
sS'y'
I723
s(dp35
g14
S'line'
p36
sS'x'
I326
sg16
I00
sS'y'
I112
s(dp37
g14
S'line'
p38
sS'x'
I1160
sg16
I00
sS'y'
I112
stp39
stp40
sS'components'
p41
(tsS'anchors'
p42
(tsss."
LayerCount: 2
Fore
SplineSet
253 1464 m 1
 1149 1464 l 1
 1149 1300 l 1
 253 1300 l 1
 253 1464 l 1
253 862 m 1
 1047 862 l 1
 1047 694 l 1
 253 694 l 1
 253 862 l 1
1160 0 m 1
 253 0 l 1
 253 164 l 1
 1160 164 l 1
 1160 0 l 1
EndSplineSet
Refer: 309 -1 N 1 0 0 1 32 0 2
EndChar

StartChar: Eth
Encoding: 144 208 32
Width: 1444
VWidth: 0
Flags: W
PickledData: "(dp1
S'com.typemytype.robofont.layerData'
p2
(dp3
s."
LayerCount: 2
Fore
SplineSet
0 681 m 1
 0 808 l 1
 570 808 l 1
 570 681 l 1
 0 681 l 1
EndSplineSet
Refer: 20 68 N 1 0 0 1 0 0 2
EndChar

StartChar: Euro
Encoding: 510 8364 33
Width: 1275
VWidth: 0
Flags: W
PickledData: "(dp1
S'com.typemytype.robofont.layerData'
p2
(dp3
S'b'
(dp4
S'name'
p5
S'Euro'
p6
sS'lib'
p7
(dp8
sS'unicodes'
p9
(tsS'width'
p10
I1275
sS'contours'
p11
(tsS'components'
p12
(tsS'anchors'
p13
(tsss."
LayerCount: 2
Fore
SplineSet
680 783 m 1
 680 927 l 1
 -54 927 l 1
 -54 783 l 1
 680 783 l 1
680 525 m 1
 680 669 l 1
 -54 669 l 1
 -54 525 l 1
 680 525 l 1
EndSplineSet
Refer: 13 67 N 1 0 0 1 0 0 2
EndChar

StartChar: F
Encoding: 38 70 34
Width: 1205
VWidth: 0
Flags: W
PickledData: "(dp1
S'com.typemytype.robofont.layerData'
p2
(dp3
S'b'
(dp4
S'name'
p5
S'F'
sS'lib'
p6
(dp7
sS'unicodes'
p8
(tsS'width'
p9
I1205
sS'contours'
p10
((dp11
S'points'
p12
((dp13
S'segmentType'
p14
S'line'
p15
sS'x'
I1149
sS'smooth'
p16
I00
sS'y'
I1352
s(dp17
g14
S'line'
p18
sS'x'
I326
sg16
I00
sS'y'
I1352
s(dp19
g14
S'line'
p20
sS'x'
I326
sg16
I00
sS'y'
I830
s(dp21
g14
S'line'
p22
sS'x'
I1041
sg16
I00
sS'y'
I830
s(dp23
g14
S'line'
p24
sS'x'
I1041
sg16
I00
sS'y'
I716
s(dp25
g14
S'line'
p26
sS'x'
I326
sg16
I00
sS'y'
I716
s(dp27
g14
S'line'
p28
sS'x'
I326
sg16
I00
sS'y'
I0
s(dp29
g14
S'line'
p30
sS'x'
I180
sg16
I00
sS'y'
I0
s(dp31
g14
S'line'
p32
sS'x'
I180
sg16
I00
sS'y'
I1464
s(dp33
g14
S'line'
p34
sS'x'
I1149
sg16
I00
sS'y'
I1464
stp35
stp36
sS'components'
p37
(tsS'anchors'
p38
(tsss."
LayerCount: 2
Fore
SplineSet
1162 1300 m 1
 251 1300 l 1
 250 1464 l 1
 1162 1464 l 1
 1162 1300 l 1
251 850 m 1
 1050 850 l 1
 1050 682 l 1
 251 682 l 1
 251 850 l 1
EndSplineSet
Refer: 309 -1 N 1 0 0 1 32 0 2
EndChar

StartChar: G
Encoding: 39 71 35
Width: 1398
VWidth: 0
Flags: W
PickledData: "(dp1
S'com.typemytype.robofont.layerData'
p2
(dp3
S'b'
(dp4
S'name'
p5
S'G'
sS'lib'
p6
(dp7
sS'unicodes'
p8
(tsS'width'
p9
I1398
sS'contours'
p10
((dp11
S'points'
p12
((dp13
S'segmentType'
p14
S'curve'
p15
sS'x'
I95
sS'smooth'
p16
I00
sS'y'
I734
s(dp17
S'y'
I203
sS'x'
I95
sg16
I00
s(dp18
S'y'
I-24
sS'x'
I333
sg16
I00
s(dp19
g14
S'curve'
p20
sS'x'
I755
sg16
I01
sS'y'
I-24
s(dp21
S'y'
I-24
sS'x'
I1013
sg16
I00
s(dp22
S'y'
I79
sS'x'
I1229
sg16
I00
s(dp23
g14
S'curve'
p24
sS'x'
I1322
sg16
I00
sS'y'
I355
s(dp25
g14
S'line'
p26
sS'x'
I1118
sg16
I00
sS'y'
I402
s(dp27
S'y'
I253
sS'x'
I1062
sg16
I00
s(dp28
S'y'
I150
sS'x'
I969
sg16
I00
s(dp29
g14
S'curve'
p30
sS'x'
I746
sg16
I01
sS'y'
I150
s(dp31
S'y'
I150
sS'x'
I434
sg16
I00
s(dp32
S'y'
I337
sS'x'
I327
sg16
I00
s(dp33
g14
S'curve'
p34
sS'x'
I327
sg16
I00
sS'y'
I734
s(dp35
S'y'
I1131
sS'x'
I327
sg16
I00
s(dp36
S'y'
I1313
sS'x'
I434
sg16
I00
s(dp37
g14
S'curve'
p38
sS'x'
I746
sg16
I01
sS'y'
I1313
s(dp39
S'y'
I1313
sS'x'
I969
sg16
I00
s(dp40
S'y'
I1211
sS'x'
I1062
sg16
I00
s(dp41
g14
S'curve'
p42
sS'x'
I1118
sg16
I00
sS'y'
I1062
s(dp43
g14
S'line'
p44
sS'x'
I1322
sg16
I00
sS'y'
I1109
s(dp45
S'y'
I1385
sS'x'
I1229
sg16
I00
s(dp46
S'y'
I1488
sS'x'
I1013
sg16
I00
s(dp47
g14
S'curve'
p48
sS'x'
I755
sg16
I01
sS'y'
I1488
s(dp49
S'y'
I1488
sS'x'
I333
sg16
I00
s(dp50
S'y'
I1265
sS'x'
I95
sg16
I00
stp51
stp52
sS'components'
p53
(tsS'anchors'
p54
(tsss."
LayerCount: 2
Fore
SplineSet
742 1488 m 0
 1046 1488 1213 1347 1294 1107 c 1
 1103 1043 l 1
 1035 1227 923 1313 736 1313 c 0
 433 1313 330 1149 330 721 c 0
 330 316 469 150 748 150 c 0
 914 150 1074 245 1074 452 c 2
 1074 636 l 1
 767 636 l 1
 767 824 l 1
 1291 824 l 1
 1291 581 l 2
 1291 428 1281 0 1281 0 c 1
 1139 0 l 1
 1095 138 l 1
 1033 46 914 -24 730 -24 c 0
 376 -24 98 164 98 722 c 0
 98 1288 343 1488 742 1488 c 0
EndSplineSet
EndChar

StartChar: H
Encoding: 40 72 40
Width: 1508
VWidth: 0
Flags: W
PickledData: "(dp1
S'com.typemytype.robofont.layerData'
p2
(dp3
S'b'
(dp4
S'name'
p5
S'H'
sS'lib'
p6
(dp7
sS'unicodes'
p8
(tsS'width'
p9
I1508
sS'contours'
p10
((dp11
S'points'
p12
((dp13
S'segmentType'
p14
S'line'
p15
sS'x'
I1196
sS'smooth'
p16
I00
sS'y'
I836
s(dp17
g14
S'line'
p18
sS'x'
I1196
sg16
I00
sS'y'
I1464
s(dp19
g14
S'line'
p20
sS'x'
I1341
sg16
I00
sS'y'
I1464
s(dp21
g14
S'line'
p22
sS'x'
I1341
sg16
I00
sS'y'
I0
s(dp23
g14
S'line'
p24
sS'x'
I1196
sg16
I00
sS'y'
I0
s(dp25
g14
S'line'
p26
sS'x'
I1196
sg16
I00
sS'y'
I720
s(dp27
g14
S'line'
p28
sS'x'
I326
sg16
I00
sS'y'
I720
s(dp29
g14
S'line'
p30
sS'x'
I326
sg16
I00
sS'y'
I0
s(dp31
g14
S'line'
p32
sS'x'
I180
sg16
I00
sS'y'
I0
s(dp33
g14
S'line'
p34
sS'x'
I180
sg16
I00
sS'y'
I1464
s(dp35
g14
S'line'
p36
sS'x'
I326
sg16
I00
sS'y'
I1464
s(dp37
g14
S'line'
p38
sS'x'
I326
sg16
I00
sS'y'
I836
stp39
stp40
sS'components'
p41
(tsS'anchors'
p42
(tsss."
LayerCount: 2
Fore
SplineSet
1261 844 m 1
 1261 669 l 1
 257 669 l 1
 257 844 l 1
 1261 844 l 1
EndSplineSet
Refer: 309 -1 N 1 0 0 1 32 0 2
Refer: 309 -1 N 1 0 0 1 1048 0 2
EndChar

StartChar: Hbar
Encoding: 228 294 41
Width: 1457
VWidth: 0
Flags: HW
LayerCount: 2
Fore
SplineSet
25.5 1144 m 1
 25.5 1230 l 1
 1431.5 1230 l 1
 1431.5 1144 l 1
 25.5 1144 l 1
EndSplineSet
Refer: 40 72 N 1 0 0 1 -22.5 0 2
EndChar

StartChar: J
Encoding: 42 74 53
Width: 1061
VWidth: 0
Flags: W
PickledData: "(dp1
S'com.typemytype.robofont.layerData'
p2
(dp3
s."
LayerCount: 2
Fore
SplineSet
35 332 m 1
 234 387 l 1
 272 216 366 158 463 158 c 0
 646 158 705 275 705 541 c 2
 705 1464 l 1
 925 1464 l 1
 925 544 l 2
 925 166 774 -20 457 -20 c 0
 227 -20 78 115 35 332 c 1
EndSplineSet
EndChar

StartChar: K
Encoding: 43 75 55
Width: 1284
VWidth: 0
Flags: W
PickledData: "(dp1
S'com.typemytype.robofont.layerData'
p2
(dp3
S'b'
(dp4
S'name'
p5
S'K'
sS'lib'
p6
(dp7
sS'unicodes'
p8
(tsS'width'
p9
I1284
sS'contours'
p10
((dp11
S'points'
p12
((dp13
S'segmentType'
p14
S'line'
p15
sS'x'
I1254
sS'smooth'
p16
I00
sS'y'
I1464
s(dp17
S'y'
I1464
sS'x'
I1254
sg16
I00
s(dp18
S'y'
I481
sS'x'
I298
sg16
I00
s(dp19
g14
S'curve'
p20
sS'x'
I298
sg16
I00
sS'y'
I481
s(dp21
S'y'
I481
sS'x'
I298
sg16
I00
s(dp22
S'y'
I654
sS'x'
I216
sg16
I00
s(dp23
g14
S'curve'
p24
sS'x'
I216
sg16
I00
sS'y'
I654
s(dp25
g14
S'line'
p26
sS'x'
I993
sg16
I00
sS'y'
I1464
stp27
s(dp28
g12
((dp29
g14
S'line'
p30
sS'x'
I699
sS'y'
I976
s(dp31
g14
S'line'
p32
sS'x'
I1308
sg16
I00
sS'y'
I0
s(dp33
g14
S'line'
p34
sS'x'
I1059
sg16
I00
sS'y'
I0
s(dp35
g14
S'line'
p36
sS'x'
I514
sg16
I00
sS'y'
I878
stp37
stp38
sS'components'
p39
(tsS'anchors'
p40
(tsss."
LayerCount: 2
Fore
SplineSet
680 996 m 1
 1308 0 l 1
 1059 0 l 1
 526 847 l 1
 680 996 l 1
1254 1464 m 1
 251 430 l 1
 248 685 l 1
 990 1464 l 1
 1254 1464 l 1
EndSplineSet
Refer: 309 -1 N 1 0 0 1 32 0 2
EndChar

StartChar: L
Encoding: 44 76 57
Width: 1077
VWidth: 0
Flags: W
PickledData: "(dp1
S'com.typemytype.robofont.layerData'
p2
(dp3
s."
LayerCount: 2
Fore
SplineSet
1083 0 m 1
 251 0 l 1
 251 164 l 1
 1083 164 l 1
 1083 0 l 1
EndSplineSet
Refer: 309 -1 N 1 0 0 1 32 0 2
EndChar

StartChar: Lslash
Encoding: 255 321 62
Width: 1055
VWidth: 0
Flags: W
PickledData: "(dp1
S'com.typemytype.robofont.layerData'
p2
(dp3
s."
LayerCount: 2
Fore
SplineSet
-31 582 m 1
 -31 764 l 1
 642 1024 l 1
 642 842 l 1
 -31 582 l 1
EndSplineSet
Refer: 57 76 N 1 0 0 1 0 0 2
EndChar

StartChar: M
Encoding: 45 77 63
Width: 1675
VWidth: 0
Flags: W
PickledData: "(dp1
S'com.typemytype.robofont.layerData'
p2
(dp3
s."
LayerCount: 2
Fore
SplineSet
136 0 m 1
 136 1464 l 1
 455 1464 l 1
 843 485 l 1
 1251 1464 l 1
 1539 1464 l 1
 1539 0 l 1
 1337 0 l 1
 1337 1182 l 1
 935 250 l 1
 734 250 l 1
 345 1192 l 1
 345 0 l 1
 136 0 l 1
EndSplineSet
EndChar

StartChar: N
Encoding: 46 78 64
Width: 1496
VWidth: 0
Flags: W
PickledData: "(dp1
S'com.typemytype.robofont.layerData'
p2
(dp3
s."
LayerCount: 2
Fore
SplineSet
136 0 m 1
 136 1464 l 1
 377 1464 l 1
 1170 335 l 1
 1170 1464 l 1
 1360 1464 l 1
 1360 0 l 1
 1169 0 l 1
 333 1204 l 1
 333 0 l 1
 136 0 l 1
EndSplineSet
EndChar

StartChar: O
Encoding: 47 79 69
Width: 1497
VWidth: 0
Flags: W
PickledData: "(dp1
S'com.typemytype.robofont.guides'
p2
((dp3
S'angle'
p4
F90
sS'name'
p5
NsS'magnetic'
p6
I5
sS'isGlobal'
p7
I00
sS'y'
I1549
sS'x'
I724
stp8
sS'com.typemytype.robofont.layerData'
p9
(dp10
S'b'
(dp11
g5
S'O'
sS'lib'
p12
(dp13
sS'unicodes'
p14
(tsS'width'
p15
I1497
sS'contours'
p16
((dp17
S'points'
p18
((dp19
S'segmentType'
p20
S'curve'
p21
sS'x'
I745
sS'smooth'
p22
I01
sS'y'
I1374
s(dp23
S'y'
I1374
sS'x'
I393
sg22
I00
s(dp24
S'y'
I1130
sS'x'
I290
sg22
I00
s(dp25
g20
S'curve'
p26
sS'x'
I290
sg22
I01
sS'y'
I741
s(dp27
S'y'
I302
sS'x'
I290
sg22
I00
s(dp28
S'y'
I93
sS'x'
I408
sg22
I00
s(dp29
g20
S'curve'
p30
sS'x'
I746
sg22
I01
sS'y'
I93
s(dp31
S'y'
I93
sS'x'
I1085
sg22
I00
s(dp32
S'y'
I298
sS'x'
I1203
sg22
I00
s(dp33
g20
S'curve'
p34
sS'x'
I1203
sg22
I01
sS'y'
I740
s(dp35
S'y'
I1130
sS'x'
I1203
sg22
I00
s(dp36
S'y'
I1374
sS'x'
I1099
sg22
I00
stp37
s(dp38
g18
((dp39
g20
S'curve'
p40
sS'x'
I746
sg22
I01
sS'y'
I1491
s(dp41
S'y'
I1491
sS'x'
I1126
sg22
I00
s(dp42
S'y'
I1281
sS'x'
I1358
sg22
I00
s(dp43
g20
S'curve'
p44
sS'x'
I1358
sg22
I01
sS'y'
I741
s(dp45
S'y'
I193
sS'x'
I1358
sg22
I00
s(dp46
S'y'
I-25
sS'x'
I1136
sg22
I00
s(dp47
g20
S'curve'
p48
sS'x'
I745
sg22
I01
sS'y'
I-25
s(dp49
S'y'
I-25
sS'x'
I362
sg22
I00
s(dp50
S'y'
I186
sS'x'
I137
sg22
I00
s(dp51
g20
S'curve'
p52
sS'x'
I137
sg22
I01
sS'y'
I740
s(dp53
S'y'
I1282
sS'x'
I137
sg22
I00
s(dp54
S'y'
I1491
sS'x'
I367
sg22
I00
stp55
stp56
sS'components'
p57
(tsS'anchors'
p58
(tsss."
LayerCount: 2
Fore
SplineSet
747 1488 m 0
 1137 1488 1399 1291 1399 741 c 0
 1399 183 1147 -24 746 -24 c 0
 353 -24 98 176 98 740 c 0
 98 1292 358 1488 747 1488 c 0
747 1313 m 0
 417 1313 330 1094 330 740 c 0
 330 339 432 150 747 150 c 0
 1068 150 1167 334 1167 739 c 0
 1167 1095 1078 1313 747 1313 c 0
EndSplineSet
EndChar

StartChar: OE
Encoding: 271 338 70
Width: 2171
VWidth: 0
Flags: W
PickledData: "(dp1
S'com.typemytype.robofont.layerData'
p2
(dp3
s."
LayerCount: 2
Fore
SplineSet
720 1315 m 0
 1062 1325 1164 1160 1164 740 c 2
 1164 700 l 2
 1164 289 1040 143 721 152 c 0
 425 160 329 336 329 741 c 0
 329 1130 432 1307 720 1315 c 0
2121 166 m 1
 1384 166 l 1
 1384 694 l 1
 2016 694 l 1
 2016 862 l 1
 1384 862 l 1
 1384 1298 l 1
 2110 1298 l 1
 2110 1464 l 1
 1163 1464 l 1
 1163 1464 1163 1414 1163 1362 c 2
 1163 1298 l 1
 1083 1420 946 1491 721 1491 c 0
 342 1491 99 1282 99 740 c 0
 99 186 337 -25 720 -25 c 0
 979 -25 1094 57 1164 170 c 1
 1164 103 l 2
 1164 83 1164.33 0.333333 1164 0 c 2
 2121 0 l 1
 2121 166 l 1
EndSplineSet
EndChar

StartChar: Oslash
Encoding: 152 216 78
Width: 1497
VWidth: 0
Flags: W
PickledData: "(dp1
S'com.typemytype.robofont.layerData'
p2
(dp3
s."
LayerCount: 2
Fore
SplineSet
1252 1604 m 1
 362 -214 l 1
 235 -148 l 1
 1126 1670 l 1
 1252 1604 l 1
EndSplineSet
Refer: 69 79 N 1 0 0 1 0 0 2
EndChar

StartChar: P
Encoding: 48 80 80
Width: 1295
VWidth: 0
Flags: W
PickledData: "(dp1
S'com.typemytype.robofont.guides'
p2
(tsS'com.typemytype.robofont.layerData'
p3
(dp4
S'b'
(dp5
S'name'
p6
S'P'
sS'lib'
p7
(dp8
sS'unicodes'
p9
(tsS'width'
p10
I1295
sS'contours'
p11
(tsS'components'
p12
(tsS'anchors'
p13
(tsss."
LayerCount: 2
Fore
SplineSet
246 1464 m 1
 570 1464 l 2
 1046 1464 1241 1360 1241 1063 c 0
 1241 724 1053 625 541 625 c 2
 246 625 l 1
 246 794 l 1
 577 794 l 2
 892 794 1017 830 1017 1055 c 0
 1017 1283 856 1298 557 1298 c 2
 246 1298 l 1
 246 1464 l 1
EndSplineSet
Refer: 309 -1 N 1 0 0 1 32 0 2
EndChar

StartChar: Q
Encoding: 49 81 81
Width: 1530
VWidth: 0
Flags: W
PickledData: "(dp1
S'com.typemytype.robofont.layerData'
p2
(dp3
S'b'
(dp4
S'name'
p5
S'Q'
sS'lib'
p6
(dp7
sS'unicodes'
p8
(tsS'width'
p9
I1530
sS'contours'
p10
((dp11
S'points'
p12
((dp13
S'segmentType'
p14
S'line'
p15
sS'x'
I1266
sS'smooth'
p16
I00
sS'y'
I-345
s(dp17
g14
S'line'
p18
sS'x'
I976
sg16
I00
sS'y'
I100
s(dp19
g14
S'line'
p20
sS'x'
I1076
sg16
I00
sS'y'
I164
s(dp21
g14
S'line'
p22
sS'x'
I1374
sg16
I00
sS'y'
I-263
stp23
stp24
sS'components'
p25
(tsS'anchors'
p26
(tsss."
LayerCount: 2
Fore
SplineSet
1274 -364 m 1
 972 80 l 1
 1117 179 l 1
 1437 -243 l 1
 1274 -364 l 1
EndSplineSet
Refer: 69 79 N 1 0 0 1 0 0 2
EndChar

StartChar: R
Encoding: 50 82 82
Width: 1318
VWidth: 0
Flags: W
PickledData: "(dp1
S'com.typemytype.robofont.guides'
p2
(tsS'com.typemytype.robofont.layerData'
p3
(dp4
s."
LayerCount: 2
Fore
SplineSet
254 1464 m 1
 713 1464 l 2
 1100 1464 1256 1337 1256 1075 c 0
 1256 876 1138 732 942 692 c 1
 1291 0 l 1
 1054 0 l 1
 722 662 l 1
 254 662 l 1
 254 828 l 1
 677 828 l 2
 891 828 1032 874 1032 1073 c 0
 1032 1261 905 1298 704 1298 c 2
 254 1298 l 1
 254 1464 l 1
EndSplineSet
Refer: 309 -1 N 1 0 0 1 32 0 2
EndChar

StartChar: S
Encoding: 51 83 86
Width: 1216
VWidth: 0
Flags: W
PickledData: "(dp1
S'com.typemytype.robofont.layerData'
p2
(dp3
S'b'
(dp4
S'name'
p5
S'S'
sS'lib'
p6
(dp7
sS'unicodes'
p8
(tsS'width'
p9
I1216
sS'contours'
p10
((dp11
S'points'
p12
((dp13
S'segmentType'
p14
S'curve'
p15
sS'x'
I618
sS'smooth'
p16
I01
sS'y'
I1491
s(dp17
S'y'
I1491
sS'x'
I850
sg16
I00
s(dp18
S'y'
I1424
sS'x'
I1003
sg16
I00
s(dp19
g14
S'curve'
p20
sS'x'
I1127
sg16
I00
sS'y'
I1240
s(dp21
g14
S'line'
p22
sS'x'
I965
sg16
I00
sS'y'
I1123
s(dp23
S'y'
I1256
sS'x'
I885
sg16
I00
s(dp24
S'y'
I1316
sS'x'
I779
sg16
I00
s(dp25
g14
S'curve'
p26
sS'x'
I643
sg16
I01
sS'y'
I1316
s(dp27
S'y'
I1316
sS'x'
I438
sg16
I00
s(dp28
S'y'
I1256
sS'x'
I328
sg16
I00
s(dp29
g14
S'curve'
p30
sS'x'
I330
sg16
I01
sS'y'
I1139
s(dp31
S'y'
I958
sS'x'
I333
sg16
I00
s(dp32
S'y'
I942
sS'x'
I530
sg16
I00
s(dp33
g14
S'curve'
p34
sS'x'
I727
sg16
I01
sS'y'
I866
s(dp35
S'y'
I765
sS'x'
I989
sg16
I00
s(dp36
S'y'
I676
sS'x'
I1188
sg16
I00
s(dp37
g14
S'curve'
p38
sS'x'
I1188
sg16
I01
sS'y'
I393
s(dp39
S'y'
I116
sS'x'
I1188
sg16
I00
s(dp40
S'y'
I-25
sS'x'
I965
sg16
I00
s(dp41
g14
S'curve'
p42
sS'x'
I615
sg16
I01
sS'y'
I-25
s(dp43
S'y'
I-25
sS'x'
I390
sg16
I00
s(dp44
S'y'
I69
sS'x'
I101
sg16
I00
s(dp45
g14
S'curve'
p46
sS'x'
I45
sg16
I00
sS'y'
I373
s(dp47
g14
S'line'
p48
sS'x'
I230
sg16
I00
sS'y'
I454
s(dp49
S'y'
I238
sS'x'
I297
sg16
I00
s(dp50
S'y'
I152
sS'x'
I414
sg16
I00
s(dp51
g14
S'curve'
p52
sS'x'
I634
sg16
I01
sS'y'
I152
s(dp53
S'y'
I152
sS'x'
I796
sg16
I00
s(dp54
S'y'
I193
sS'x'
I959
sg16
I00
s(dp55
g14
S'curve'
p56
sS'x'
I959
sg16
I01
sS'y'
I386
s(dp57
S'y'
I574
sS'x'
I959
sg16
I00
s(dp58
S'y'
I599
sS'x'
I843
sg16
I00
s(dp59
g14
S'curve'
p60
sS'x'
I556
sg16
I01
sS'y'
I701
s(dp61
S'y'
I776
sS'x'
I346
sg16
I00
s(dp62
S'y'
I852
sS'x'
I101
sg16
I00
s(dp63
g14
S'curve'
p64
sS'x'
I101
sg16
I01
sS'y'
I1125
s(dp65
S'y'
I1380
sS'x'
I101
sg16
I00
s(dp66
S'y'
I1491
sS'x'
I352
sg16
I00
stp67
stp68
sS'components'
p69
(tsS'anchors'
p70
(tsss."
LayerCount: 2
Fore
SplineSet
618 1491 m 0
 850 1491 1003 1424 1127 1240 c 1
 965 1123 l 1
 885 1253 779 1316 643 1316 c 0
 438 1316 330 1256 330 1139 c 0
 330 966 452 951 727 866 c 0
 1012 778 1188 676 1188 393 c 0
 1188 116 965 -25 615 -25 c 0
 390 -25 101 69 45 373 c 1
 230 454 l 1
 297 238 414 152 634 152 c 0
 796 152 960 193 959 386 c 0
 958 571 870 606 567 699 c 0
 291 784 101 852 101 1125 c 0
 101 1380 352 1491 618 1491 c 0
EndSplineSet
EndChar

StartChar: T
Encoding: 52 84 92
Width: 1119
VWidth: 0
Flags: W
PickledData: "(dp1
S'com.typemytype.robofont.layerData'
p2
(dp3
s."
LayerCount: 2
Fore
SplineSet
9 1300 m 1
 9 1464 l 1
 1110 1464 l 1
 1110 1300 l 1
 9 1300 l 1
EndSplineSet
Refer: 309 -1 N 1 0 0 1 358 0 2
EndChar

StartChar: Thorn
Encoding: 158 222 94
Width: 1261
VWidth: 0
Flags: W
PickledData: "(dp1
S'com.typemytype.robofont.layerData'
p2
(dp3
s."
LayerCount: 2
Fore
SplineSet
140 0 m 1
 140 1464 l 1
 376 1464 l 1
 376 1204 l 1
 575 1204 l 2
 1052 1204 1224 1069 1224 780 c 0
 1224 449 1044 335 516 335 c 2
 376 335 l 1
 376 0 l 1
 140 0 l 1
376 1033 m 1
 376 505 l 1
 572 505 l 2
 869 505 1001 541 1001 780 c 0
 1001 986 868 1033 552 1033 c 2
 376 1033 l 1
EndSplineSet
EndChar

StartChar: U
Encoding: 53 85 95
Width: 1392
VWidth: 0
Flags: W
PickledData: "(dp1
S'com.typemytype.robofont.layerData'
p2
(dp3
s."
LayerCount: 2
Fore
SplineSet
116 574 m 2
 116 1464 l 1
 336 1464 l 1
 336 598 l 2
 336 308 404 150 697 150 c 0
 988 150 1056 303 1056 598 c 2
 1056 1464 l 1
 1276 1464 l 1
 1276 581 l 2
 1276 161 1077 -24 691 -24 c 0
 319 -24 116 152 116 574 c 2
EndSplineSet
EndChar

StartChar: V
Encoding: 54 86 105
Width: 1164
VWidth: 0
Flags: W
PickledData: "(dp1
S'com.typemytype.robofont.layerData'
p2
(dp3
s."
LayerCount: 2
Fore
SplineSet
477 0 m 1
 -13 1464 l 1
 215 1464 l 1
 589 287 l 1
 960 1464 l 1
 1177 1464 l 1
 688 0 l 1
 477 0 l 1
EndSplineSet
EndChar

StartChar: W
Encoding: 55 87 106
Width: 1797
VWidth: 0
Flags: W
PickledData: "(dp1
S'com.typemytype.robofont.layerData'
p2
(dp3
s."
LayerCount: 2
Fore
SplineSet
393 0 m 1
 -24 1464 l 1
 205 1464 l 1
 487 351 l 1
 852 1464 l 1
 1006 1464 l 1
 1322 325 l 1
 1636 1464 l 1
 1845 1464 l 1
 1403 0 l 1
 1214 0 l 1
 914 1041 l 1
 562 0 l 1
 393 0 l 1
EndSplineSet
EndChar

StartChar: X
Encoding: 56 88 107
Width: 1245
VWidth: 0
Flags: W
PickledData: "(dp1
S'com.typemytype.robofont.layerData'
p2
(dp3
S'b'
(dp4
S'name'
p5
S'X'
sS'lib'
p6
(dp7
sS'unicodes'
p8
(tsS'width'
p9
I1245
sS'contours'
p10
((dp11
S'points'
p12
((dp13
S'segmentType'
p14
S'curve'
p15
sS'x'
I626
sS'smooth'
p16
I00
sS'y'
I889
s(dp17
g14
S'line'
p18
sS'x'
I1029
sg16
I00
sS'y'
I1464
s(dp19
g14
S'line'
p20
sS'x'
I1195
sg16
I00
sS'y'
I1464
s(dp21
g14
S'line'
p22
sS'x'
I706
sg16
I00
sS'y'
I767
s(dp23
S'y'
I767
sS'x'
I706
sg16
I00
s(dp24
S'y'
I641
sS'x'
I620
sg16
I00
s(dp25
g14
S'curve'
p26
sS'x'
I620
sg16
I00
sS'y'
I641
s(dp27
g14
S'line'
p28
sS'x'
I173
sg16
I00
sS'y'
I0
s(dp29
g14
S'line'
p30
sS'x'
I6
sg16
I00
sS'y'
I0
s(dp31
g14
S'line'
p32
sS'x'
I540
sg16
I00
sS'y'
I763
s(dp33
S'y'
I763
sS'x'
I540
sg16
I00
s(dp34
S'y'
I889
sS'x'
I626
sg16
I00
stp35
s(dp36
g12
((dp37
g14
S'curve'
p38
sS'x'
I1239
sg16
I00
sS'y'
I0
s(dp39
g14
S'line'
p40
sS'x'
I1066
sg16
I00
sS'y'
I0
s(dp41
S'y'
I0
sS'x'
I1066
sg16
I00
s(dp42
S'y'
I1464
sS'x'
I51
sg16
I00
s(dp43
g14
S'curve'
p44
sS'x'
I51
sg16
I00
sS'y'
I1464
s(dp45
g14
S'line'
p46
sS'x'
I226
sg16
I00
sS'y'
I1464
s(dp47
S'y'
I1464
sS'x'
I226
sg16
I00
s(dp48
S'y'
I0
sS'x'
I1239
sg16
I00
stp49
stp50
sS'components'
p51
(tsS'anchors'
p52
(tsss."
LayerCount: 2
Fore
SplineSet
1283 0 m 1
 1023 0 l 1
 8 1464 l 1
 270 1464 l 1
 1283 0 l 1
604 907 m 1
 993 1464 l 1
 1242 1464 l 1
 735 744 l 1
 645 614 l 1
 219 0 l 1
 -31 0 l 1
 514 777 l 1
 604 907 l 1
EndSplineSet
EndChar

StartChar: Y
Encoding: 57 89 108
Width: 1162
VWidth: 0
Flags: W
PickledData: "(dp1
S'com.typemytype.robofont.layerData'
p2
(dp3
s."
LayerCount: 2
Fore
SplineSet
469 549 m 1
 -34 1464 l 1
 202 1464 l 1
 580 747 l 1
 951 1464 l 1
 1186 1464 l 1
 687 548 l 1
 687 0 l 1
 469 0 l 1
 469 549 l 1
EndSplineSet
EndChar

StartChar: Z
Encoding: 58 90 111
Width: 1176
VWidth: 0
Flags: W
PickledData: "(dp1
S'com.typemytype.robofont.layerData'
p2
(dp3
s."
LayerCount: 2
Fore
SplineSet
125 1298 m 1
 125 1464 l 1
 1136 1464 l 1
 1136 1325 l 1
 322 165 l 1
 1141 165 l 1
 1134 0 l 1
 42 0 l 1
 42 148 l 1
 853 1298 l 1
 125 1298 l 1
EndSplineSet
EndChar

StartChar: a
Encoding: 65 97 115
Width: 1004
VWidth: 0
Flags: W
PickledData: "(dp1
S'com.typemytype.robofont.layerData'
p2
(dp3
S'b'
(dp4
S'name'
p5
S'a'
sS'lib'
p6
(dp7
sS'unicodes'
p8
(tsS'width'
p9
I1004
sS'contours'
p10
((dp11
S'points'
p12
((dp13
S'segmentType'
p14
S'line'
p15
sS'x'
I773
sS'smooth'
p16
I00
sS'y'
I0
s(dp17
g14
S'line'
p18
sS'x'
I890
sg16
I00
sS'y'
I0
s(dp19
g14
S'line'
p20
sS'x'
I890
sg16
I01
sS'y'
I673
s(dp21
S'y'
I927
sS'x'
I890
sg16
I00
s(dp22
S'y'
I1044
sS'x'
I756
sg16
I00
s(dp23
g14
S'curve'
p24
sS'x'
I514
sg16
I01
sS'y'
I1044
s(dp25
S'y'
I1044
sS'x'
I362
sg16
I00
s(dp26
S'y'
I998
sS'x'
I221
sg16
I00
s(dp27
g14
S'curve'
p28
sS'x'
I134
sg16
I00
sS'y'
I888
s(dp29
S'y'
I888
sS'x'
I134
sg16
I00
s(dp30
S'y'
I808
sS'x'
I219
sg16
I00
s(dp31
g14
S'curve'
p32
sS'x'
I219
sg16
I00
sS'y'
I807
s(dp33
S'y'
I893
sS'x'
I286
sg16
I00
s(dp34
S'y'
I940
sS'x'
I392
sg16
I00
s(dp35
g14
S'curve'
p36
sS'x'
I506
sg16
I01
sS'y'
I940
s(dp37
S'y'
I940
sS'x'
I678
sg16
I00
s(dp38
S'y'
I875
sS'x'
I748
sg16
I00
s(dp39
g14
S'curve'
p40
sS'x'
I748
sg16
I01
sS'y'
I643
s(dp41
g14
S'line'
p42
sS'x'
I748
sg16
I00
sS'y'
I601
s(dp43
g14
S'line'
p44
sS'x'
I649
sg16
I01
sS'y'
I586
s(dp45
S'y'
I539
sS'x'
I340
sg16
I00
s(dp46
S'y'
I501
sS'x'
I92
sg16
I00
s(dp47
g14
S'curve'
p48
sS'x'
I92
sg16
I01
sS'y'
I245
s(dp49
S'y'
I66
sS'x'
I92
sg16
I00
s(dp50
S'y'
I-25
sS'x'
I230
sg16
I00
s(dp51
g14
S'curve'
p52
sS'x'
I391
sg16
I01
sS'y'
I-25
s(dp53
S'y'
I-25
sS'x'
I528
sg16
I00
s(dp54
S'y'
I24
sS'x'
I645
sg16
I00
s(dp55
g14
S'curve'
p56
sS'x'
I756
sg16
I00
sS'y'
I116
stp57
s(dp58
g12
((dp59
g14
S'line'
p60
sS'x'
I748
sg16
I00
sS'y'
I219
s(dp61
S'y'
I143
sS'x'
I658
sg16
I00
s(dp62
S'y'
I73
sS'x'
I537
sg16
I00
s(dp63
g14
S'curve'
p64
sS'x'
I416
sg16
I01
sS'y'
I73
s(dp65
S'y'
I73
sS'x'
I284
sg16
I00
s(dp66
S'y'
I144
sS'x'
I226
sg16
I00
s(dp67
g14
S'curve'
p68
sS'x'
I226
sg16
I01
sS'y'
I265
s(dp69
S'y'
I413
sS'x'
I226
sg16
I00
s(dp70
S'y'
I447
sS'x'
I371
sg16
I00
s(dp71
g14
S'curve'
p72
sS'x'
I650
sg16
I01
sS'y'
I490
s(dp73
g14
S'line'
p74
sS'x'
I748
sg16
I00
sS'y'
I505
stp75
stp76
sS'components'
p77
(tsS'anchors'
p78
(tsss."
LayerCount: 2
Fore
SplineSet
688 259 m 1
 618 179 538 121 417 121 c 0
 300 121 269 176 267 257 c 0
 264 369 323 401 555 445 c 2
 688 470 l 1
 688 259 l 1
718 0 m 1
 900 0 l 1
 900 680 l 2
 900 934 743 1047 499 1047 c 0
 323 1047 213 1003 99 921 c 1
 99 921 182 796 182 795 c 1
 269 853 349 896 491 896 c 0
 662 896 688 821 688 642 c 2
 688 601 l 1
 569 582 l 2
 284 537 70 501 70 245 c 0
 70 68 207 -24 389 -24 c 0
 522 -24 632 25 700 120 c 1
 718 0 l 1
EndSplineSet
EndChar

StartChar: acute
Encoding: 116 180 119
Width: 496
VWidth: 0
Flags: W
PickledData: "(dp1
S'com.typemytype.robofont.layerData'
p2
(dp3
S'b'
(dp4
S'name'
p5
S'acute'
p6
sS'lib'
p7
(dp8
sS'unicodes'
p9
(tsS'width'
p10
I496
sS'contours'
p11
(tsS'components'
p12
(tsS'anchors'
p13
(tsss."
LayerCount: 2
Fore
SplineSet
487 1492 m 1
 136 1172 l 1
 -5 1172 l 1
 197 1492 l 1
 487 1492 l 1
EndSplineSet
EndChar

StartChar: ae
Encoding: 166 230 121
Width: 1667
VWidth: 0
Flags: W
PickledData: "(dp1
S'com.typemytype.robofont.layerData'
p2
(dp3
S'b'
(dp4
S'name'
p5
S'ae'
p6
sS'lib'
p7
(dp8
sS'unicodes'
p9
(tsS'width'
p10
I1667
sS'contours'
p11
((dp12
S'points'
p13
((dp14
S'segmentType'
p15
S'line'
p16
sS'x'
I133
sS'smooth'
p17
I00
sS'y'
I927
s(dp18
S'y'
I1006
sS'x'
I247
sg17
I00
s(dp19
S'y'
I1044
sS'x'
I366
sg17
I00
s(dp20
g15
S'curve'
p21
sS'x'
I518
sg17
I01
sS'y'
I1044
s(dp22
S'y'
I1044
sS'x'
I682
sg17
I00
s(dp23
S'y'
I979
sS'x'
I814
sg17
I00
s(dp24
g15
S'curve'
p25
sS'x'
I842
sg17
I00
sS'y'
I832
s(dp26
S'y'
I966
sS'x'
I903
sg17
I00
s(dp27
S'y'
I1044
sS'x'
I1042
sg17
I00
s(dp28
g15
S'curve'
p29
sS'x'
I1191
sg17
I01
sS'y'
I1044
s(dp30
S'y'
I1044
sS'x'
I1476
sg17
I00
s(dp31
S'y'
I844
sS'x'
I1587
sg17
I00
s(dp32
g15
S'curve'
p33
sS'x'
I1587
sg17
I01
sS'y'
I572
s(dp34
S'y'
I563
sS'x'
I1587
sg17
I00
s(dp35
S'y'
I525
sS'x'
I1586
sg17
I00
s(dp36
g15
S'curve'
p37
sS'x'
I1584
sg17
I00
sS'y'
I508
s(dp38
g15
S'line'
p39
sS'x'
I900
sg17
I00
sS'y'
I494
s(dp40
S'y'
I272
sS'x'
I900
sg17
I00
s(dp41
S'y'
I81
sS'x'
I963
sg17
I00
s(dp42
g15
S'curve'
p43
sS'x'
I1191
sg17
I01
sS'y'
I81
s(dp44
S'y'
I81
sS'x'
I1367
sg17
I00
s(dp45
S'y'
I219
sS'x'
I1439
sg17
I00
s(dp46
g15
S'curve'
p47
sS'x'
I1455
sg17
I00
sS'y'
I273
s(dp48
g15
S'line'
p49
sS'x'
I1570
sg17
I00
sS'y'
I234
s(dp50
S'y'
I83
sS'x'
I1515
sg17
I00
s(dp51
S'y'
I-22
sS'x'
I1369
sg17
I00
s(dp52
g15
S'curve'
p53
sS'x'
I1195
sg17
I00
sS'y'
I-24
s(dp54
S'y'
I-24
sS'x'
I1037
sg17
I00
s(dp55
S'y'
I49
sS'x'
I895
sg17
I00
s(dp56
g15
S'curve'
p57
sS'x'
I845
sg17
I00
sS'y'
I195
s(dp58
S'y'
I18
sS'x'
I747
sg17
I00
s(dp59
S'y'
I-25
sS'x'
I593
sg17
I00
s(dp60
g15
S'curve'
p61
sS'x'
I429
sg17
I01
sS'y'
I-25
s(dp62
S'y'
I-25
sS'x'
I254
sg17
I00
s(dp63
S'y'
I58
sS'x'
I84
sg17
I00
s(dp64
g15
S'curve'
p65
sS'x'
I84
sg17
I01
sS'y'
I251
s(dp66
S'y'
I507
sS'x'
I84
sg17
I00
s(dp67
S'y'
I575
sS'x'
I308
sg17
I00
s(dp68
g15
S'curve'
p69
sS'x'
I613
sg17
I01
sS'y'
I581
s(dp70
S'y'
I581
sS'x'
I614
sg17
I00
s(dp71
S'y'
I585
sS'x'
I753
sg17
I00
s(dp72
g15
S'curve'
p73
sS'x'
I752
sg17
I00
sS'y'
I586
s(dp74
S'y'
I820
sS'x'
I752
sg17
I00
s(dp75
S'y'
I940
sS'x'
I725
sg17
I00
s(dp76
g15
S'curve'
p77
sS'x'
I523
sg17
I01
sS'y'
I940
s(dp78
S'y'
I940
sS'x'
I362
sg17
I00
s(dp79
S'y'
I894
sS'x'
I290
sg17
I00
s(dp80
g15
S'curve'
p81
sS'x'
I203
sg17
I00
sS'y'
I838
stp82
s(dp83
g13
((dp84
g15
S'line'
p85
sS'x'
I1450
sg17
I00
sS'y'
I606
s(dp86
S'y'
I816
sS'x'
I1449
sg17
I00
s(dp87
S'y'
I941
sS'x'
I1378
sg17
I00
s(dp88
g15
S'curve'
p89
sS'x'
I1187
sg17
I01
sS'y'
I941
s(dp90
S'y'
I941
sS'x'
I1003
sg17
I00
s(dp91
S'y'
I774
sS'x'
I911
sg17
I00
s(dp92
g15
S'curve'
p93
sS'x'
I901
sg17
I00
sS'y'
I592
stp94
s(dp95
g13
((dp96
g15
S'curve'
p97
sS'x'
I771
sg17
I01
sS'y'
I318
s(dp98
S'y'
I360
sS'x'
I771
sg17
I00
s(dp99
S'y'
I462
sS'x'
I761
sg17
I00
s(dp100
g15
S'curve'
p101
sS'x'
I761
sg17
I00
sS'y'
I487
s(dp102
g15
S'line'
p103
sS'x'
I620
sg17
I00
sS'y'
I482
s(dp104
S'y'
I471
sS'x'
I401
sg17
I00
s(dp105
S'y'
I440
sS'x'
I226
sg17
I00
s(dp106
g15
S'curve'
p107
sS'x'
I226
sg17
I01
sS'y'
I256
s(dp108
S'y'
I134
sS'x'
I226
sg17
I00
s(dp109
S'y'
I80
sS'x'
I334
sg17
I00
s(dp110
g15
S'curve'
p111
sS'x'
I440
sg17
I01
sS'y'
I80
s(dp112
S'y'
I80
sS'x'
I607
sg17
I00
s(dp113
S'y'
I158
sS'x'
I771
sg17
I00
stp114
stp115
sS'components'
p116
(tsS'anchors'
p117
(tsss."
LayerCount: 2
Fore
SplineSet
128 932 m 1
 242 1011 366 1047 518 1047 c 0
 654 1047 846 1000 864 778 c 1
 818 779 l 1
 870 971 1029 1047 1191 1047 c 0
 1476 1047 1597 844 1597 572 c 0
 1597 563 1596 505 1594 488 c 1
 866 475 l 1
 932 524 l 1
 932 264 992 135 1191 133 c 0
 1334 132 1399 240 1422 293 c 1
 1570 234 l 1
 1515 83 1369 -22 1195 -24 c 1
 999 -24 839 55 797 268 c 1
 872 268 l 1
 773 32 616 -24 429 -24 c 0
 254 -24 86 53 74 246 c 0
 58 500 255 602 600 608 c 2
 788 611 l 1
 720 542 l 1
 720 765 708 873 533 890 c 0
 411 902 298 855 211 799 c 1
 128 932 l 1
721 368 m 2
 721 523 l 1
 787 462 l 1
 620 458 l 2
 401 453 272 398 288 251 c 0
 296 182 348 137 444 132 c 0
 599 124 721 208 721 368 c 2
1409 546 m 1
 1409 752 1368 891 1187 891 c 0
 1003 891 933 730 933 562 c 1
 866 615 l 1
 1486 627 l 1
 1409 546 l 1
EndSplineSet
EndChar

StartChar: ampersand
Encoding: 6 38 124
Width: 1430
VWidth: 0
Flags: W
PickledData: "(dp1
S'com.typemytype.robofont.layerData'
p2
(dp3
S'b'
(dp4
S'name'
p5
S'ampersand'
p6
sS'lib'
p7
(dp8
sS'unicodes'
p9
(tsS'width'
p10
I1430
sS'contours'
p11
((dp12
S'points'
p13
((dp14
S'segmentType'
p15
S'curve'
p16
sS'x'
I603
sS'smooth'
p17
I01
sS'y'
I152
s(dp18
S'y'
I152
sS'x'
I350
sg17
I00
s(dp19
S'y'
I258
sS'x'
I244
sg17
I00
s(dp20
g15
S'curve'
p21
sS'x'
I244
sg17
I01
sS'y'
I419
s(dp22
S'y'
I566
sS'x'
I244
sg17
I00
s(dp23
S'y'
I658
sS'x'
I347
sg17
I00
s(dp24
g15
S'curve'
p25
sS'x'
I574
sg17
I00
sS'y'
I767
s(dp26
g15
S'line'
p27
sS'x'
I961
sg17
I00
sS'y'
I327
s(dp28
S'y'
I199
sS'x'
I854
sg17
I00
s(dp29
S'y'
I152
sS'x'
I743
sg17
I00
stp30
s(dp31
g13
((dp32
g15
S'curve'
p33
sS'x'
I1010
sg17
I01
sS'y'
I1211
s(dp34
S'y'
I1393
sS'x'
I1010
sg17
I00
s(dp35
S'y'
I1491
sS'x'
I861
sg17
I00
s(dp36
g15
S'curve'
p37
sS'x'
I673
sg17
I01
sS'y'
I1491
s(dp38
S'y'
I1491
sS'x'
I495
sg17
I00
s(dp39
S'y'
I1392
sS'x'
I325
sg17
I00
s(dp40
g15
S'curve'
p41
sS'x'
I325
sg17
I01
sS'y'
I1210
s(dp42
S'y'
I1089
sS'x'
I325
sg17
I00
s(dp43
S'y'
I1012
sS'x'
I360
sg17
I00
s(dp44
g15
S'curve'
p45
sS'x'
I464
sg17
I00
sS'y'
I896
s(dp46
S'y'
I806
sS'x'
I238
sg17
I00
s(dp47
S'y'
I632
sS'x'
I98
sg17
I00
s(dp48
g15
S'curve'
p49
sS'x'
I98
sg17
I01
sS'y'
I413
s(dp50
S'y'
I173
sS'x'
I98
sg17
I00
s(dp51
S'y'
I-25
sS'x'
I292
sg17
I00
s(dp52
g15
S'curve'
p53
sS'x'
I582
sg17
I01
sS'y'
I-25
s(dp54
S'y'
I-25
sS'x'
I807
sg17
I00
s(dp55
S'y'
I78
sS'x'
I976
sg17
I00
s(dp56
g15
S'curve'
p57
sS'x'
I1089
sg17
I00
sS'y'
I197
s(dp58
S'y'
I125
sS'x'
I1161
sg17
I00
s(dp59
S'y'
I40
sS'x'
I1236
sg17
I00
s(dp60
g15
S'curve'
p61
sS'x'
I1320
sg17
I00
sS'y'
I-28
s(dp62
g15
S'line'
p63
sS'x'
I1393
sg17
I00
sS'y'
I57
s(dp64
S'y'
I139
sS'x'
I1298
sg17
I00
s(dp65
S'y'
I194
sS'x'
I1257
sg17
I00
s(dp66
g15
S'curve'
p67
sS'x'
I1169
sg17
I00
sS'y'
I285
s(dp68
S'y'
I406
sS'x'
I1232
sg17
I00
s(dp69
S'y'
I562
sS'x'
I1306
sg17
I00
s(dp70
g15
S'curve'
p71
sS'x'
I1332
sg17
I00
sS'y'
I777
s(dp72
g15
S'line'
p73
sS'x'
I1136
sg17
I00
sS'y'
I804
s(dp74
S'y'
I649
sS'x'
I1114
sg17
I00
s(dp75
S'y'
I530
sS'x'
I1089
sg17
I00
s(dp76
g15
S'curve'
p77
sS'x'
I1028
sg17
I00
sS'y'
I430
s(dp78
g15
S'line'
p79
sS'x'
I690
sg17
I00
sS'y'
I819
s(dp80
S'y'
I919
sS'x'
I890
sg17
I00
s(dp81
S'y'
I1044
sS'x'
I1010
sg17
I00
stp82
s(dp83
g13
((dp84
g15
S'curve'
p85
sS'x'
I589
sg17
I00
sS'y'
I940
s(dp86
S'y'
I1038
sS'x'
I498
sg17
I00
s(dp87
S'y'
I1120
sS'x'
I459
sg17
I00
s(dp88
g15
S'curve'
p89
sS'x'
I459
sg17
I01
sS'y'
I1209
s(dp90
S'y'
I1313
sS'x'
I459
sg17
I00
s(dp91
S'y'
I1316
sS'x'
I569
sg17
I00
s(dp92
g15
S'curve'
p93
sS'x'
I678
sg17
I01
sS'y'
I1316
s(dp94
S'y'
I1316
sS'x'
I782
sg17
I00
s(dp95
S'y'
I1315
sS'x'
I882
sg17
I00
s(dp96
g15
S'curve'
p97
sS'x'
I882
sg17
I01
sS'y'
I1205
s(dp98
S'y'
I1123
sS'x'
I882
sg17
I00
s(dp99
S'y'
I1049
sS'x'
I822
sg17
I00
stp100
stp101
sS'components'
p102
(tsS'anchors'
p103
(tsss."
LayerCount: 2
Fore
SplineSet
592 1008 m 2
 534 1073 510 1141 518 1208 c 0
 524 1262 579 1316 678 1316 c 0
 771 1316 825 1260 831 1205 c 0
 838 1143 824 1039 525 923 c 0
 229 808 102 661 98 420 c 0
 94 173 292 -25 582 -25 c 0
 857 -25 1236 91 1332 777 c 1
 1150 803 l 1
 1076 298 851 151 615 151 c 0
 403 151 321 270 316 421 c 0
 311 560 371 677 637 804 c 0
 947 952 1023 1038 1023 1211 c 0
 1023 1393 861 1491 673 1491 c 0
 489 1491 327 1392 316 1210 c 0
 310 1114 333 1036 405 955 c 2
 1278 -35 l 1
 1414 87 l 1
 592 1008 l 2
EndSplineSet
EndChar

StartChar: asciicircum
Encoding: 62 94 127
Width: 1053
VWidth: 0
Flags: W
PickledData: "(dp1
S'com.typemytype.robofont.layerData'
p2
(dp3
s."
LayerCount: 2
Fore
SplineSet
280 100 m 1
 73 100 l 1
 434 999 l 1
 625 999 l 1
 987 100 l 1
 758 100 l 1
 520 761 l 1
 280 100 l 1
EndSplineSet
EndChar

StartChar: asciitilde
Encoding: 94 126 128
Width: 962
VWidth: 0
Flags: W
PickledData: "(dp1
S'com.typemytype.robofont.layerData'
p2
(dp3
s."
LayerCount: 2
Fore
SplineSet
787 670 m 0
 894 676 942 784 951 976 c 1
 773 976 l 1
 755 905 751 876 694 876 c 0
 620 876 357 986 205 976 c 0
 113 970 26 914 11 677 c 1
 189 677 l 1
 210 768 235 775 267 775 c 0
 364 775 595 660 787 670 c 0
EndSplineSet
EndChar

StartChar: asterisk
Encoding: 10 42 129
Width: 826
VWidth: 0
Flags: W
PickledData: "(dp1
S'com.typemytype.robofont.layerData'
p2
(dp3
S'b'
(dp4
S'name'
p5
S'asterisk'
p6
sS'lib'
p7
(dp8
sS'unicodes'
p9
(tsS'width'
p10
I826
sS'contours'
p11
((dp12
S'points'
p13
((dp14
S'segmentType'
p15
S'line'
p16
sS'x'
I467
sS'smooth'
p17
I00
sS'y'
I763
s(dp18
g15
S'line'
p19
sS'x'
I367
sg17
I00
sS'y'
I763
s(dp20
g15
S'line'
p21
sS'x'
I377
sg17
I00
sS'y'
I1050
s(dp22
g15
S'line'
p23
sS'x'
I112
sg17
I00
sS'y'
I895
s(dp24
g15
S'line'
p25
sS'x'
I65
sg17
I00
sS'y'
I983
s(dp26
g15
S'line'
p27
sS'x'
I340
sg17
I00
sS'y'
I1113
s(dp28
g15
S'line'
p29
sS'x'
I64
sg17
I00
sS'y'
I1243
s(dp30
g15
S'line'
p31
sS'x'
I111
sg17
I00
sS'y'
I1331
s(dp32
g15
S'line'
p33
sS'x'
I377
sg17
I00
sS'y'
I1176
s(dp34
g15
S'line'
p35
sS'x'
I367
sg17
I00
sS'y'
I1464
s(dp36
g15
S'line'
p37
sS'x'
I467
sg17
I00
sS'y'
I1464
s(dp38
g15
S'line'
p39
sS'x'
I457
sg17
I00
sS'y'
I1177
s(dp40
g15
S'line'
p41
sS'x'
I722
sg17
I00
sS'y'
I1332
s(dp42
g15
S'line'
p43
sS'x'
I769
sg17
I00
sS'y'
I1244
s(dp44
g15
S'line'
p45
sS'x'
I494
sg17
I00
sS'y'
I1114
s(dp46
g15
S'line'
p47
sS'x'
I770
sg17
I00
sS'y'
I984
s(dp48
g15
S'line'
p49
sS'x'
I723
sg17
I00
sS'y'
I896
s(dp50
g15
S'line'
p51
sS'x'
I457
sg17
I00
sS'y'
I1051
stp52
stp53
sS'components'
p54
(tsS'anchors'
p55
(tsss."
LayerCount: 2
Fore
SplineSet
474 753 m 1
 361 753 l 1
 367 1031 l 1
 112 875 l 1
 55 983 l 1
 320 1113 l 1
 54 1243 l 1
 111 1351 l 1
 367 1199 l 1
 361 1474 l 1
 474 1474 l 1
 467 1200 l 1
 722 1352 l 1
 779 1244 l 1
 514 1114 l 1
 780 984 l 1
 723 876 l 1
 467 1032 l 1
 474 753 l 1
EndSplineSet
EndChar

StartChar: at
Encoding: 32 64 130
Width: 1704
VWidth: 0
Flags: W
PickledData: "(dp1
S'com.typemytype.robofont.layerData'
p2
(dp3
S'b'
(dp4
S'name'
p5
S'at'
p6
sS'lib'
p7
(dp8
sS'unicodes'
p9
(tsS'width'
p10
I1704
sS'contours'
p11
((dp12
S'points'
p13
((dp14
S'segmentType'
p15
S'curve'
p16
sS'x'
I1091
sS'smooth'
p17
I00
sS'y'
I252
s(dp18
S'y'
I109
sS'x'
I995
sg17
I00
s(dp19
S'y'
I67
sS'x'
I893
sg17
I00
s(dp20
g15
S'curve'
p21
sS'x'
I764
sg17
I01
sS'y'
I67
s(dp22
S'y'
I67
sS'x'
I549
sg17
I00
s(dp23
S'y'
I242
sS'x'
I445
sg17
I00
s(dp24
g15
S'curve'
p25
sS'x'
I445
sg17
I01
sS'y'
I425
s(dp26
S'y'
I679
sS'x'
I445
sg17
I00
s(dp27
S'y'
I940
sS'x'
I614
sg17
I00
s(dp28
g15
S'curve'
p29
sS'x'
I866
sg17
I01
sS'y'
I940
s(dp30
S'y'
I940
sS'x'
I951
sg17
I00
s(dp31
S'y'
I911
sS'x'
I1045
sg17
I00
s(dp32
g15
S'curve'
p33
sS'x'
I1145
sg17
I00
sS'y'
I844
s(dp34
g15
S'line'
p35
sS'x'
I1170
sg17
I00
sS'y'
I917
s(dp36
g15
S'line'
p37
sS'x'
I1268
sg17
I00
sS'y'
I917
s(dp38
g15
S'line'
p39
sS'x'
I1176
sg17
I00
sS'y'
I326
s(dp40
S'y'
I263
sS'x'
I1176
sg17
I00
s(dp41
S'y'
I205
sS'x'
I1223
sg17
I00
s(dp42
g15
S'curve'
p43
sS'x'
I1276
sg17
I01
sS'y'
I205
s(dp44
S'y'
I205
sS'x'
I1373
sg17
I00
s(dp45
S'y'
I339
sS'x'
I1473
sg17
I00
s(dp46
g15
S'curve'
p47
sS'x'
I1473
sg17
I01
sS'y'
I608
s(dp48
S'y'
I947
sS'x'
I1473
sg17
I00
s(dp49
S'y'
I1151
sS'x'
I1189
sg17
I00
s(dp50
g15
S'curve'
p51
sS'x'
I886
sg17
I01
sS'y'
I1151
s(dp52
S'y'
I1151
sS'x'
I488
sg17
I00
s(dp53
S'y'
I795
sS'x'
I240
sg17
I00
s(dp54
g15
S'curve'
p55
sS'x'
I240
sg17
I01
sS'y'
I467
s(dp56
S'y'
I162
sS'x'
I240
sg17
I00
s(dp57
S'y'
I-120
sS'x'
I420
sg17
I00
s(dp58
g15
S'curve'
p59
sS'x'
I839
sg17
I01
sS'y'
I-120
s(dp60
S'y'
I-120
sS'x'
I955
sg17
I00
s(dp61
S'y'
I-93
sS'x'
I1091
sg17
I00
s(dp62
g15
S'curve'
p63
sS'x'
I1248
sg17
I00
sS'y'
I-30
s(dp64
g15
S'line'
p65
sS'x'
I1288
sg17
I00
sS'y'
I-105
s(dp66
S'y'
I-188
sS'x'
I1123
sg17
I00
s(dp67
S'y'
I-223
sS'x'
I974
sg17
I00
s(dp68
g15
S'curve'
p69
sS'x'
I842
sg17
I01
sS'y'
I-223
s(dp70
S'y'
I-223
sS'x'
I340
sg17
I00
s(dp71
S'y'
I117
sS'x'
I114
sg17
I00
s(dp72
g15
S'curve'
p73
sS'x'
I114
sg17
I01
sS'y'
I476
s(dp74
S'y'
I855
sS'x'
I114
sg17
I00
s(dp75
S'y'
I1256
sS'x'
I393
sg17
I00
s(dp76
g15
S'curve'
p77
sS'x'
I883
sg17
I01
sS'y'
I1256
s(dp78
S'y'
I1256
sS'x'
I1256
sg17
I00
s(dp79
S'y'
I988
sS'x'
I1591
sg17
I00
s(dp80
g15
S'curve'
p81
sS'x'
I1591
sg17
I01
sS'y'
I596
s(dp82
S'y'
I275
sS'x'
I1591
sg17
I00
s(dp83
S'y'
I112
sS'x'
I1442
sg17
I00
s(dp84
g15
S'curve'
p85
sS'x'
I1258
sg17
I01
sS'y'
I112
s(dp86
S'y'
I112
sS'x'
I1202
sg17
I00
s(dp87
S'y'
I145
sS'x'
I1120
sg17
I00
stp88
s(dp89
g13
((dp90
g15
S'line'
p91
sS'x'
I1123
sg17
I00
sS'y'
I763
s(dp92
S'y'
I821
sS'x'
I1037
sg17
I00
s(dp93
S'y'
I846
sS'x'
I957
sg17
I00
s(dp94
g15
S'curve'
p95
sS'x'
I886
sg17
I01
sS'y'
I846
s(dp96
S'y'
I846
sS'x'
I695
sg17
I00
s(dp97
S'y'
I655
sS'x'
I570
sg17
I00
s(dp98
g15
S'curve'
p99
sS'x'
I570
sg17
I01
sS'y'
I422
s(dp100
S'y'
I289
sS'x'
I570
sg17
I00
s(dp101
S'y'
I163
sS'x'
I634
sg17
I00
s(dp102
g15
S'curve'
p103
sS'x'
I779
sg17
I01
sS'y'
I163
s(dp104
S'y'
I163
sS'x'
I869
sg17
I00
s(dp105
S'y'
I239
sS'x'
I1041
sg17
I00
s(dp106
g15
S'curve'
p107
sS'x'
I1079
sg17
I00
sS'y'
I504
stp108
stp109
sS'components'
p110
(tsS'anchors'
p111
(tsss."
LayerCount: 2
Fore
SplineSet
1073 239 m 1
 1018 140 892 62 764 67 c 0
 549 75 425 242 425 425 c 0
 425 679 614 940 866 940 c 0
 951 940 1046 900 1105 844 c 1
 1135 917 l 1
 1280 917 l 1
 1191 326 l 2
 1182 264 1223 241 1276 241 c 0
 1373 241 1443 339 1443 608 c 0
 1443 938 1186 1097 886 1097 c 0
 508 1097 274 755 274 467 c 0
 274 171 440 -71 849 -71 c 0
 1017 -71 1163 -15 1221 19 c 1
 1288 -105 l 1
 1161 -179 1014 -223 842 -223 c 0
 320 -223 84 97 84 476 c 0
 84 865 383 1256 883 1256 c 0
 1277 1256 1621 998 1621 596 c 0
 1621 275 1442 106 1258 106 c 0
 1202 106 1102 132 1073 239 c 1
1073 724 m 1
 1018 771 950 799 879 799 c 0
 732 799 614 655 614 422 c 0
 614 295 687 211 783 211 c 0
 873 211 1001 259 1039 504 c 2
 1073 724 l 1
EndSplineSet
EndChar

StartChar: b
Encoding: 66 98 132
Width: 1140
VWidth: 0
Flags: W
PickledData: "(dp1
S'com.typemytype.robofont.layerData'
p2
(dp3
S'b'
(dp4
S'name'
p5
S'b'
sS'lib'
p6
(dp7
sS'unicodes'
p8
(tsS'width'
p9
I1140
sS'contours'
p10
((dp11
S'points'
p12
((dp13
S'segmentType'
p14
S'curve'
p15
sS'x'
I592
sS'smooth'
p16
I01
sS'y'
I940
s(dp17
S'y'
I940
sS'x'
I762
sg16
I00
s(dp18
S'y'
I757
sS'x'
I869
sg16
I00
s(dp19
g14
S'curve'
p20
sS'x'
I869
sg16
I01
sS'y'
I520
s(dp21
S'y'
F255.80099999999999
sS'x'
I869
sg16
I00
s(dp22
S'y'
I80
sS'x'
I766
sg16
I00
s(dp23
g14
S'curve'
p24
sS'x'
I594
sg16
I01
sS'y'
I80
s(dp25
S'y'
I80
sS'x'
I362
sg16
I00
s(dp26
S'y'
F274.67899999999997
sS'x'
I292
sg16
I00
s(dp27
g14
S'curve'
p28
sS'x'
I292
sg16
I01
sS'y'
I522
s(dp29
S'y'
I848
sS'x'
I292
sg16
I00
s(dp30
S'y'
I940
sS'x'
I462
sg16
I00
stp31
s(dp32
g12
((dp33
g14
S'line'
p34
sS'x'
I154
sg16
I00
sS'y'
I0
s(dp35
g14
S'line'
p36
sS'x'
I267
sg16
I00
sS'y'
I0
s(dp37
g14
S'line'
p38
sS'x'
I286
sg16
I00
sS'y'
I161
s(dp39
S'y'
F38.340499999999999
sS'x'
I337
sg16
I00
s(dp40
S'y'
I-25
sS'x'
I465
sg16
I00
s(dp41
g14
S'curve'
p42
sS'x'
I609
sg16
I01
sS'y'
I-25
s(dp43
S'y'
I-25
sS'x'
I872
sg16
I00
s(dp44
S'y'
F190.40899999999999
sS'x'
I1013
sg16
I00
s(dp45
g14
S'curve'
p46
sS'x'
I1013
sg16
I01
sS'y'
I502
s(dp47
S'y'
I840
sS'x'
I1013
sg16
I00
s(dp48
S'y'
I1044
sS'x'
I866
sg16
I00
s(dp49
g14
S'curve'
p50
sS'x'
I618
sg16
I01
sS'y'
I1044
s(dp51
S'y'
I1044
sS'x'
I478
sg16
I00
s(dp52
S'y'
I985
sS'x'
I356
sg16
I00
s(dp53
g14
S'curve'
p54
sS'x'
I297
sg16
I00
sS'y'
I865
s(dp55
g14
S'line'
p56
sS'x'
I297
sg16
I00
sS'y'
I1474
s(dp57
g14
S'line'
p58
sS'x'
I154
sg16
I00
sS'y'
I1474
stp59
stp60
sS'components'
p61
(tsS'anchors'
p62
(tsss."
LayerCount: 2
Fore
SplineSet
609 -24 m 0
 892 -24 1052 169 1052 521 c 0
 1052 868 870 1047 608 1047 c 0
 368 1047 246 843 223 646 c 1
 223 351 l 1
 244 117 385 -24 609 -24 c 0
594 126 m 0
 362 126 318 275 318 522 c 0
 318 834 465 897 595 897 c 0
 760 897 835 761 835 518 c 0
 835 254 766 126 594 126 c 0
EndSplineSet
Refer: 218 -1 N 1 0 0 1 26 0 2
EndChar

StartChar: backslash
Encoding: 60 92 133
Width: 632
VWidth: 0
Flags: W
PickledData: "(dp1
S'com.typemytype.robofont.layerData'
p2
(dp3
s."
LayerCount: 2
Fore
SplineSet
651 -5 m 1
 433 -5 l 1
 36 1464 l 1
 254 1464 l 1
 651 -5 l 1
EndSplineSet
EndChar

StartChar: bar
Encoding: 92 124 134
Width: 416
VWidth: 0
Flags: W
PickledData: "(dp1
S'com.typemytype.robofont.layerData'
p2
(dp3
s."
LayerCount: 2
Fore
SplineSet
325 -197 m 1
 105 -197 l 1
 105 1502 l 1
 325 1502 l 1
 325 -197 l 1
EndSplineSet
EndChar

StartChar: braceleft
Encoding: 91 123 135
Width: 644
VWidth: 0
Flags: W
PickledData: "(dp1
S'com.typemytype.robofont.layerData'
p2
(dp3
s."
LayerCount: 2
Fore
SplineSet
628 -130 m 1
 628 3 l 1
 411 3 387 48 387 381 c 0
 387 563 347 676 218 707 c 1
 347 738 387 851 387 1033 c 0
 387 1366 411 1411 628 1411 c 1
 628 1544 l 1
 232 1544 158 1417 158 1046 c 0
 158 915 160 789 -5 777 c 1
 -5 637 l 1
 160 625 158 499 158 368 c 0
 158 -3 232 -130 628 -130 c 1
EndSplineSet
EndChar

StartChar: braceright
Encoding: 93 125 136
Width: 644
VWidth: 0
Flags: W
PickledData: "(dp1
S'com.typemytype.robofont.layerData'
p2
(dp3
S'b'
(dp4
S'name'
p5
S'braceright'
p6
sS'lib'
p7
(dp8
sS'unicodes'
p9
(tsS'width'
p10
I644
sS'contours'
p11
(tsS'components'
p12
(tsS'anchors'
p13
(tsss."
LayerCount: 2
Fore
SplineSet
-5 -130 m 1
 391 -130 465 -3 465 368 c 0
 465 499 463 625 628 637 c 1
 628 777 l 1
 463 789 465 915 465 1046 c 0
 465 1417 391 1544 -5 1544 c 1
 -5 1411 l 1
 212 1411 236 1366 236 1033 c 0
 236 851 276 738 405 707 c 1
 276 676 236 563 236 381 c 0
 236 48 212 3 -5 3 c 1
 -5 -130 l 1
EndSplineSet
EndChar

StartChar: bracketleft
Encoding: 59 91 137
Width: 708
VWidth: 0
Flags: W
PickledData: "(dp1
S'com.typemytype.robofont.layerData'
p2
(dp3
s."
LayerCount: 2
Fore
SplineSet
132 -52 m 1
 132 1480 l 1
 620 1480 l 1
 620 1320 l 1
 352 1320 l 1
 352 110 l 1
 620 110 l 1
 620 -52 l 1
 132 -52 l 1
EndSplineSet
EndChar

StartChar: bracketright
Encoding: 61 93 138
Width: 708
VWidth: 0
Flags: W
PickledData: "(dp1
S'com.typemytype.robofont.layerData'
p2
(dp3
S'b'
(dp4
S'name'
p5
S'bracketright'
p6
sS'lib'
p7
(dp8
sS'unicodes'
p9
(tsS'width'
p10
I708
sS'contours'
p11
(tsS'components'
p12
(tsS'anchors'
p13
(tsss."
LayerCount: 2
Fore
SplineSet
132 1320 m 1
 132 1480 l 1
 620 1480 l 1
 620 -52 l 1
 132 -52 l 1
 132 110 l 1
 400 110 l 1
 400 1320 l 1
 132 1320 l 1
EndSplineSet
EndChar

StartChar: breve
Encoding: 361 728 139
Width: 805
VWidth: 0
Flags: W
PickledData: "(dp1
S'com.typemytype.robofont.layerData'
p2
(dp3
s."
LayerCount: 2
Fore
SplineSet
402 1162 m 0
 265 1162 117 1238 113 1438 c 1
 286 1438 l 1
 286 1371 308 1317 402 1317 c 0
 496 1317 518 1371 518 1438 c 1
 691 1438 l 1
 687 1238 539 1162 402 1162 c 0
EndSplineSet
EndChar

StartChar: brokenbar
Encoding: 102 166 140
Width: 416
VWidth: 0
Flags: W
PickledData: "(dp1
S'com.typemytype.robofont.layerData'
p2
(dp3
s."
LayerCount: 2
Fore
SplineSet
101 -198 m 1
 101 473 l 1
 321 473 l 1
 321 -198 l 1
 101 -198 l 1
321 843 m 1
 101 843 l 1
 101 1504 l 1
 321 1504 l 1
 321 843 l 1
EndSplineSet
EndChar

StartChar: c
Encoding: 67 99 141
Width: 1012
VWidth: 0
Flags: W
PickledData: "(dp1
S'com.typemytype.robofont.layerData'
p2
(dp3
S'b'
(dp4
S'name'
p5
S'c'
sS'lib'
p6
(dp7
sS'unicodes'
p8
(tsS'width'
p9
I1012
sS'contours'
p10
((dp11
S'points'
p12
((dp13
S'segmentType'
p14
S'curve'
p15
sS'x'
I552
sS'smooth'
p16
I00
sS'y'
I124
s(dp17
S'y'
I124
sS'x'
I345
sg16
I00
s(dp18
S'y'
I322
sS'x'
I305
sg16
I00
s(dp19
g14
S'curve'
p20
sS'x'
I305
sg16
I01
sS'y'
I512
s(dp21
S'y'
I702
sS'x'
I305
sg16
I00
s(dp22
S'y'
I899
sS'x'
I346
sg16
I00
s(dp23
g14
S'curve'
p24
sS'x'
I552
sg16
I00
sS'y'
I899
s(dp25
S'y'
I899
sS'x'
I758
sg16
I00
s(dp26
S'y'
I702
sS'x'
I799
sg16
I00
s(dp27
g14
S'curve'
p28
sS'x'
I799
sg16
I01
sS'y'
I512
s(dp29
S'y'
I322
sS'x'
I799
sg16
I00
s(dp30
S'y'
I124
sS'x'
I759
sg16
I00
stp31
s(dp32
g12
((dp33
g14
S'curve'
p34
sS'x'
I552
sg16
I00
sS'y'
I-24
s(dp35
S'y'
I-24
sS'x'
I837
sg16
I00
s(dp36
S'y'
I163
sS'x'
I1016
sg16
I00
s(dp37
g14
S'curve'
p38
sS'x'
I1016
sg16
I01
sS'y'
I515
s(dp39
S'y'
I875
sS'x'
I1016
sg16
I00
s(dp40
S'y'
I1047
sS'x'
I823
sg16
I00
s(dp41
g14
S'curve'
p42
sS'x'
I552
sg16
I00
sS'y'
I1047
s(dp43
S'y'
I1047
sS'x'
I281
sg16
I00
s(dp44
S'y'
I875
sS'x'
I88
sg16
I00
s(dp45
g14
S'curve'
p46
sS'x'
I88
sg16
I01
sS'y'
I515
s(dp47
S'y'
I163
sS'x'
I88
sg16
I00
s(dp48
S'y'
I-24
sS'x'
I267
sg16
I00
stp49
stp50
sS'components'
p51
(tsS'anchors'
p52
(tsss."
LayerCount: 2
Fore
SplineSet
540 -24 m 0
 738 -24 900 47 956 297 c 1
 788 348 l 1
 751 192 675 127 548 127 c 0
 398 127 305 249 305 514 c 0
 305 769 395 896 548 896 c 0
 673 896 745 832 783 682 c 1
 958 725 l 1
 902 970 739 1047 541 1047 c 0
 245 1047 88 819 88 511 c 0
 88 203 244 -24 540 -24 c 0
EndSplineSet
EndChar

StartChar: caron
Encoding: 360 711 143
Width: 838
VWidth: 0
Flags: W
PickledData: "(dp1
S'com.typemytype.robofont.layerData'
p2
(dp3
S'b'
(dp4
S'name'
p5
S'caron'
p6
sS'lib'
p7
(dp8
sS'unicodes'
p9
(tsS'width'
p10
I838
sS'contours'
p11
(tsS'components'
p12
(tsS'anchors'
p13
(tsss."
LayerCount: 2
Fore
SplineSet
297 1172 m 1
 142 1492 l 1
 284 1492 l 1
 424 1274 l 1
 565 1492 l 1
 707 1492 l 1
 552 1172 l 1
 297 1172 l 1
EndSplineSet
EndChar

StartChar: cedilla
Encoding: 120 184 148
Width: 435
VWidth: 0
Flags: HW
PickledData: "(dp1
S'com.typemytype.robofont.layerData'
p2
(dp3
s."
LayerCount: 2
Fore
SplineSet
102 -387 m 1
 102 -500 l 1
 126.590871475 -504.232854926 149.380556942 -506.213098778 170.426987512 -506.213098778 c 0
 313.674523629 -506.213098778 376.165406363 -414.477881652 376.165406363 -316.88525915 c 0
 376.165406363 -215.406198801 308.598263174 -107.593924222 194 -90 c 1
 186 -185 l 1
 223.958569668 -196.715607922 254.670050573 -247.960790912 254.670050573 -296.23206671 c 0
 254.670050573 -344.407713802 224.080132235 -389.621225059 139.575081041 -389.621225059 c 0
 128.069186947 -389.621225059 115.563785287 -388.783032808 102 -387 c 1
EndSplineSet
EndChar

StartChar: cent
Encoding: 98 162 149
Width: 982
VWidth: 0
Flags: W
PickledData: "(dp1
S'com.typemytype.robofont.layerData'
p2
(dp3
S'b'
(dp4
S'name'
p5
S'cent'
p6
sS'lib'
p7
(dp8
sS'unicodes'
p9
(tsS'width'
p10
I982
sS'contours'
p11
(tsS'components'
p12
(tsS'anchors'
p13
(tsss."
LayerCount: 2
Fore
SplineSet
486 -208 m 1
 624 -208 l 1
 624 1253 l 1
 486 1253 l 1
 486 -208 l 1
EndSplineSet
Refer: 141 99 N 1 0 0 1 0 0 2
EndChar

StartChar: circumflex
Encoding: 359 710 150
Width: 838
VWidth: 0
Flags: W
PickledData: "(dp1
S'com.typemytype.robofont.layerData'
p2
(dp3
s."
LayerCount: 2
Fore
SplineSet
297 1492 m 1
 552 1492 l 1
 707 1172 l 1
 565 1172 l 1
 424 1390 l 1
 284 1172 l 1
 142 1172 l 1
 297 1492 l 1
EndSplineSet
EndChar

StartChar: colon
Encoding: 26 58 151
Width: 482
VWidth: 0
Flags: W
PickledData: "(dp1
S'com.typemytype.robofont.layerData'
p2
(dp3
S'b'
(dp4
S'name'
p5
S'colon'
p6
sS'lib'
p7
(dp8
sS'unicodes'
p9
(tsS'width'
p10
I482
sS'contours'
p11
((dp12
S'points'
p13
((dp14
S'segmentType'
p15
S'line'
p16
sS'x'
I115
sS'smooth'
p17
I00
sS'y'
I1049
s(dp18
g15
S'line'
p19
sS'x'
I375
sg17
I00
sS'y'
I1049
s(dp20
g15
S'line'
p21
sS'x'
I375
sg17
I00
sS'y'
I809
s(dp22
g15
S'line'
p23
sS'x'
I115
sg17
I00
sS'y'
I809
stp24
s(dp25
g13
((dp26
g15
S'line'
p27
sS'x'
I115
sg17
I00
sS'y'
I420
s(dp28
g15
S'line'
p29
sS'x'
I375
sg17
I00
sS'y'
I420
s(dp30
g15
S'line'
p31
sS'x'
I375
sg17
I00
sS'y'
I180
s(dp32
g15
S'line'
p33
sS'x'
I115
sg17
I00
sS'y'
I180
stp34
stp35
sS'components'
p36
(tsS'anchors'
p37
(tsss."
LayerCount: 2
Fore
SplineSet
375 408 m 1
 375 171 l 1
 116 171 l 1
 116 408 l 1
 375 408 l 1
116 1047 m 1
 375 1047 l 1
 375 808 l 1
 116 808 l 1
 116 1047 l 1
EndSplineSet
EndChar

StartChar: comma
Encoding: 12 44 152
Width: 445
VWidth: 0
Flags: W
PickledData: "(dp1
S'com.typemytype.robofont.layerData'
p2
(dp3
s."
LayerCount: 2
Fore
SplineSet
85 240 m 5
 355 240 l 5
 355 95 l 6
 355 -103 324 -214 182 -295 c 5
 111 -203 l 5
 144 -172 204 -92 204 -13 c 5
 85 0 l 5
 85 240 l 5
EndSplineSet
EndChar

StartChar: copyright
Encoding: 105 169 153
Width: 1702
VWidth: 0
Flags: W
PickledData: "(dp1
S'com.typemytype.robofont.layerData'
p2
(dp3
s."
LayerCount: 2
Fore
SplineSet
850 1497 m 0
 451 1497 123 1205 123 774 c 0
 123 335 451 53 850 53 c 0
 1251 53 1579 375 1579 774 c 0
 1579 1175 1251 1497 850 1497 c 0
204 773 m 0
 204 1154 483 1432 850 1432 c 0
 1218 1432 1498 1124 1498 773 c 0
 1498 423 1217 118 849 118 c 0
 482 118 204 383 204 773 c 0
523 781 m 0
 523 457 642 326 856 326 c 0
 998 326 1095 394 1138 543 c 1
 1041 576 l 1
 1008 473 961 431 860 431 c 0
 708 431 642 526 642 781 c 0
 642 1036 708 1131 860 1131 c 0
 961 1131 1008 1089 1041 986 c 1
 1138 1019 l 1
 1095 1168 998 1236 856 1236 c 0
 642 1236 523 1105 523 781 c 0
EndSplineSet
EndChar

StartChar: currency
Encoding: 100 164 154
Width: 1068
VWidth: 0
Flags: W
LayerCount: 2
Fore
SplineSet
769 658 m 0
 769 518 681 385 536 385 c 0
 385 385 303 516 303 655 c 0
 303 794 386 925 535 925 c 0
 684 925 769 796 769 658 c 0
934 246 m 1
 990 309 l 1
 831 449 l 1
 866 510 883 581 883 653 c 0
 883 740 857 828 805 896 c 1
 942 1052 l 1
 878 1108 l 1
 745 956 l 1
 691 998 620 1023 534 1023 c 0
 427 1023 345 985 287 926 c 1
 134 1061 l 1
 78 997 l 1
 236 859 l 1
 200 799 183 727 183 656 c 0
 183 568 210 479 264 410 c 1
 126 253 l 1
 190 197 l 1
 324 350 l 1
 379 309 449 284 535 284 c 0
 641 284 722 322 780 381 c 1
 934 246 l 1
EndSplineSet
EndChar

StartChar: d
Encoding: 68 100 155
Width: 1137
VWidth: 0
Flags: W
PickledData: "(dp1
S'com.typemytype.robofont.layerData'
p2
(dp3
S'b'
(dp4
S'name'
p5
S'b'
sS'lib'
p6
(dp7
sS'unicodes'
p8
(tsS'width'
p9
I1137
sS'contours'
p10
((dp11
S'points'
p12
((dp13
S'segmentType'
p14
S'curve'
p15
sS'x'
I601
sS'smooth'
p16
I01
sS'y'
I940
s(dp17
S'y'
I940
sS'x'
I771
sg16
I00
s(dp18
S'y'
I757
sS'x'
I878
sg16
I00
s(dp19
g14
S'curve'
p20
sS'x'
I878
sg16
I01
sS'y'
I520
s(dp21
S'y'
F255.80099999999999
sS'x'
I878
sg16
I00
s(dp22
S'y'
I80
sS'x'
I775
sg16
I00
s(dp23
g14
S'curve'
p24
sS'x'
I603
sg16
I01
sS'y'
I80
s(dp25
S'y'
I80
sS'x'
I371
sg16
I00
s(dp26
S'y'
F274.67899999999997
sS'x'
I301
sg16
I00
s(dp27
g14
S'curve'
p28
sS'x'
I301
sg16
I01
sS'y'
I522
s(dp29
S'y'
I848
sS'x'
I301
sg16
I00
s(dp30
S'y'
I940
sS'x'
I471
sg16
I00
stp31
s(dp32
g12
((dp33
g14
S'line'
p34
sS'x'
I163
sg16
I00
sS'y'
I0
s(dp35
g14
S'line'
p36
sS'x'
I276
sg16
I00
sS'y'
I0
s(dp37
g14
S'line'
p38
sS'x'
I295
sg16
I00
sS'y'
I161
s(dp39
S'y'
F38.340499999999999
sS'x'
I346
sg16
I00
s(dp40
S'y'
I-25
sS'x'
I474
sg16
I00
s(dp41
g14
S'curve'
p42
sS'x'
I618
sg16
I01
sS'y'
I-25
s(dp43
S'y'
I-25
sS'x'
I881
sg16
I00
s(dp44
S'y'
F190.40899999999999
sS'x'
I1022
sg16
I00
s(dp45
g14
S'curve'
p46
sS'x'
I1022
sg16
I01
sS'y'
I502
s(dp47
S'y'
I840
sS'x'
I1022
sg16
I00
s(dp48
S'y'
I1044
sS'x'
I875
sg16
I00
s(dp49
g14
S'curve'
p50
sS'x'
I627
sg16
I01
sS'y'
I1044
s(dp51
S'y'
I1044
sS'x'
I487
sg16
I00
s(dp52
S'y'
I985
sS'x'
I365
sg16
I00
s(dp53
g14
S'curve'
p54
sS'x'
I306
sg16
I00
sS'y'
I865
s(dp55
g14
S'line'
p56
sS'x'
I306
sg16
I00
sS'y'
I1474
s(dp57
g14
S'line'
p58
sS'x'
I163
sg16
I00
sS'y'
I1474
stp59
stp60
sS'components'
p61
(tsS'anchors'
p62
(tsss."
LayerCount: 2
Fore
SplineSet
533 -24 m 0
 757 -24 898 121 919 355 c 1
 919 646 l 1
 890 848 777 1047 537 1047 c 0
 275 1047 87 873 87 523 c 0
 87 171 250 -24 533 -24 c 0
548 126 m 0
 372 135 303 259 303 523 c 0
 303 769 378 890 544 897 c 0
 674 902 822 830 822 522 c 0
 822 291 763 115 548 126 c 0
EndSplineSet
Refer: 219 -1 N 1 0 0 1 36 4 2
EndChar

StartChar: dcroat
Encoding: 209 273 157
Width: 1137
VWidth: 0
Flags: W
PickledData: "(dp1
S'com.typemytype.robofont.layerData'
p2
(dp3
s."
LayerCount: 2
Fore
SplineSet
589 1176 m 1
 1139 1176 l 1
 1139 1304 l 1
 589 1304 l 1
 589 1176 l 1
EndSplineSet
Refer: 155 100 N 1 0 0 1 0 0 2
EndChar

StartChar: degree
Encoding: 112 176 158
Width: 483
VWidth: 0
Flags: W
PickledData: "(dp1
S'com.typemytype.robofont.layerData'
p2
(dp3
s."
LayerCount: 2
Fore
SplineSet
240 1012 m 0
 408 1012 502 1134 502 1267 c 0
 502 1400 408 1522 240 1522 c 0
 72 1522 -22 1400 -22 1267 c 0
 -22 1134 72 1012 240 1012 c 0
240 1397 m 0
 315 1397 358 1341 358 1267 c 0
 358 1193 315 1137 240 1137 c 0
 165 1137 122 1193 122 1267 c 0
 122 1341 165 1397 240 1397 c 0
EndSplineSet
EndChar

StartChar: dieresis
Encoding: 104 168 159
Width: 860
VWidth: 0
Flags: W
PickledData: "(dp1
S'com.typemytype.robofont.layerData'
p2
(dp3
s."
LayerCount: 2
Fore
SplineSet
750 1395 m 1
 750 1161 l 1
 514 1161 l 1
 514 1395 l 1
 750 1395 l 1
65 1395 m 1
 301 1395 l 1
 301 1161 l 1
 65 1161 l 1
 65 1395 l 1
EndSplineSet
EndChar

StartChar: divide
Encoding: 183 247 160
Width: 1024
VWidth: 0
Flags: W
PickledData: "(dp1
S'com.typemytype.robofont.layerData'
p2
(dp3
s."
LayerCount: 2
Fore
SplineSet
595 395 m 1
 595 171 l 1
 334 171 l 1
 334 395 l 1
 595 395 l 1
334 1024 m 1
 595 1024 l 1
 595 798 l 1
 334 798 l 1
 334 1024 l 1
842 527 m 1
 842 669 l 1
 92 669 l 1
 92 527 l 1
 842 527 l 1
EndSplineSet
EndChar

StartChar: dollar
Encoding: 4 36 161
Width: 1216
VWidth: 0
Flags: W
PickledData: "(dp1
S'com.typemytype.robofont.layerData'
p2
(dp3
S'b'
(dp4
S'name'
p5
S'dollar'
p6
sS'lib'
p7
(dp8
sS'unicodes'
p9
(tsS'width'
p10
I1216
sS'contours'
p11
((dp12
S'points'
p13
((dp14
S'segmentType'
p15
S'line'
p16
sS'x'
I731
sS'smooth'
p17
I00
sS'y'
I103
s(dp18
g15
S'line'
p19
sS'x'
I731
sg17
I00
sS'y'
I692
s(dp20
S'y'
I616
sS'x'
I943
sg17
I00
s(dp21
S'y'
I556
sS'x'
I1058
sg17
I00
s(dp22
g15
S'curve'
p23
sS'x'
I1058
sg17
I01
sS'y'
I388
s(dp24
S'y'
I188
sS'x'
I1058
sg17
I00
s(dp25
S'y'
I115
sS'x'
I898
sg17
I00
s(dp26
g15
S'curve'
p27
sS'x'
I734
sg17
I00
sS'y'
I103
stp28
s(dp29
g13
((dp30
g15
S'line'
p31
sS'x'
I642
sg17
I00
sS'y'
I871
s(dp32
S'y'
I919
sS'x'
I492
sg17
I00
s(dp33
S'y'
I975
sS'x'
I337
sg17
I00
s(dp34
g15
S'curve'
p35
sS'x'
I337
sg17
I01
sS'y'
I1128
s(dp36
S'y'
I1283
sS'x'
I337
sg17
I00
s(dp37
S'y'
I1352
sS'x'
I472
sg17
I00
s(dp38
g15
S'curve'
p39
sS'x'
I642
sg17
I00
sS'y'
I1362
stp40
s(dp41
g13
((dp42
g15
S'line'
p43
sS'x'
I642
sg17
I00
sS'y'
I-201
s(dp44
g15
S'line'
p45
sS'x'
I731
sg17
I00
sS'y'
I-201
s(dp46
g15
S'line'
p47
sS'x'
I731
sg17
I00
sS'y'
I-23
s(dp48
S'y'
I-7
sS'x'
I1025
sg17
I00
s(dp49
S'y'
I142
sS'x'
I1211
sg17
I00
s(dp50
g15
S'curve'
p51
sS'x'
I1211
sg17
I01
sS'y'
I393
s(dp52
S'y'
I646
sS'x'
I1211
sg17
I00
s(dp53
S'y'
I726
sS'x'
I1035
sg17
I00
s(dp54
g15
S'curve'
p55
sS'x'
I766
sg17
I01
sS'y'
I829
s(dp56
S'y'
I833
sS'x'
I755
sg17
I00
s(dp57
S'y'
I838
sS'x'
I743
sg17
I00
s(dp58
g15
S'curve'
p59
sS'x'
I731
sg17
I00
sS'y'
I842
s(dp60
g15
S'line'
p61
sS'x'
I731
sg17
I00
sS'y'
I1363
s(dp62
S'y'
I1350
sS'x'
I915
sg17
I00
s(dp63
S'y'
I1246
sS'x'
I1020
sg17
I00
s(dp64
g15
S'curve'
p65
sS'x'
I1074
sg17
I00
sS'y'
I1148
s(dp66
g15
S'line'
p67
sS'x'
I1178
sg17
I00
sS'y'
I1224
s(dp68
S'y'
I1389
sS'x'
I1070
sg17
I00
s(dp69
S'y'
I1469
sS'x'
I932
sg17
I00
s(dp70
g15
S'curve'
p71
sS'x'
I731
sg17
I00
sS'y'
I1480
s(dp72
g15
S'line'
p73
sS'x'
I731
sg17
I00
sS'y'
I1674
s(dp74
g15
S'line'
p75
sS'x'
I642
sg17
I00
sS'y'
I1674
s(dp76
g15
S'line'
p77
sS'x'
I642
sg17
I00
sS'y'
I1481
s(dp78
S'y'
I1471
sS'x'
I408
sg17
I00
s(dp79
S'y'
I1357
sS'x'
I184
sg17
I00
s(dp80
g15
S'curve'
p81
sS'x'
I184
sg17
I01
sS'y'
I1116
s(dp82
S'y'
I877
sS'x'
I184
sg17
I00
s(dp83
S'y'
I804
sS'x'
I408
sg17
I00
s(dp84
g15
S'curve'
p85
sS'x'
I618
sg17
I01
sS'y'
I731
s(dp86
S'y'
I728
sS'x'
I626
sg17
I00
s(dp87
S'y'
I725
sS'x'
I634
sg17
I00
s(dp88
g15
S'curve'
p89
sS'x'
I642
sg17
I00
sS'y'
I723
s(dp90
g15
S'line'
p91
sS'x'
I642
sg17
I00
sS'y'
I102
s(dp92
S'y'
I113
sS'x'
I419
sg17
I00
s(dp93
S'y'
I218
sS'x'
I278
sg17
I00
s(dp94
g15
S'curve'
p95
sS'x'
I221
sg17
I00
sS'y'
I426
s(dp96
g15
S'line'
p97
sS'x'
I98
sg17
I00
sS'y'
I373
s(dp98
S'y'
I84
sS'x'
I151
sg17
I00
s(dp99
S'y'
I-15
sS'x'
I422
sg17
I00
s(dp100
g15
S'curve'
p101
sS'x'
I642
sg17
I00
sS'y'
I-24
stp102
stp103
sS'components'
p104
(tsS'anchors'
p105
(tsss."
LayerCount: 2
Fore
SplineSet
581 1672 m 1
 713 1672 l 1
 713 -204 l 1
 581 -204 l 1
 581 1672 l 1
EndSplineSet
Refer: 86 83 N 1 0 0 1 0 0 2
EndChar

StartChar: dotaccent
Encoding: 362 729 162
Width: 434
VWidth: 0
Flags: W
PickledData: "(dp1
S'com.typemytype.robofont.layerData'
p2
(dp3
S'b'
(dp4
S'name'
p5
S'dotaccent'
p6
sS'lib'
p7
(dp8
sS'unicodes'
p9
(tsS'width'
p10
I434
sS'contours'
p11
(tsS'components'
p12
(tsS'anchors'
p13
(tsss."
LayerCount: 2
Fore
SplineSet
85 766 m 1
 345 766 l 1
 345 526 l 1
 85 526 l 1
 85 766 l 1
EndSplineSet
EndChar

StartChar: dotlessi
Encoding: 239 305 163
Width: 456
VWidth: 0
Flags: W
PickledData: "(dp1
S'com.typemytype.robofont.layerData'
p2
(dp3
s."
LayerCount: 2
Fore
SplineSet
137 0 m 1
 137 1023 l 1
 349 1023 l 1
 349 0 l 1
 137 0 l 1
EndSplineSet
EndChar

StartChar: dotlessj
Encoding: 65538 -1 164
Width: 513
VWidth: 0
Flags: W
PickledData: "(dp1
S'com.typemytype.robofont.layerData'
p2
(dp3
S'b'
(dp4
S'name'
p5
S'j'
sS'lib'
p6
(dp7
sS'unicodes'
p8
(tsS'width'
p9
I513
sS'contours'
p10
((dp11
S'points'
p12
((dp13
S'segmentType'
p14
S'curve'
p15
sS'x'
I195
sS'smooth'
p16
I01
sS'y'
I-91
s(dp17
g14
S'line'
p18
sS'x'
I195
sg16
I00
sS'y'
I1023
s(dp19
g14
S'line'
p20
sS'x'
I407
sg16
I00
sS'y'
I1023
s(dp21
g14
S'line'
p22
sS'x'
I407
sg16
I01
sS'y'
I-12
s(dp23
S'y'
I-217
sS'x'
I407
sg16
I00
s(dp24
S'y'
I-325
sS'x'
I310
sg16
I00
s(dp25
g14
S'curve'
p26
sS'x'
I118
sg16
I01
sS'y'
I-325
s(dp27
S'y'
I-325
sS'x'
I67
sg16
I00
s(dp28
S'y'
I-312
sS'x'
I4
sg16
I00
s(dp29
g14
S'curve'
p30
sS'x'
I-44
sg16
I00
sS'y'
I-284
s(dp31
g14
S'line'
p32
sS'x'
I-20
sg16
I00
sS'y'
I-177
s(dp33
S'y'
I-191
sS'x'
I18
sg16
I00
s(dp34
S'y'
I-208
sS'x'
I66
sg16
I00
s(dp35
g14
S'curve'
p36
sS'x'
I99
sg16
I01
sS'y'
I-208
s(dp37
S'y'
I-208
sS'x'
I158
sg16
I00
s(dp38
S'y'
I-182
sS'x'
I195
sg16
I00
stp39
s(dp40
g12
((dp41
g14
S'line'
p42
sS'x'
I197
sg16
I00
sS'y'
I1188
s(dp43
g14
S'line'
p44
sS'x'
I197
sg16
I00
sS'y'
I1421
s(dp45
g14
S'line'
p46
sS'x'
I408
sg16
I00
sS'y'
I1421
s(dp47
g14
S'line'
p48
sS'x'
I408
sg16
I00
sS'y'
I1188
stp49
stp50
sS'components'
p51
(tsS'anchors'
p52
(tsss."
LayerCount: 2
Fore
SplineSet
134 -380 m 0
 323 -380 407 -304 407 -42 c 2
 407 1023 l 1
 195 1023 l 1
 195 -91 l 2
 195 -177 155 -207 100 -207 c 0
 64 -207 22 -195 -20 -176 c 1
 -61 -334 l 1
 -13 -362 63 -380 134 -380 c 0
EndSplineSet
EndChar

StartChar: e
Encoding: 69 101 165
Width: 1038
VWidth: 0
Flags: W
PickledData: "(dp1
S'com.typemytype.robofont.layerData'
p2
(dp3
S'b'
(dp4
S'name'
p5
S'e'
sS'lib'
p6
(dp7
sS'unicodes'
p8
(tsS'width'
p9
I1038
sS'contours'
p10
((dp11
S'points'
p12
((dp13
S'segmentType'
p14
S'line'
p15
sS'x'
I813
sS'smooth'
p16
I00
sS'y'
I597
s(dp17
S'y'
I806
sS'x'
I812
sg16
I00
s(dp18
S'y'
I940
sS'x'
I730
sg16
I00
s(dp19
g14
S'curve'
p20
sS'x'
I539
sg16
I01
sS'y'
I940
s(dp21
S'y'
I940
sS'x'
I355
sg16
I00
s(dp22
S'y'
I783
sS'x'
I266
sg16
I00
s(dp23
g14
S'curve'
p24
sS'x'
I251
sg16
I00
sS'y'
I597
stp25
s(dp26
g12
((dp27
g14
S'curve'
p28
sS'x'
I543
sg16
I01
sS'y'
I1044
s(dp29
S'y'
I1044
sS'x'
I828
sg16
I00
s(dp30
S'y'
I836
sS'x'
I950
sg16
I00
s(dp31
g14
S'curve'
p32
sS'x'
I950
sg16
I01
sS'y'
I564
s(dp33
S'y'
I555
sS'x'
I950
sg16
I00
s(dp34
S'y'
I521
sS'x'
I949
sg16
I00
s(dp35
g14
S'curve'
p36
sS'x'
I947
sg16
I00
sS'y'
I504
s(dp37
g14
S'line'
p38
sS'x'
I248
sg16
I00
sS'y'
I504
s(dp39
S'y'
I278
sS'x'
I248
sg16
I00
s(dp40
S'y'
I80
sS'x'
I332
sg16
I00
s(dp41
g14
S'curve'
p42
sS'x'
I548
sg16
I01
sS'y'
I80
s(dp43
S'y'
I80
sS'x'
I686
sg16
I00
s(dp44
S'y'
I148
sS'x'
I771
sg16
I00
s(dp45
g14
S'curve'
p46
sS'x'
I806
sg16
I01
sS'y'
I258
s(dp47
S'y'
I258
sS'x'
I807
sg16
I00
s(dp48
S'y'
I234
sS'x'
I916
sg16
I00
s(dp49
g14
S'curve'
p50
sS'x'
I916
sg16
I00
sS'y'
I234
s(dp51
S'y'
I56
sS'x'
I869
sg16
I00
s(dp52
S'y'
I-24
sS'x'
I708
sg16
I00
s(dp53
g14
S'curve'
p54
sS'x'
I552
sg16
I00
sS'y'
I-25
s(dp55
S'y'
I-25
sS'x'
I236
sg16
I00
s(dp56
S'y'
I229
sS'x'
I103
sg16
I00
s(dp57
g14
S'curve'
p58
sS'x'
I103
sg16
I01
sS'y'
I512
s(dp59
S'y'
I823
sS'x'
I103
sg16
I00
s(dp60
S'y'
I1044
sS'x'
I261
sg16
I00
stp61
stp62
sS'components'
p63
(tsS'anchors'
p64
(tsss."
LayerCount: 2
Fore
SplineSet
543 1047 m 0
 828 1047 961 841 961 568 c 0
 961 559 960 485 958 468 c 1
 300 468 l 1
 303 304 365 127 549 127 c 0
 687 127 749 212 784 307 c 0
 784 308 943 272 943 272 c 1
 896 94 749 -24 552 -24 c 0
 229 -24 88 217 88 512 c 0
 88 843 254 1047 543 1047 c 0
762 607 m 1
 762 796 701 896 539 896 c 0
 358 896 305 721 300 607 c 1
 762 607 l 1
EndSplineSet
EndChar

StartChar: eight
Encoding: 24 56 171
Width: 1246
VWidth: 0
Flags: W
PickledData: "(dp1
S'com.typemytype.robofont.layerData'
p2
(dp3
S'b'
(dp4
S'name'
p5
S'eight'
p6
sS'lib'
p7
(dp8
sS'unicodes'
p9
(tsS'width'
p10
I1246
sS'contours'
p11
((dp12
S'points'
p13
((dp14
S'segmentType'
p15
S'curve'
p16
sS'x'
F698.14297729064253
sS'smooth'
p17
I00
sS'y'
I792
s(dp18
S'y'
I839
sS'x'
F792.14297729064253
sg17
I00
s(dp19
S'y'
I932
sS'x'
F938.14297729064253
sg17
I00
s(dp20
g15
S'curve'
p21
sS'x'
F938.14297729064253
sg17
I01
sS'y'
I1101
s(dp22
S'y'
I1292
sS'x'
F938.14297729064253
sg17
I00
s(dp23
S'y'
I1374
sS'x'
F797.14297729064253
sg17
I00
s(dp24
g15
S'curve'
p25
sS'x'
F633.14297729064253
sg17
I01
sS'y'
I1374
s(dp26
S'y'
I1374
sS'x'
F480.14297729064253
sg17
I00
s(dp27
S'y'
I1301
sS'x'
F317.14297729064253
sg17
I00
s(dp28
g15
S'curve'
p29
sS'x'
F317.14297729064253
sg17
I01
sS'y'
I1104
s(dp30
S'y'
I914
sS'x'
F317.14297729064253
sg17
I00
s(dp31
S'y'
I857
sS'x'
F493.14297729064253
sg17
I00
stp32
s(dp33
g13
((dp34
g15
S'curve'
p35
sS'x'
F540.14297729064253
sg17
I00
sS'y'
I716
s(dp36
S'y'
I623
sS'x'
F386.14297729064253
sg17
I00
s(dp37
S'y'
I487
sS'x'
F303.14297729064253
sg17
I00
s(dp38
g15
S'curve'
p39
sS'x'
F303.14297729064253
sg17
I01
sS'y'
I367
s(dp40
S'y'
I223
sS'x'
F303.14297729064253
sg17
I00
s(dp41
S'y'
I93
sS'x'
F418.14297729064253
sg17
I00
s(dp42
g15
S'curve'
p43
sS'x'
F623.14297729064253
sg17
I01
sS'y'
I93
s(dp44
S'y'
I93
sS'x'
F780.14297729064253
sg17
I00
s(dp45
S'y'
I189
sS'x'
F953.14297729064253
sg17
I00
s(dp46
g15
S'curve'
p47
sS'x'
F953.14297729064253
sg17
I01
sS'y'
I368
s(dp48
S'y'
I586
sS'x'
F953.14297729064253
sg17
I00
s(dp49
S'y'
I654
sS'x'
F755.14297729064253
sg17
I00
stp50
s(dp51
g13
((dp52
g15
S'curve'
p53
sS'x'
F145.14297729064253
sg17
I01
sS'y'
I351
s(dp54
S'y'
I502
sS'x'
F145.14297729064253
sg17
I00
s(dp55
S'y'
I640
sS'x'
F233.14297729064253
sg17
I00
s(dp56
g15
S'curve'
p57
sS'x'
F437.14297729064253
sg17
I00
sS'y'
I759
s(dp58
S'y'
I812
sS'x'
F324.14297729064253
sg17
I00
s(dp59
S'y'
I925
sS'x'
F166.14297729064253
sg17
I00
s(dp60
g15
S'curve'
p61
sS'x'
F166.14297729064253
sg17
I01
sS'y'
I1101
s(dp62
S'y'
I1379
sS'x'
F166.14297729064253
sg17
I00
s(dp63
S'y'
I1489
sS'x'
F395.14297729064253
sg17
I00
s(dp64
g15
S'curve'
p65
sS'x'
F633.14297729064253
sg17
I01
sS'y'
I1489
s(dp66
S'y'
I1489
sS'x'
F878.14297729064253
sg17
I00
s(dp67
S'y'
I1375
sS'x'
F1088.1429772906426
sg17
I00
s(dp68
g15
S'curve'
p69
sS'x'
F1088.1429772906426
sg17
I01
sS'y'
I1099
s(dp70
S'y'
I903
sS'x'
F1088.1429772906426
sg17
I00
s(dp71
S'y'
I783
sS'x'
F896.14297729064253
sg17
I00
s(dp72
g15
S'curve'
p73
sS'x'
F807.14297729064253
sg17
I00
sS'y'
I751
s(dp74
S'y'
I628
sS'x'
F1062.1429772906426
sg17
I00
s(dp75
S'y'
I506
sS'x'
F1101.1429772906426
sg17
I00
s(dp76
g15
S'curve'
p77
sS'x'
F1101.1429772906426
sg17
I01
sS'y'
I365
s(dp78
S'y'
I160
sS'x'
F1101.1429772906426
sg17
I00
s(dp79
S'y'
I-25
sS'x'
F924.14297729064253
sg17
I00
s(dp80
g15
S'curve'
p81
sS'x'
F608.14297729064253
sg17
I01
sS'y'
I-25
s(dp82
S'y'
I-25
sS'x'
F320.14297729064253
sg17
I00
s(dp83
S'y'
I154
sS'x'
F145.14297729064253
sg17
I00
stp84
stp85
sS'components'
p86
(tsS'anchors'
p87
(tsss."
LayerCount: 2
Fore
SplineSet
541 680 m 1
 395 586 373 477 384 361 c 0
 395 247 477 155 623 154 c 0
 755 153 877 236 877 368 c 0
 877 586 756 618 541 680 c 1
145 351 m 0
 142 503 185 625 389 744 c 1
 276 797 154 925 154 1101 c 0
 154 1379 395 1489 633 1489 c 0
 878 1489 1100 1375 1100 1099 c 0
 1100 903 928 798 839 766 c 1
 1094 643 1101 506 1101 365 c 0
 1101 160 926 -24 608 -24 c 0
 320 -24 149 154 145 351 c 0
676 827 m 1
 768 875 873 942 873 1101 c 0
 873 1228 790 1313 633 1313 c 0
 483 1313 383 1241 383 1104 c 0
 383 914 471 892 676 827 c 1
EndSplineSet
EndChar

StartChar: emdash
Encoding: 495 8212 173
Width: 2048
VWidth: 0
Flags: W
PickledData: "(dp1
S'com.typemytype.robofont.layerData'
p2
(dp3
s."
LayerCount: 2
Fore
SplineSet
135 294 m 1
 135 420 l 1
 1912 420 l 1
 1912 294 l 1
 135 294 l 1
EndSplineSet
EndChar

StartChar: endash
Encoding: 494 8211 174
Width: 1024
VWidth: 0
Flags: W
PickledData: "(dp1
S'com.typemytype.robofont.layerData'
p2
(dp3
s."
LayerCount: 2
Fore
SplineSet
135 294 m 1
 135 420 l 1
 889 420 l 1
 889 294 l 1
 135 294 l 1
EndSplineSet
EndChar

StartChar: equal
Encoding: 29 61 176
Width: 820
VWidth: 0
Flags: W
PickledData: "(dp1
S'com.typemytype.robofont.layerData'
p2
(dp3
s."
LayerCount: 2
Fore
SplineSet
135 518 m 1
 135 665 l 1
 685 665 l 1
 685 518 l 1
 135 518 l 1
135 269 m 1
 135 416 l 1
 685 416 l 1
 685 269 l 1
 135 269 l 1
EndSplineSet
EndChar

StartChar: eth
Encoding: 176 240 177
Width: 1053
VWidth: 0
Flags: W
PickledData: "(dp1
S'com.typemytype.robofont.layerData'
p2
(dp3
S'b'
(dp4
S'name'
p5
S'eth'
p6
sS'lib'
p7
(dp8
sS'unicodes'
p9
(tsS'width'
p10
I1053
sS'contours'
p11
((dp12
S'points'
p13
((dp14
S'segmentType'
p15
S'curve'
p16
sS'x'
I523
sS'smooth'
p17
I01
sS'y'
I798
s(dp18
S'y'
I798
sS'x'
I366
sg17
I00
s(dp19
S'y'
I668
sS'x'
I235
sg17
I00
s(dp20
g15
S'curve'
p21
sS'x'
I235
sg17
I01
sS'y'
I439
s(dp22
S'y'
I216
sS'x'
I235
sg17
I00
s(dp23
S'y'
I84
sS'x'
I355
sg17
I00
s(dp24
g15
S'curve'
p25
sS'x'
I518
sg17
I01
sS'y'
I84
s(dp26
S'y'
I84
sS'x'
I729
sg17
I00
s(dp27
S'y'
I262
sS'x'
I823
sg17
I00
s(dp28
g15
S'curve'
p29
sS'x'
I823
sg17
I01
sS'y'
I511
s(dp30
S'y'
I535
sS'x'
I823
sg17
I00
s(dp31
S'y'
I624
sS'x'
I822
sg17
I00
s(dp32
g15
S'curve'
p33
sS'x'
I816
sg17
I00
sS'y'
I650
s(dp34
S'y'
I751
sS'x'
I724
sg17
I00
s(dp35
S'y'
I798
sS'x'
I619
sg17
I00
stp36
s(dp37
g13
((dp38
g15
S'line'
p39
sS'x'
I368
sg17
I00
sS'y'
I1101
s(dp40
g15
S'line'
p41
sS'x'
I559
sg17
I00
sS'y'
I1225
s(dp42
S'y'
I1296
sS'x'
I465
sg17
I00
s(dp43
S'y'
I1339
sS'x'
I348
sg17
I00
s(dp44
g15
S'curve'
p45
sS'x'
I169
sg17
I00
sS'y'
I1339
s(dp46
g15
S'line'
p47
sS'x'
I169
sg17
I00
sS'y'
I1432
s(dp48
S'y'
I1432
sS'x'
I390
sg17
I00
s(dp49
S'y'
I1372
sS'x'
I536
sg17
I00
s(dp50
g15
S'curve'
p51
sS'x'
I648
sg17
I00
sS'y'
I1283
s(dp52
g15
S'line'
p53
sS'x'
I854
sg17
I00
sS'y'
I1418
s(dp54
g15
S'line'
p55
sS'x'
I907
sg17
I00
sS'y'
I1343
s(dp56
g15
S'line'
p57
sS'x'
I715
sg17
I00
sS'y'
I1218
s(dp58
S'y'
I1083
sS'x'
I845
sg17
I00
s(dp59
S'y'
I806
sS'x'
I959
sg17
I00
s(dp60
g15
S'curve'
p61
sS'x'
I959
sg17
I01
sS'y'
I529
s(dp62
S'y'
I213
sS'x'
I959
sg17
I00
s(dp63
S'y'
I-25
sS'x'
I835
sg17
I00
s(dp64
g15
S'curve'
p65
sS'x'
I518
sg17
I01
sS'y'
I-25
s(dp66
S'y'
I-25
sS'x'
I231
sg17
I00
s(dp67
S'y'
I208
sS'x'
I94
sg17
I00
s(dp68
g15
S'curve'
p69
sS'x'
I94
sg17
I01
sS'y'
I454
s(dp70
S'y'
I746
sS'x'
I94
sg17
I00
s(dp71
S'y'
I908
sS'x'
I294
sg17
I00
s(dp72
g15
S'curve'
p73
sS'x'
I503
sg17
I01
sS'y'
I908
s(dp74
S'y'
I908
sS'x'
I611
sg17
I00
s(dp75
S'y'
I865
sS'x'
I722
sg17
I00
s(dp76
g15
S'curve'
p77
sS'x'
I810
sg17
I00
sS'y'
I774
s(dp78
S'y'
I920
sS'x'
I791
sg17
I00
s(dp79
S'y'
I1085
sS'x'
I695
sg17
I00
s(dp80
g15
S'curve'
p81
sS'x'
I618
sg17
I00
sS'y'
I1155
s(dp82
g15
S'line'
p83
sS'x'
I421
sg17
I00
sS'y'
I1026
stp84
stp85
sS'components'
p86
(tsS'anchors'
p87
(tsss."
LayerCount: 2
Fore
SplineSet
860 1424 m 1
 938 1314 l 1
 452 997 l 1
 374 1107 l 1
 860 1424 l 1
169 1293 m 1
 169 1432 l 1
 799 1432 991 967 991 529 c 0
 991 213 847 -27 518 -24 c 0
 219 -21 64 208 64 454 c 0
 64 746 282 908 503 908 c 0
 611 908 711 864 776 774 c 1
 746 1008 566 1293 169 1293 c 1
523 744 m 0
 381 744 276 624 276 444 c 0
 276 253 385 146 518 138 c 0
 710 127 789 308 789 511 c 0
 789 535 788 570 782 596 c 1
 690 697 619 744 523 744 c 0
EndSplineSet
EndChar

StartChar: exclam
Encoding: 1 33 178
Width: 428
VWidth: 0
Flags: W
PickledData: "(dp1
S'com.typemytype.robofont.layerData'
p2
(dp3
s."
LayerCount: 2
Fore
SplineSet
181 349 m 1
 87 1464 l 1
 349 1464 l 1
 267 349 l 1
 181 349 l 1
117 217 m 1
 334 217 l 1
 334 0 l 1
 117 0 l 1
 117 217 l 1
EndSplineSet
EndChar

StartChar: f
Encoding: 70 102 180
Width: 640
VWidth: 0
Flags: W
PickledData: "(dp1
S'com.typemytype.robofont.layerData'
p2
(dp3
S'b'
(dp4
S'name'
p5
S'f'
sS'lib'
p6
(dp7
sS'unicodes'
p8
(tsS'width'
p9
I640
sS'contours'
p10
((dp11
S'points'
p12
((dp13
S'segmentType'
p14
S'curve'
p15
sS'x'
I464
sS'smooth'
p16
I01
sS'y'
I1368
s(dp17
S'y'
I1368
sS'x'
I364
sg16
I00
s(dp18
S'y'
I1278
sS'x'
I363
sg16
I00
s(dp19
g14
S'curve'
p20
sS'x'
I363
sg16
I01
sS'y'
I1139
s(dp21
g14
S'line'
p22
sS'x'
I363
sg16
I00
sS'y'
I1023
s(dp23
g14
S'line'
p24
sS'x'
I563
sg16
I00
sS'y'
I1023
s(dp25
g14
S'line'
p26
sS'x'
I563
sg16
I00
sS'y'
I917
s(dp27
g14
S'line'
p28
sS'x'
I363
sg16
I00
sS'y'
I917
s(dp29
g14
S'line'
p30
sS'x'
I363
sg16
I00
sS'y'
I0
s(dp31
g14
S'line'
p32
sS'x'
I221
sg16
I00
sS'y'
I0
s(dp33
g14
S'line'
p34
sS'x'
I221
sg16
I00
sS'y'
I917
s(dp35
g14
S'line'
p36
sS'x'
I48
sg16
I00
sS'y'
I917
s(dp37
g14
S'line'
p38
sS'x'
I48
sg16
I00
sS'y'
I1023
s(dp39
g14
S'line'
p40
sS'x'
I221
sg16
I00
sS'y'
I1023
s(dp41
g14
S'line'
p42
sS'x'
I221
sg16
I01
sS'y'
I1142
s(dp43
S'y'
I1364
sS'x'
I221
sg16
I00
s(dp44
S'y'
I1474
sS'x'
I280
sg16
I00
s(dp45
g14
S'curve'
p46
sS'x'
I455
sg16
I01
sS'y'
I1474
s(dp47
S'y'
I1474
sS'x'
I513
sg16
I00
s(dp48
S'y'
I1457
sS'x'
I567
sg16
I00
s(dp49
g14
S'curve'
p50
sS'x'
I611
sg16
I00
sS'y'
I1433
s(dp51
g14
S'line'
p52
sS'x'
I577
sg16
I00
sS'y'
I1341
s(dp53
S'y'
I1356
sS'x'
I537
sg16
I00
s(dp54
S'y'
I1368
sS'x'
I496
sg16
I00
stp55
stp56
sS'components'
p57
(tsS'anchors'
p58
(tsss."
LayerCount: 2
Fore
SplineSet
393 0 m 1
 393 868 l 1
 609 868 l 1
 609 1023 l 1
 393 1023 l 1
 392 1143 l 2
 391 1282 405 1312 491 1312 c 0
 523 1312 564 1300 597 1283 c 1
 650 1424 l 1
 606 1448 524 1474 466 1474 c 0
 286 1474 181 1417 181 1135 c 2
 181 1023 l 1
 6 1023 l 1
 6 868 l 1
 181 868 l 1
 181 0 l 1
 393 0 l 1
EndSplineSet
EndChar

StartChar: five
Encoding: 21 53 181
Width: 1246
VWidth: 0
Flags: W
PickledData: "(dp1
S'com.typemytype.robofont.layerData'
p2
(dp3
S'b'
(dp4
S'name'
p5
S'five'
p6
sS'lib'
p7
(dp8
sS'unicodes'
p9
(tsS'width'
p10
I1246
sS'contours'
p11
((dp12
S'points'
p13
((dp14
S'segmentType'
p15
S'curve'
p16
sS'x'
I608
sS'smooth'
p17
I01
sS'y'
I928
s(dp18
S'y'
I928
sS'x'
I930
sg17
I00
s(dp19
S'y'
I703
sS'x'
I1072
sg17
I00
s(dp20
g15
S'curve'
p21
sS'x'
I1072
sg17
I01
sS'y'
I461
s(dp22
S'y'
I181
sS'x'
I1072
sg17
I00
s(dp23
S'y'
I-25
sS'x'
I892
sg17
I00
s(dp24
g15
S'curve'
p25
sS'x'
I583
sg17
I01
sS'y'
I-25
s(dp26
S'y'
I-25
sS'x'
I366
sg17
I00
s(dp27
S'y'
I76
sS'x'
I190
sg17
I00
s(dp28
g15
S'curve'
p29
sS'x'
I99
sg17
I00
sS'y'
I309
s(dp30
g15
S'line'
p31
sS'x'
I223
sg17
I00
sS'y'
I359
s(dp32
S'y'
I194
sS'x'
I299
sg17
I00
s(dp33
S'y'
I93
sS'x'
I427
sg17
I00
s(dp34
g15
S'curve'
p35
sS'x'
I574
sg17
I01
sS'y'
I93
s(dp36
S'y'
I93
sS'x'
I802
sg17
I00
s(dp37
S'y'
I264
sS'x'
I923
sg17
I00
s(dp38
g15
S'curve'
p39
sS'x'
I923
sg17
I01
sS'y'
I453
s(dp40
S'y'
I632
sS'x'
I923
sg17
I00
s(dp41
S'y'
I808
sS'x'
I817
sg17
I00
s(dp42
g15
S'curve'
p43
sS'x'
I602
sg17
I01
sS'y'
I808
s(dp44
S'y'
I808
sS'x'
I501
sg17
I00
s(dp45
S'y'
I768
sS'x'
I386
sg17
I00
s(dp46
g15
S'curve'
p47
sS'x'
I276
sg17
I00
sS'y'
I685
s(dp48
g15
S'line'
p49
sS'x'
I185
sg17
I00
sS'y'
I744
s(dp50
g15
S'line'
p51
sS'x'
I281
sg17
I00
sS'y'
I1464
s(dp52
g15
S'line'
p53
sS'x'
I982
sg17
I00
sS'y'
I1464
s(dp54
g15
S'line'
p55
sS'x'
I982
sg17
I00
sS'y'
I1337
s(dp56
g15
S'line'
p57
sS'x'
I412
sg17
I00
sS'y'
I1337
s(dp58
g15
S'line'
p59
sS'x'
I343
sg17
I00
sS'y'
I856
s(dp60
g15
S'line'
p61
sS'x'
I348
sg17
I00
sS'y'
I858
s(dp62
S'y'
I908
sS'x'
I438
sg17
I00
s(dp63
S'y'
I928
sS'x'
I528
sg17
I00
stp64
stp65
sS'components'
p66
(tsS'anchors'
p67
(tsss."
LayerCount: 2
Fore
SplineSet
652 928 m 0
 983 928 1135 719 1135 461 c 0
 1135 181 941 -24 632 -24 c 0
 395 -24 210 66 116 309 c 1
 300 382 l 1
 373 229 491 149 623 149 c 0
 782 149 914 273 914 453 c 0
 914 621 813 751 642 751 c 0
 541 751 446 725 347 658 c 1
 212 744 l 1
 308 1464 l 1
 1019 1464 l 1
 1019 1275 l 1
 502 1275 l 1
 438 856 l 1
 375 858 l 1
 465 908 572 928 652 928 c 0
EndSplineSet
EndChar

StartChar: four
Encoding: 20 52 182
Width: 1246
VWidth: 0
Flags: W
PickledData: "(dp1
S'com.typemytype.robofont.layerData'
p2
(dp3
s."
LayerCount: 2
Fore
SplineSet
106 507 m 1
 628 1464 l 1
 930 1464 l 1
 930 510 l 1
 1165 510 l 1
 1165 347 l 1
 931 347 l 1
 931 0 l 1
 723 0 l 1
 723 347 l 1
 106 347 l 1
 106 507 l 1
723 1265 m 1
 345 510 l 1
 723 510 l 1
 723 1265 l 1
EndSplineSet
EndChar

StartChar: g
Encoding: 71 103 183
Width: 1094
VWidth: 0
Flags: W
PickledData: "(dp1
S'com.typemytype.robofont.layerData'
p2
(dp3
S'b'
(dp4
S'name'
p5
S'g'
sS'lib'
p6
(dp7
sS'unicodes'
p8
(tsS'width'
p9
I1094
sS'contours'
p10
(tsS'components'
p11
(tsS'anchors'
p12
(tsss."
LayerCount: 2
Fore
SplineSet
518 -476 m 4
 802 -476 997 -331 997 24 c 6
 997 1023 l 5
 816 1023 l 5
 786 811 l 5
 785 28 l 6
 785 -187 727 -314 521 -317 c 4
 364 -319 278 -257 216 -178 c 5
 101 -296 l 5
 179 -393 332 -476 518 -476 c 4
497 -24 m 0
 721 -24 860 117 881 351 c 1
 881 646 l 1
 858 843 736 1047 496 1047 c 0
 234 1047 42 864 42 521 c 0
 42 179 214 -24 497 -24 c 0
510 126 m 0
 339 126 258 257 257 520 c 0
 256 758 349 897 509 897 c 0
 639 897 786 834 786 522 c 0
 786 275 742 126 510 126 c 0
EndSplineSet
EndChar

StartChar: germandbls
Encoding: 159 223 188
Width: 1199
VWidth: 0
Flags: W
PickledData: "(dp1
S'com.typemytype.robofont.layerData'
p2
(dp3
s."
LayerCount: 2
Fore
SplineSet
324 0 m 1
 324 1135 l 2
 324 1258 420 1339 565 1337 c 0
 708 1335 756 1282 756 1209 c 0
 756 996 431 1041 431 816 c 0
 431 569 907 551 903 335 c 0
 900 199 736 176 441 176 c 1
 441 0 l 1
 481 0 l 2
 1043 0 1122 117 1125 336 c 0
 1129 654 649 725 649 823 c 0
 649 880 964 926 960 1203 c 0
 958 1370 833 1487 568 1492 c 0
 330 1496 103 1373 103 1151 c 2
 103 0 l 1
 324 0 l 1
EndSplineSet
EndChar

StartChar: grave
Encoding: 64 96 189
Width: 496
VWidth: 0
Flags: W
PickledData: "(dp1
S'com.typemytype.robofont.layerData'
p2
(dp3
s."
LayerCount: 2
Fore
SplineSet
-5 1492 m 1
 285 1492 l 1
 487 1172 l 1
 346 1172 l 1
 -5 1492 l 1
EndSplineSet
EndChar

StartChar: greater
Encoding: 30 62 190
Width: 1051
VWidth: 0
Flags: W
PickledData: "(dp1
S'com.typemytype.robofont.layerData'
p2
(dp3
S'b'
(dp4
S'name'
p5
S'greater'
p6
sS'lib'
p7
(dp8
sS'unicodes'
p9
(tsS'width'
p10
I1051
sS'contours'
p11
(tsS'components'
p12
(tsS'anchors'
p13
(tsss."
LayerCount: 2
Fore
SplineSet
49 775 m 1
 49 983 l 1
 998 617 l 1
 998 423 l 1
 49 72 l 1
 49 301 l 1
 759 531 l 1
 49 775 l 1
EndSplineSet
EndChar

StartChar: guillemotleft
Encoding: 107 171 191
Width: 946
VWidth: 0
Flags: W
PickledData: "(dp1
S'com.typemytype.robofont.layerData'
p2
(dp3
S'b'
(dp4
S'name'
p5
S'guillemotright'
p6
sS'lib'
p7
(dp8
sS'unicodes'
p9
(tsS'width'
p10
I946
sS'contours'
p11
(tsS'components'
p12
(tsS'anchors'
p13
(tsss."
LayerCount: 2
Fore
SplineSet
938 1069 m 1
 938 857 l 1
 631 650 l 1
 938 441 l 1
 938 230 l 1
 483 501 l 1
 483 798 l 1
 938 1069 l 1
-7 798 m 1
 448 1069 l 1
 448 857 l 1
 141 650 l 1
 448 441 l 1
 448 230 l 1
 -7 501 l 1
 -7 798 l 1
EndSplineSet
EndChar

StartChar: guillemotright
Encoding: 123 187 192
Width: 946
VWidth: 0
Flags: W
PickledData: "(dp1
S'com.typemytype.robofont.layerData'
p2
(dp3
S'b'
(dp4
S'name'
p5
S'guillemotright'
p6
sS'lib'
p7
(dp8
sS'unicodes'
p9
(tsS'width'
p10
I946
sS'contours'
p11
(tsS'components'
p12
(tsS'anchors'
p13
(tsss."
LayerCount: 2
Fore
SplineSet
-7 1069 m 1
 448 798 l 1
 448 501 l 1
 -7 230 l 1
 -7 441 l 1
 300 650 l 1
 -7 857 l 1
 -7 1069 l 1
938 798 m 1
 938 501 l 1
 483 230 l 1
 483 441 l 1
 790 650 l 1
 483 857 l 1
 483 1069 l 1
 938 798 l 1
EndSplineSet
EndChar

StartChar: guilsinglleft
Encoding: 506 8249 193
Width: 528
VWidth: 0
Flags: W
PickledData: "(dp1
S'com.typemytype.robofont.layerData'
p2
(dp3
s."
LayerCount: 2
Fore
SplineSet
43 798 m 1
 498 1069 l 1
 498 857 l 1
 191 650 l 1
 498 441 l 1
 498 230 l 1
 43 501 l 1
 43 798 l 1
EndSplineSet
EndChar

StartChar: guilsinglright
Encoding: 507 8250 194
Width: 528
VWidth: 0
Flags: W
PickledData: "(dp1
S'com.typemytype.robofont.layerData'
p2
(dp3
s."
LayerCount: 2
Fore
SplineSet
493 798 m 1
 493 501 l 1
 38 230 l 1
 38 441 l 1
 345 650 l 1
 38 857 l 1
 38 1069 l 1
 493 798 l 1
EndSplineSet
EndChar

StartChar: hbar
Encoding: 229 295 196
Width: 1117
VWidth: 0
Flags: W
PickledData: "(dp1
S'com.typemytype.robofont.layerData'
p2
(dp3
s."
LayerCount: 2
Fore
SplineSet
-12 1176 m 1
 538 1176 l 1
 538 1304 l 1
 -12 1304 l 1
 -12 1176 l 1
EndSplineSet
Refer: 195 104 N 1 0 0 1 0 0 2
EndChar

StartChar: hungarumlaut
Encoding: 366 733 198
Width: 745
VWidth: 0
Flags: W
PickledData: "(dp1
S'com.typemytype.robofont.layerData'
p2
(dp3
s."
LayerCount: 2
Fore
SplineSet
112 1492 m 1
 391 1492 l 1
 145 1152 l 1
 47 1152 l 1
 112 1492 l 1
467 1492 m 1
 755 1492 l 1
 483 1152 l 1
 375 1152 l 1
 467 1492 l 1
EndSplineSet
EndChar

StartChar: hyphen
Encoding: 13 45 199
Width: 724
VWidth: 0
Flags: W
PickledData: "(dp1
S'com.typemytype.robofont.layerData'
p2
(dp3
s."
LayerCount: 2
Fore
SplineSet
100 360 m 1
 100 527 l 1
 600 527 l 1
 600 360 l 1
 100 360 l 1
EndSplineSet
EndChar

StartChar: i
Encoding: 73 105 200
Width: 456
VWidth: 0
Flags: W
PickledData: "(dp1
S'com.typemytype.robofont.layerData'
p2
(dp3
S'b'
(dp4
S'name'
p5
S'i'
sS'lib'
p6
(dp7
sS'unicodes'
p8
(tsS'width'
p9
I456
sS'contours'
p10
(tsS'components'
p11
(tsS'anchors'
p12
(tsss."
LayerCount: 2
Fore
SplineSet
135 1188 m 1
 135 1421 l 1
 346 1421 l 1
 346 1188 l 1
 135 1188 l 1
137 0 m 1
 137 1023 l 1
 349 1023 l 1
 349 0 l 1
 137 0 l 1
EndSplineSet
EndChar

StartChar: j
Encoding: 74 106 210
Width: 513
VWidth: 0
Flags: W
PickledData: "(dp1
S'com.typemytype.robofont.layerData'
p2
(dp3
S'b'
(dp4
S'name'
p5
S'j'
sS'lib'
p6
(dp7
sS'unicodes'
p8
(tsS'width'
p9
I513
sS'contours'
p10
((dp11
S'points'
p12
((dp13
S'segmentType'
p14
S'curve'
p15
sS'x'
I195
sS'smooth'
p16
I01
sS'y'
I-91
s(dp17
g14
S'line'
p18
sS'x'
I195
sg16
I00
sS'y'
I1023
s(dp19
g14
S'line'
p20
sS'x'
I407
sg16
I00
sS'y'
I1023
s(dp21
g14
S'line'
p22
sS'x'
I407
sg16
I01
sS'y'
I-12
s(dp23
S'y'
I-217
sS'x'
I407
sg16
I00
s(dp24
S'y'
I-325
sS'x'
I310
sg16
I00
s(dp25
g14
S'curve'
p26
sS'x'
I118
sg16
I01
sS'y'
I-325
s(dp27
S'y'
I-325
sS'x'
I67
sg16
I00
s(dp28
S'y'
I-312
sS'x'
I4
sg16
I00
s(dp29
g14
S'curve'
p30
sS'x'
I-44
sg16
I00
sS'y'
I-284
s(dp31
g14
S'line'
p32
sS'x'
I-20
sg16
I00
sS'y'
I-177
s(dp33
S'y'
I-191
sS'x'
I18
sg16
I00
s(dp34
S'y'
I-208
sS'x'
I66
sg16
I00
s(dp35
g14
S'curve'
p36
sS'x'
I99
sg16
I01
sS'y'
I-208
s(dp37
S'y'
I-208
sS'x'
I158
sg16
I00
s(dp38
S'y'
I-182
sS'x'
I195
sg16
I00
stp39
s(dp40
g12
((dp41
g14
S'line'
p42
sS'x'
I197
sg16
I00
sS'y'
I1188
s(dp43
g14
S'line'
p44
sS'x'
I197
sg16
I00
sS'y'
I1421
s(dp45
g14
S'line'
p46
sS'x'
I408
sg16
I00
sS'y'
I1421
s(dp47
g14
S'line'
p48
sS'x'
I408
sg16
I00
sS'y'
I1188
stp49
stp50
sS'components'
p51
(tsS'anchors'
p52
(tsss."
LayerCount: 2
Fore
SplineSet
134 -380 m 0
 323 -380 407 -304 407 -42 c 2
 407 1023 l 1
 195 1023 l 1
 195 -91 l 2
 195 -177 155 -207 100 -207 c 0
 64 -207 22 -195 -20 -176 c 1
 -61 -334 l 1
 -13 -362 63 -380 134 -380 c 0
197 1188 m 1
 408 1188 l 1
 408 1421 l 1
 197 1421 l 1
 197 1188 l 1
EndSplineSet
EndChar

StartChar: k
Encoding: 75 107 212
Width: 1052
VWidth: 0
Flags: W
PickledData: "(dp1
S'com.typemytype.robofont.layerData'
p2
(dp3
S'b'
(dp4
S'name'
p5
S'k'
sS'lib'
p6
(dp7
sS'unicodes'
p8
(tsS'width'
p9
I1052
sS'contours'
p10
((dp11
S'points'
p12
((dp13
S'segmentType'
p14
S'line'
p15
sS'x'
I809
sS'smooth'
p16
I00
sS'y'
I1023
s(dp17
g14
S'line'
p18
sS'x'
I971
sg16
I00
sS'y'
I1023
s(dp19
g14
S'line'
p20
sS'x'
I590
sg16
I00
sS'y'
I651
s(dp21
g14
S'line'
p22
sS'x'
I1030
sg16
I00
sS'y'
I0
s(dp23
g14
S'line'
p24
sS'x'
I870
sg16
I00
sS'y'
I0
s(dp25
g14
S'line'
p26
sS'x'
I497
sg16
I00
sS'y'
I565
s(dp27
g14
S'line'
p28
sS'x'
I284
sg16
I00
sS'y'
I369
s(dp29
g14
S'line'
p30
sS'x'
I284
sg16
I00
sS'y'
I0
s(dp31
g14
S'line'
p32
sS'x'
I142
sg16
I00
sS'y'
I0
s(dp33
g14
S'line'
p34
sS'x'
I142
sg16
I00
sS'y'
I1474
s(dp35
g14
S'line'
p36
sS'x'
I283
sg16
I00
sS'y'
I1474
s(dp37
g14
S'line'
p38
sS'x'
I283
sg16
I00
sS'y'
I511
stp39
stp40
sS'components'
p41
(tsS'anchors'
p42
(tsss."
LayerCount: 2
Fore
SplineSet
233 245 m 1
 1042 1023 l 1
 803 1023 l 1
 233 468 l 1
 233 245 l 1
823 0 m 1
 1062 0 l 1
 596 698 l 1
 455 569 l 1
 823 0 l 1
EndSplineSet
Refer: 217 -1 N 1 0 0 1 15 0 2
EndChar

StartChar: kgreenlandic
Encoding: 246 312 214
Width: 1010
VWidth: 0
Flags: W
PickledData: "(dp1
S'com.typemytype.robofont.layerData'
p2
(dp3
S'b'
(dp4
S'name'
p5
S'kgreenlandic'
p6
sS'lib'
p7
(dp8
sS'unicodes'
p9
(tsS'width'
p10
I1010
sS'contours'
p11
((dp12
S'points'
p13
((dp14
S'segmentType'
p15
S'line'
p16
sS'x'
I797
sS'smooth'
p17
I00
sS'y'
I1023
s(dp18
g15
S'line'
p19
sS'x'
I959
sg17
I00
sS'y'
I1023
s(dp20
g15
S'line'
p21
sS'x'
I599
sg17
I00
sS'y'
I621
s(dp22
g15
S'line'
p23
sS'x'
I1018
sg17
I00
sS'y'
I0
s(dp24
g15
S'line'
p25
sS'x'
I858
sg17
I00
sS'y'
I0
s(dp26
g15
S'line'
p27
sS'x'
I504
sg17
I00
sS'y'
I544
s(dp28
g15
S'line'
p29
sS'x'
I271
sg17
I00
sS'y'
I299
s(dp30
S'y'
I299
sS'x'
I271
sg17
I00
s(dp31
S'y'
I446
sS'x'
I271
sg17
I00
s(dp32
g15
S'curve'
p33
sS'x'
I271
sg17
I00
sS'y'
I446
stp34
stp35
sS'components'
p36
(tsS'anchors'
p37
(tsss."
LayerCount: 2
Fore
SplineSet
590 653 m 1
 454 530 l 1
 825 0 l 1
 1066 0 l 1
 590 653 l 1
767 1023 m 1
 207 382 l 1
 207 172 l 1
 507 482 l 1
 622 567 l 1
 1011 1023 l 1
 767 1023 l 1
EndSplineSet
Refer: 223 -1 N 1 0 0 1 0 0 2
EndChar

StartChar: l
Encoding: 76 108 215
Width: 473
VWidth: 0
Flags: W
PickledData: "(dp1
S'com.typemytype.robofont.layerData'
p2
(dp3
s."
LayerCount: 2
Fore
SplineSet
127 0 m 1
 127 1474 l 1
 339 1474 l 1
 339 0 l 1
 127 0 l 1
EndSplineSet
EndChar

StartChar: lc_ascender_stem
Encoding: 523 -1 217
Width: 1086
VWidth: 0
Flags: W
PickledData: "(dp1
S'com.typemytype.robofont.layerData'
p2
(dp3
S'b'
(dp4
S'name'
p5
S'n'
sS'lib'
p6
(dp7
sS'unicodes'
p8
(tsS'width'
p9
I1086
sS'contours'
p10
((dp11
S'points'
p12
((dp13
S'segmentType'
p14
S'line'
p15
sS'x'
I127
sS'smooth'
p16
I00
sS'y'
I0
s(dp17
g14
S'line'
p18
sS'x'
I127
sg16
I00
sS'y'
I1023
s(dp19
g14
S'line'
p20
sS'x'
I285
sg16
I00
sS'y'
I1023
s(dp21
g14
S'line'
p22
sS'x'
I285
sg16
I00
sS'y'
I830
s(dp23
S'y'
I983
sS'x'
I337
sg16
I00
s(dp24
S'y'
I1044
sS'x'
I491
sg16
I00
s(dp25
g14
S'curve'
p26
sS'x'
I623
sg16
I01
sS'y'
I1044
s(dp27
S'y'
I1044
sS'x'
I946
sg16
I00
s(dp28
S'y'
I790
sS'x'
I965
sg16
I00
s(dp29
g14
S'curve'
p30
sS'x'
I965
sg16
I01
sS'y'
I584
s(dp31
g14
S'line'
p32
sS'x'
I965
sg16
I00
sS'y'
I0
s(dp33
g14
S'line'
p34
sS'x'
I803
sg16
I00
sS'y'
I0
s(dp35
g14
S'line'
p36
sS'x'
I803
sg16
I01
sS'y'
I603
s(dp37
S'y'
I812
sS'x'
I803
sg16
I00
s(dp38
S'y'
I900
sS'x'
I782
sg16
I00
s(dp39
g14
S'curve'
p40
sS'x'
I605
sg16
I01
sS'y'
I900
s(dp41
S'y'
I900
sS'x'
I340
sg16
I00
s(dp42
S'y'
I745
sS'x'
I289
sg16
I00
s(dp43
g14
S'curve'
p44
sS'x'
I289
sg16
I01
sS'y'
I499
s(dp45
g14
S'line'
p46
sS'x'
I289
sg16
I00
sS'y'
I0
stp47
stp48
sS'components'
p49
(tsS'anchors'
p50
(tsssS'com.typemytype.robofont.mark'
p51
(F0
F0
F1
F1
tp52
s."
LayerCount: 2
Fore
SplineSet
98 0 m 1
 311 0 l 1
 311 1474 l 1
 98 1474 l 1
 98 0 l 1
EndSplineSet
EndChar

StartChar: lc_ascender_stem_2
Encoding: 65539 -1 218
Width: 1078
VWidth: 0
Flags: W
PickledData: "(dp1
S'com.typemytype.robofont.layerData'
p2
(dp3
S'b'
(dp4
S'name'
p5
S'lc_ascender_stem_2'
p6
sS'lib'
p7
(dp8
sS'unicodes'
p9
(tsS'width'
p10
I1078
sS'contours'
p11
((dp12
S'points'
p13
((dp14
S'segmentType'
p15
S'line'
p16
sS'x'
I127
sS'smooth'
p17
I00
sS'y'
I0
s(dp18
g15
S'line'
p19
sS'x'
I240
sg17
I00
sS'y'
I0
s(dp20
g15
S'line'
p21
sS'x'
I259
sg17
I00
sS'y'
I161
s(dp22
S'y'
I38
sS'x'
I310
sg17
I00
s(dp23
S'y'
I-25
sS'x'
I438
sg17
I00
s(dp24
g15
S'curve'
p25
sS'x'
I582
sg17
I01
sS'y'
I-25
s(dp26
S'y'
I-25
sS'x'
I845
sg17
I00
s(dp27
S'y'
I190
sS'x'
I986
sg17
I00
s(dp28
g15
S'curve'
p29
sS'x'
I986
sg17
I01
sS'y'
I502
s(dp30
S'y'
I840
sS'x'
I986
sg17
I00
s(dp31
S'y'
I1044
sS'x'
I839
sg17
I00
s(dp32
g15
S'curve'
p33
sS'x'
I591
sg17
I01
sS'y'
I1044
s(dp34
S'y'
I1044
sS'x'
I451
sg17
I00
s(dp35
S'y'
I985
sS'x'
I329
sg17
I00
s(dp36
g15
S'curve'
p37
sS'x'
I270
sg17
I00
sS'y'
I865
s(dp38
g15
S'line'
p39
sS'x'
I270
sg17
I00
sS'y'
I1474
s(dp40
g15
S'line'
p41
sS'x'
I127
sg17
I00
sS'y'
I1474
stp42
s(dp43
g13
((dp44
g15
S'curve'
p45
sS'x'
I565
sg17
I01
sS'y'
I940
s(dp46
S'y'
I940
sS'x'
I735
sg17
I00
s(dp47
S'y'
I757
sS'x'
I842
sg17
I00
s(dp48
g15
S'curve'
p49
sS'x'
I842
sg17
I01
sS'y'
I520
s(dp50
S'y'
I256
sS'x'
I842
sg17
I00
s(dp51
S'y'
I80
sS'x'
I739
sg17
I00
s(dp52
g15
S'curve'
p53
sS'x'
I567
sg17
I01
sS'y'
I80
s(dp54
S'y'
I80
sS'x'
I335
sg17
I00
s(dp55
S'y'
I275
sS'x'
I265
sg17
I00
s(dp56
g15
S'curve'
p57
sS'x'
I265
sg17
I01
sS'y'
I522
s(dp58
S'y'
I848
sS'x'
I265
sg17
I00
s(dp59
S'y'
I940
sS'x'
I435
sg17
I00
stp60
stp61
sS'components'
p62
(tsS'anchors'
p63
(tsssS'com.typemytype.robofont.mark'
p64
(F0
F0
F1
F1
tp65
s."
LayerCount: 2
Fore
SplineSet
87 0 m 1
 250 0 l 1
 299 735 l 1
 299 1474 l 1
 87 1474 l 1
 87 0 l 1
EndSplineSet
EndChar

StartChar: lc_ascender_stem_3
Encoding: 65540 -1 219
Width: 1078
VWidth: 0
Flags: W
PickledData: "(dp1
S'com.typemytype.robofont.layerData'
p2
(dp3
S'b'
(dp4
S'name'
p5
S'lc_ascender_stem_2'
p6
sS'lib'
p7
(dp8
sS'unicodes'
p9
(tsS'width'
p10
I1078
sS'contours'
p11
((dp12
S'points'
p13
((dp14
S'segmentType'
p15
S'line'
p16
sS'x'
I127
sS'smooth'
p17
I00
sS'y'
I0
s(dp18
g15
S'line'
p19
sS'x'
I240
sg17
I00
sS'y'
I0
s(dp20
g15
S'line'
p21
sS'x'
I259
sg17
I00
sS'y'
I161
s(dp22
S'y'
I38
sS'x'
I310
sg17
I00
s(dp23
S'y'
I-25
sS'x'
I438
sg17
I00
s(dp24
g15
S'curve'
p25
sS'x'
I582
sg17
I01
sS'y'
I-25
s(dp26
S'y'
I-25
sS'x'
I845
sg17
I00
s(dp27
S'y'
I190
sS'x'
I986
sg17
I00
s(dp28
g15
S'curve'
p29
sS'x'
I986
sg17
I01
sS'y'
I502
s(dp30
S'y'
I840
sS'x'
I986
sg17
I00
s(dp31
S'y'
I1044
sS'x'
I839
sg17
I00
s(dp32
g15
S'curve'
p33
sS'x'
I591
sg17
I01
sS'y'
I1044
s(dp34
S'y'
I1044
sS'x'
I451
sg17
I00
s(dp35
S'y'
I985
sS'x'
I329
sg17
I00
s(dp36
g15
S'curve'
p37
sS'x'
I270
sg17
I00
sS'y'
I865
s(dp38
g15
S'line'
p39
sS'x'
I270
sg17
I00
sS'y'
I1474
s(dp40
g15
S'line'
p41
sS'x'
I127
sg17
I00
sS'y'
I1474
stp42
s(dp43
g13
((dp44
g15
S'curve'
p45
sS'x'
I565
sg17
I01
sS'y'
I940
s(dp46
S'y'
I940
sS'x'
I735
sg17
I00
s(dp47
S'y'
I757
sS'x'
I842
sg17
I00
s(dp48
g15
S'curve'
p49
sS'x'
I842
sg17
I01
sS'y'
I520
s(dp50
S'y'
I256
sS'x'
I842
sg17
I00
s(dp51
S'y'
I80
sS'x'
I739
sg17
I00
s(dp52
g15
S'curve'
p53
sS'x'
I567
sg17
I01
sS'y'
I80
s(dp54
S'y'
I80
sS'x'
I335
sg17
I00
s(dp55
S'y'
I275
sS'x'
I265
sg17
I00
s(dp56
g15
S'curve'
p57
sS'x'
I265
sg17
I01
sS'y'
I522
s(dp58
S'y'
I848
sS'x'
I265
sg17
I00
s(dp59
S'y'
I940
sS'x'
I435
sg17
I00
stp60
stp61
sS'components'
p62
(tsS'anchors'
p63
(tsssS'com.typemytype.robofont.mark'
p64
(F0
F0
F1
F1
tp65
s."
LayerCount: 2
Fore
SplineSet
988 0 m 1
 988 1474 l 1
 776 1474 l 1
 776 735 l 1
 825 0 l 1
 988 0 l 1
EndSplineSet
EndChar

StartChar: lc_curved_stem
Encoding: 65541 -1 220
Width: 1086
VWidth: 0
Flags: W
PickledData: "(dp1
S'com.typemytype.robofont.layerData'
p2
(dp3
S'b'
(dp4
S'name'
p5
S'n'
sS'lib'
p6
(dp7
sS'unicodes'
p8
(tsS'width'
p9
I1086
sS'contours'
p10
((dp11
S'points'
p12
((dp13
S'segmentType'
p14
S'line'
p15
sS'x'
I127
sS'smooth'
p16
I00
sS'y'
I0
s(dp17
g14
S'line'
p18
sS'x'
I127
sg16
I00
sS'y'
I1023
s(dp19
g14
S'line'
p20
sS'x'
I285
sg16
I00
sS'y'
I1023
s(dp21
g14
S'line'
p22
sS'x'
I285
sg16
I00
sS'y'
I830
s(dp23
S'y'
I983
sS'x'
I337
sg16
I00
s(dp24
S'y'
I1044
sS'x'
I491
sg16
I00
s(dp25
g14
S'curve'
p26
sS'x'
I623
sg16
I01
sS'y'
I1044
s(dp27
S'y'
I1044
sS'x'
I946
sg16
I00
s(dp28
S'y'
I790
sS'x'
I965
sg16
I00
s(dp29
g14
S'curve'
p30
sS'x'
I965
sg16
I01
sS'y'
I584
s(dp31
g14
S'line'
p32
sS'x'
I965
sg16
I00
sS'y'
I0
s(dp33
g14
S'line'
p34
sS'x'
I803
sg16
I00
sS'y'
I0
s(dp35
g14
S'line'
p36
sS'x'
I803
sg16
I01
sS'y'
I603
s(dp37
S'y'
I812
sS'x'
I803
sg16
I00
s(dp38
S'y'
I900
sS'x'
I782
sg16
I00
s(dp39
g14
S'curve'
p40
sS'x'
I605
sg16
I01
sS'y'
I900
s(dp41
S'y'
I900
sS'x'
I340
sg16
I00
s(dp42
S'y'
I745
sS'x'
I289
sg16
I00
s(dp43
g14
S'curve'
p44
sS'x'
I289
sg16
I01
sS'y'
I499
s(dp45
g14
S'line'
p46
sS'x'
I289
sg16
I00
sS'y'
I0
stp47
stp48
sS'components'
p49
(tsS'anchors'
p50
(tsssS'com.typemytype.robofont.mark'
p51
(F0
F0
F1
F1
tp52
s."
LayerCount: 2
Fore
SplineSet
798 0 m 1
 1010 0 l 1
 1010 595 l 2
 1010 801 969 1044 646 1044 c 0
 393 1044 274 884 224 624 c 1
 325 491 l 1
 325 695 381 896 600 896 c 0
 748 896 798 801 798 602 c 2
 798 0 l 1
EndSplineSet
EndChar

StartChar: lc_descender_stem
Encoding: 524 -1 221
Width: 1057
VWidth: 0
Flags: W
PickledData: "(dp1
S'com.typemytype.robofont.layerData'
p2
(dp3
S'b'
(dp4
S'name'
p5
S'lc_descender_stem'
p6
sS'lib'
p7
(dp8
sS'unicodes'
p9
(tsS'width'
p10
I1057
sS'contours'
p11
(tsS'components'
p12
(tsS'anchors'
p13
(tsssS'com.typemytype.robofont.mark'
p14
(F0
F0
F1
F1
tp15
s."
LayerCount: 2
Fore
SplineSet
269 -370 m 1
 269 758 l 1
 243 1023 l 1
 57 1023 l 1
 57 -370 l 1
 269 -370 l 1
EndSplineSet
EndChar

StartChar: lc_descender_stem_2
Encoding: 65542 -1 222
Width: 1057
VWidth: 0
Flags: W
PickledData: "(dp1
S'com.typemytype.robofont.layerData'
p2
(dp3
S'b'
(dp4
S'name'
p5
S'lc_descender_stem'
p6
sS'lib'
p7
(dp8
sS'unicodes'
p9
(tsS'width'
p10
I1057
sS'contours'
p11
(tsS'components'
p12
(tsS'anchors'
p13
(tsssS'com.typemytype.robofont.mark'
p14
(F0
F0
F1
F1
tp15
s."
LayerCount: 2
Fore
SplineSet
57 -350 m 1
 269 -350 l 1
 269 1023 l 1
 83 1023 l 1
 57 758 l 1
 57 -350 l 1
EndSplineSet
EndChar

StartChar: lc_main_stem
Encoding: 65543 -1 223
Width: 1086
VWidth: 0
Flags: W
PickledData: "(dp1
S'com.typemytype.robofont.layerData'
p2
(dp3
S'b'
(dp4
S'name'
p5
S'n'
sS'lib'
p6
(dp7
sS'unicodes'
p8
(tsS'width'
p9
I1086
sS'contours'
p10
((dp11
S'points'
p12
((dp13
S'segmentType'
p14
S'line'
p15
sS'x'
I127
sS'smooth'
p16
I00
sS'y'
I0
s(dp17
g14
S'line'
p18
sS'x'
I127
sg16
I00
sS'y'
I1023
s(dp19
g14
S'line'
p20
sS'x'
I285
sg16
I00
sS'y'
I1023
s(dp21
g14
S'line'
p22
sS'x'
I285
sg16
I00
sS'y'
I830
s(dp23
S'y'
I983
sS'x'
I337
sg16
I00
s(dp24
S'y'
I1044
sS'x'
I491
sg16
I00
s(dp25
g14
S'curve'
p26
sS'x'
I623
sg16
I01
sS'y'
I1044
s(dp27
S'y'
I1044
sS'x'
I946
sg16
I00
s(dp28
S'y'
I790
sS'x'
I965
sg16
I00
s(dp29
g14
S'curve'
p30
sS'x'
I965
sg16
I01
sS'y'
I584
s(dp31
g14
S'line'
p32
sS'x'
I965
sg16
I00
sS'y'
I0
s(dp33
g14
S'line'
p34
sS'x'
I803
sg16
I00
sS'y'
I0
s(dp35
g14
S'line'
p36
sS'x'
I803
sg16
I01
sS'y'
I603
s(dp37
S'y'
I812
sS'x'
I803
sg16
I00
s(dp38
S'y'
I900
sS'x'
I782
sg16
I00
s(dp39
g14
S'curve'
p40
sS'x'
I605
sg16
I01
sS'y'
I900
s(dp41
S'y'
I900
sS'x'
I340
sg16
I00
s(dp42
S'y'
I745
sS'x'
I289
sg16
I00
s(dp43
g14
S'curve'
p44
sS'x'
I289
sg16
I01
sS'y'
I499
s(dp45
g14
S'line'
p46
sS'x'
I289
sg16
I00
sS'y'
I0
stp47
stp48
sS'components'
p49
(tsS'anchors'
p50
(tsssS'com.typemytype.robofont.mark'
p51
(F0
F0
F1
F1
tp52
s."
LayerCount: 2
Fore
SplineSet
98 0 m 1
 310 0 l 1
 310 1023 l 1
 98 1023 l 1
 98 0 l 1
EndSplineSet
EndChar

StartChar: less
Encoding: 28 60 227
Width: 1051
VWidth: 0
Flags: W
PickledData: "(dp1
S'com.typemytype.robofont.layerData'
p2
(dp3
s."
LayerCount: 2
Fore
SplineSet
998 280 m 1
 998 72 l 1
 49 438 l 1
 49 632 l 1
 998 983 l 1
 998 754 l 1
 288 524 l 1
 998 280 l 1
EndSplineSet
EndChar

StartChar: logicalnot
Encoding: 108 172 228
Width: 1024
VWidth: 0
Flags: W
PickledData: "(dp1
S'com.typemytype.robofont.layerData'
p2
(dp3
s."
LayerCount: 2
Fore
SplineSet
782 325 m 1
 909 325 l 1
 909 756 l 1
 135 756 l 1
 135 628 l 1
 782 628 l 1
 782 325 l 1
EndSplineSet
EndChar

StartChar: lslash
Encoding: 256 322 229
Width: 421
VWidth: 0
Flags: W
PickledData: "(dp1
S'com.typemytype.robofont.layerData'
p2
(dp3
s."
LayerCount: 2
Fore
SplineSet
-39 612 m 1
 -39 787 l 1
 507 1032 l 1
 507 857 l 1
 -39 612 l 1
EndSplineSet
Refer: 215 108 N 1 0 0 1 0 0 2
EndChar

StartChar: m
Encoding: 77 109 230
Width: 1795
VWidth: 0
Flags: W
PickledData: "(dp1
S'com.typemytype.robofont.layerData'
p2
(dp3
S'b'
(dp4
S'name'
p5
S'm'
sS'lib'
p6
(dp7
sS'unicodes'
p8
(tsS'width'
p9
I1795
sS'contours'
p10
((dp11
S'points'
p12
((dp13
S'segmentType'
p14
S'curve'
p15
sS'x'
I269
sS'smooth'
p16
I01
sS'y'
I583
s(dp17
g14
S'line'
p18
sS'x'
I269
sg16
I00
sS'y'
I0
s(dp19
g14
S'line'
p20
sS'x'
I127
sg16
I00
sS'y'
I0
s(dp21
g14
S'line'
p22
sS'x'
I127
sg16
I00
sS'y'
I1023
s(dp23
g14
S'line'
p24
sS'x'
I264
sg16
I00
sS'y'
I1023
s(dp25
g14
S'line'
p26
sS'x'
I268
sg16
I00
sS'y'
I861
s(dp27
S'y'
I998
sS'x'
I348
sg16
I00
s(dp28
S'y'
I1044
sS'x'
I476
sg16
I00
s(dp29
g14
S'curve'
p30
sS'x'
I594
sg16
I01
sS'y'
I1044
s(dp31
S'y'
I1044
sS'x'
I751
sg16
I00
s(dp32
S'y'
I961
sS'x'
I844
sg16
I00
s(dp33
g14
S'curve'
p34
sS'x'
I880
sg16
I00
sS'y'
I832
s(dp35
S'y'
I982
sS'x'
I952
sg16
I00
s(dp36
S'y'
I1044
sS'x'
I1092
sg16
I00
s(dp37
g14
S'curve'
p38
sS'x'
I1225
sg16
I01
sS'y'
I1044
s(dp39
S'y'
I1044
sS'x'
I1508
sg16
I00
s(dp40
S'y'
I792
sS'x'
I1543
sg16
I00
s(dp41
g14
S'curve'
p42
sS'x'
I1543
sg16
I01
sS'y'
I576
s(dp43
g14
S'line'
p44
sS'x'
I1543
sg16
I00
sS'y'
I0
s(dp45
g14
S'line'
p46
sS'x'
I1401
sg16
I00
sS'y'
I0
s(dp47
g14
S'line'
p48
sS'x'
I1401
sg16
I01
sS'y'
I607
s(dp49
S'y'
I802
sS'x'
I1401
sg16
I00
s(dp50
S'y'
I940
sS'x'
I1357
sg16
I00
s(dp51
g14
S'curve'
p52
sS'x'
I1200
sg16
I01
sS'y'
I940
s(dp53
S'y'
I940
sS'x'
I1024
sg16
I00
s(dp54
S'y'
I761
sS'x'
I905
sg16
I00
s(dp55
g14
S'curve'
p56
sS'x'
I905
sg16
I01
sS'y'
I591
s(dp57
g14
S'line'
p58
sS'x'
I905
sg16
I00
sS'y'
I0
s(dp59
g14
S'line'
p60
sS'x'
I763
sg16
I00
sS'y'
I0
s(dp61
g14
S'line'
p62
sS'x'
I763
sg16
I01
sS'y'
I607
s(dp63
S'y'
I805
sS'x'
I763
sg16
I00
s(dp64
S'y'
I940
sS'x'
I718
sg16
I00
s(dp65
g14
S'curve'
p66
sS'x'
I564
sg16
I01
sS'y'
I940
s(dp67
S'y'
I940
sS'x'
I382
sg16
I00
s(dp68
S'y'
I757
sS'x'
I269
sg16
I00
stp69
stp70
sS'components'
p71
(tsS'anchors'
p72
(tsss."
LayerCount: 2
Fore
SplineSet
1483 0 m 1
 1695 0 l 1
 1695 595 l 2
 1695 801 1654 1047 1331 1047 c 0
 1078 1047 949 899 915 624 c 1
 1010 497 l 1
 1010 701 1062 897 1285 897 c 0
 1433 897 1483 801 1483 602 c 2
 1483 0 l 1
798 0 m 1
 1010 0 l 1
 1010 595 l 2
 1010 807 969 1047 646 1047 c 0
 393 1047 274 884 224 624 c 1
 325 491 l 1
 325 695 381 897 600 897 c 0
 748 897 798 801 798 602 c 2
 798 0 l 1
EndSplineSet
Refer: 223 -1 N 1 0 0 1 15 0 2
EndChar

StartChar: macron
Encoding: 111 175 231
Width: 724
VWidth: 0
Flags: W
PickledData: "(dp1
S'com.typemytype.robofont.layerData'
p2
(dp3
s."
LayerCount: 2
Fore
SplineSet
135 1179 m 1
 135 1329 l 1
 589 1329 l 1
 589 1179 l 1
 135 1179 l 1
EndSplineSet
EndChar

StartChar: minus
Encoding: 514 8722 232
Width: 1024
VWidth: 0
Flags: W
PickledData: "(dp1
S'com.typemytype.robofont.layerData'
p2
(dp3
s."
LayerCount: 2
Fore
SplineSet
803 656 m 1
 803 780 l 1
 135 780 l 1
 135 656 l 1
 803 656 l 1
EndSplineSet
EndChar

StartChar: mu
Encoding: -1 956 233
Width: 1119
VWidth: 0
Flags: W
PickledData: "(dp1
S'com.typemytype.robofont.layerData'
p2
(dp3
S'b'
(dp4
S'name'
p5
S'mu'
p6
sS'lib'
p7
(dp8
sS'unicodes'
p9
(tsS'width'
p10
I1119
sS'contours'
p11
(tsS'components'
p12
(tsS'anchors'
p13
(tsss."
LayerCount: 2
Fore
SplineSet
312 -224 m 1
 312 1023 l 1
 100 1023 l 1
 100 -224 l 1
 312 -224 l 1
EndSplineSet
Refer: 306 117 N 1 0 0 1 0 0 2
EndChar

StartChar: multiply
Encoding: 151 215 234
Width: 734
VWidth: 0
Flags: W
PickledData: "(dp1
S'com.typemytype.robofont.layerData'
p2
(dp3
s."
LayerCount: 2
Fore
SplineSet
522 181 m 1
 641 300 l 1
 481 460 l 1
 641 620 l 1
 522 739 l 1
 362 579 l 1
 202 739 l 1
 83 620 l 1
 243 460 l 1
 83 300 l 1
 202 181 l 1
 362 341 l 1
 522 181 l 1
EndSplineSet
EndChar

StartChar: n
Encoding: 78 110 235
Width: 1111
VWidth: 0
Flags: W
PickledData: "(dp1
S'com.typemytype.robofont.layerData'
p2
(dp3
S'b'
(dp4
S'name'
p5
S'n'
sS'lib'
p6
(dp7
sS'unicodes'
p8
(tsS'width'
p9
I1111
sS'contours'
p10
((dp11
S'points'
p12
((dp13
S'segmentType'
p14
S'line'
p15
sS'x'
I113
sS'smooth'
p16
I00
sS'y'
I0
s(dp17
g14
S'line'
p18
sS'x'
I325
sg16
I00
sS'y'
I0
s(dp19
g14
S'line'
p20
sS'x'
I325
sg16
I01
sS'y'
I493
s(dp21
S'y'
I706
sS'x'
I325
sg16
I00
s(dp22
S'y'
I915
sS'x'
I381
sg16
I00
s(dp23
g14
S'curve'
p24
sS'x'
I625
sg16
I01
sS'y'
I897
s(dp25
S'y'
I888
sS'x'
I749
sg16
I00
s(dp26
S'y'
I781
sS'x'
I798
sg16
I00
s(dp27
g14
S'curve'
p28
sS'x'
I798
sg16
I01
sS'y'
I602
s(dp29
g14
S'line'
p30
sS'x'
I798
sg16
I00
sS'y'
I0
s(dp31
g14
S'line'
p32
sS'x'
I1010
sg16
I00
sS'y'
I0
s(dp33
g14
S'line'
p34
sS'x'
I1010
sg16
I01
sS'y'
I595
s(dp35
S'y'
I801
sS'x'
I1010
sg16
I00
s(dp36
S'y'
I1044
sS'x'
I969
sg16
I00
s(dp37
g14
S'curve'
p38
sS'x'
I646
sg16
I01
sS'y'
I1044
s(dp39
S'y'
I1044
sS'x'
I476
sg16
I00
s(dp40
S'y'
I968
sS'x'
I373
sg16
I00
s(dp41
g14
S'curve'
p42
sS'x'
I321
sg16
I00
sS'y'
I874
s(dp43
g14
S'line'
p44
sS'x'
I321
sg16
I00
sS'y'
I1023
s(dp45
g14
S'line'
p46
sS'x'
I113
sg16
I00
sS'y'
I1023
stp47
stp48
sS'components'
p49
(tsS'anchors'
p50
(tsss."
LayerCount: 2
Fore
SplineSet
798 0 m 1
 1010 0 l 1
 1010 595 l 2
 1010 801 969 1047 646 1047 c 0
 393 1047 272 884 224 624 c 1
 325 491 l 1
 325 685 386 897 605 897 c 0
 753 897 798 796 798 597 c 2
 798 0 l 1
EndSplineSet
Refer: 223 -1 N 1 0 0 1 15 0 2
EndChar

StartChar: nine
Encoding: 25 57 239
Width: 1246
VWidth: 0
Flags: W
PickledData: "(dp1
S'com.typemytype.robofont.layerData'
p2
(dp3
S'b'
(dp4
S'name'
p5
S'nine'
p6
sS'lib'
p7
(dp8
sS'unicodes'
p9
(tsS'width'
p10
I1246
sS'contours'
p11
(tsS'components'
p12
(tsS'anchors'
p13
(tsss."
LayerCount: 2
Fore
SplineSet
879 615 m 1
 865 263 734 152 556 152 c 0
 474 152 376 177 273 236 c 1
 213 69 l 1
 329 5 472 -24 570 -24 c 0
 902 -24 1120 268 1120 769 c 0
 1120 1217 916 1489 581 1489 c 0
 282 1489 105 1248 105 988 c 0
 105 683 306 517 553 517 c 0
 666 517 775 540 879 615 c 1
879 794 m 1
 779 719 686 686 583 686 c 0
 414 686 332 763 332 992 c 0
 332 1203 428 1312 581 1312 c 0
 802 1312 879 1072 879 826 c 2
 879 794 l 1
EndSplineSet
EndChar

StartChar: numbersign
Encoding: 3 35 241
Width: 1221
VWidth: 0
Flags: W
PickledData: "(dp1
S'com.typemytype.robofont.layerData'
p2
(dp3
S'b'
(dp4
S'name'
p5
S'numbersign'
p6
sS'lib'
p7
(dp8
sS'unicodes'
p9
(tsS'width'
p10
I1221
sS'contours'
p11
((dp12
S'points'
p13
((dp14
S'segmentType'
p15
S'line'
p16
sS'x'
I298
sS'smooth'
p17
I00
sS'y'
I1
s(dp18
g15
S'line'
p19
sS'x'
I124
sg17
I00
sS'y'
I0
s(dp20
g15
S'line'
p21
sS'x'
I235
sg17
I00
sS'y'
I551
s(dp22
g15
S'line'
p23
sS'x'
I51
sg17
I00
sS'y'
I551
s(dp24
g15
S'line'
p25
sS'x'
I80
sg17
I00
sS'y'
I649
s(dp26
g15
S'line'
p27
sS'x'
I255
sg17
I00
sS'y'
I649
s(dp28
g15
S'line'
p29
sS'x'
I306
sg17
I00
sS'y'
I901
s(dp30
g15
S'line'
p31
sS'x'
I120
sg17
I00
sS'y'
I901
s(dp32
g15
S'line'
p33
sS'x'
I149
sg17
I00
sS'y'
I999
s(dp34
g15
S'line'
p35
sS'x'
I326
sg17
I00
sS'y'
I999
s(dp36
g15
S'line'
p37
sS'x'
I420
sg17
I00
sS'y'
I1463
s(dp38
g15
S'line'
p39
sS'x'
I599
sg17
I00
sS'y'
I1464
s(dp40
g15
S'line'
p41
sS'x'
I503
sg17
I00
sS'y'
I999
s(dp42
g15
S'line'
p43
sS'x'
I788
sg17
I00
sS'y'
I999
s(dp44
g15
S'line'
p45
sS'x'
I882
sg17
I00
sS'y'
I1463
s(dp46
g15
S'line'
p47
sS'x'
I1061
sg17
I00
sS'y'
I1464
s(dp48
g15
S'line'
p49
sS'x'
I965
sg17
I00
sS'y'
I999
s(dp50
g15
S'line'
p51
sS'x'
I1175
sg17
I00
sS'y'
I999
s(dp52
g15
S'line'
p53
sS'x'
I1146
sg17
I00
sS'y'
I901
s(dp54
g15
S'line'
p55
sS'x'
I945
sg17
I00
sS'y'
I901
s(dp56
g15
S'line'
p57
sS'x'
I893
sg17
I00
sS'y'
I649
s(dp58
g15
S'line'
p59
sS'x'
I1106
sg17
I00
sS'y'
I649
s(dp60
g15
S'line'
p61
sS'x'
I1077
sg17
I00
sS'y'
I551
s(dp62
g15
S'line'
p63
sS'x'
I873
sg17
I00
sS'y'
I551
s(dp64
g15
S'line'
p65
sS'x'
I760
sg17
I00
sS'y'
I1
s(dp66
g15
S'line'
p67
sS'x'
I586
sg17
I00
sS'y'
I0
s(dp68
g15
S'line'
p69
sS'x'
I697
sg17
I00
sS'y'
I551
s(dp70
g15
S'line'
p71
sS'x'
I411
sg17
I00
sS'y'
I551
stp72
s(dp73
g13
((dp74
g15
S'line'
p75
sS'x'
I483
sg17
I00
sS'y'
I901
s(dp76
g15
S'line'
p77
sS'x'
I431
sg17
I00
sS'y'
I649
s(dp78
g15
S'line'
p79
sS'x'
I717
sg17
I00
sS'y'
I649
s(dp80
g15
S'line'
p81
sS'x'
I768
sg17
I00
sS'y'
I901
stp82
stp83
sS'components'
p84
(tsS'anchors'
p85
(tsss."
LayerCount: 2
Fore
SplineSet
324 0 m 1
 124 -1 l 1
 230 526 l 1
 46 526 l 1
 87 672 l 1
 259 672 l 1
 302 877 l 1
 116 877 l 1
 154 1023 l 1
 331 1023 l 1
 420 1464 l 1
 626 1464 l 1
 535 1023 l 1
 765 1023 l 1
 854 1464 l 1
 1061 1464 l 1
 970 1023 l 1
 1180 1023 l 1
 1142 877 l 1
 941 877 l 1
 897 672 l 1
 1113 672 l 1
 1072 526 l 1
 868 526 l 1
 760 0 l 1
 560 -1 l 1
 666 526 l 1
 432 526 l 1
 324 0 l 1
506 877 m 1
 461 672 l 1
 695 672 l 1
 736 877 l 1
 506 877 l 1
EndSplineSet
EndChar

StartChar: o
Encoding: 79 111 242
Width: 1104
VWidth: 0
Flags: W
PickledData: "(dp1
S'com.typemytype.robofont.guides'
p2
(tsS'com.typemytype.robofont.layerData'
p3
(dp4
S'b'
(dp5
S'name'
p6
S'o'
sS'lib'
p7
(dp8
sS'unicodes'
p9
(tsS'width'
p10
I1104
sS'contours'
p11
((dp12
S'points'
p13
((dp14
S'segmentType'
p15
S'line'
p16
sS'x'
I118
sS'smooth'
p17
I00
sS'y'
I0
s(dp18
g15
S'line'
p19
sS'x'
I330
sg17
I00
sS'y'
I0
s(dp20
g15
S'line'
p21
sS'x'
I330
sg17
I01
sS'y'
I493
s(dp22
S'y'
I706
sS'x'
I330
sg17
I00
s(dp23
S'y'
I915
sS'x'
I386
sg17
I00
s(dp24
g15
S'curve'
p25
sS'x'
I630
sg17
I01
sS'y'
I897
s(dp26
S'y'
I888
sS'x'
I754
sg17
I00
s(dp27
S'y'
I781
sS'x'
I803
sg17
I00
s(dp28
g15
S'curve'
p29
sS'x'
I803
sg17
I01
sS'y'
I602
s(dp30
g15
S'line'
p31
sS'x'
I803
sg17
I00
sS'y'
I0
s(dp32
g15
S'line'
p33
sS'x'
I1015
sg17
I00
sS'y'
I0
s(dp34
g15
S'line'
p35
sS'x'
I1015
sg17
I01
sS'y'
I595
s(dp36
S'y'
I801
sS'x'
I1015
sg17
I00
s(dp37
S'y'
I1044
sS'x'
I974
sg17
I00
s(dp38
g15
S'curve'
p39
sS'x'
I651
sg17
I01
sS'y'
I1044
s(dp40
S'y'
I1044
sS'x'
I481
sg17
I00
s(dp41
S'y'
I968
sS'x'
I378
sg17
I00
s(dp42
g15
S'curve'
p43
sS'x'
I326
sg17
I00
sS'y'
I874
s(dp44
g15
S'line'
p45
sS'x'
I326
sg17
I00
sS'y'
I1023
s(dp46
g15
S'line'
p47
sS'x'
I118
sg17
I00
sS'y'
I1023
stp48
stp49
sS'components'
p50
(tsS'anchors'
p51
(tsss."
LayerCount: 2
Fore
SplineSet
1016 512 m 0
 1016 866 838 1047 552 1047 c 0
 266 1047 88 866 88 512 c 0
 88 158 266 -24 552 -24 c 0
 838 -24 1016 158 1016 512 c 0
305 512 m 0
 305 702 346 897 552 897 c 0
 758 897 799 702 799 512 c 0
 799 322 758 126 552 126 c 0
 346 126 305 322 305 512 c 0
EndSplineSet
EndChar

StartChar: ogonek
Encoding: 364 731 248
Width: 462
VWidth: 0
Flags: W
PickledData: "(dp1
S'com.typemytype.robofont.layerData'
p2
(dp3
s."
LayerCount: 2
Fore
SplineSet
355 0 m 1
 320 -82 292 -144 292 -202 c 0
 292 -247 313 -279 396 -260 c 1
 396 -379 l 1
 195 -427 117 -321 117 -241 c 0
 117 -153 191 -68 254 0 c 1
 355 0 l 1
EndSplineSet
EndChar

StartChar: one
Encoding: 17 49 252
Width: 924
VWidth: 0
Flags: W
PickledData: "(dp1
S'com.typemytype.robofont.layerData'
p2
(dp3
s."
LayerCount: 2
Fore
SplineSet
405 1258 m 1
 405 0 l 1
 625 0 l 1
 625 1464 l 1
 434 1464 l 1
 114 1333 l 1
 179 1158 l 1
 405 1258 l 1
EndSplineSet
EndChar

StartChar: onehalf
Encoding: 125 189 253
Width: 1361
VWidth: 0
Flags: W
PickledData: "(dp1
S'com.typemytype.robofont.layerData'
p2
(dp3
S'b'
(dp4
S'name'
p5
S'onehalf'
p6
sS'lib'
p7
(dp8
sS'unicodes'
p9
(tsS'width'
p10
I1361
sS'contours'
p11
(tsS'components'
p12
(tsS'anchors'
p13
(tsss."
LayerCount: 2
Fore
SplineSet
184 1316 m 1
 184 769 l 1
 353 769 l 1
 353 1464 l 1
 199 1464 l 1
 41 1390 l 1
 72 1256 l 1
 184 1316 l 1
29 84 m 1
 146 -14 l 1
 1381 1415 l 1
 1265 1513 l 1
 29 84 l 1
1412 0 m 5
 1412 119 l 5
 1143 120 l 5
 1311 266 1431 344 1411 516 c 4
 1394 658 1278 712 1161 712 c 4
 1055 712 941 658 898 537 c 5
 1032 470 l 5
 1050 532 1081 573 1152 573 c 4
 1217 573 1244 536 1246 487 c 4
 1250 379 1110 293 919 123 c 5
 919 0 l 5
 1412 0 l 5
EndSplineSet
EndChar

StartChar: onequarter
Encoding: 124 188 254
Width: 1403
VWidth: 0
Flags: W
PickledData: "(dp1
S'com.typemytype.robofont.layerData'
p2
(dp3
s."
LayerCount: 2
Fore
SplineSet
29 84 m 1
 146 -14 l 1
 1381 1415 l 1
 1265 1513 l 1
 29 84 l 1
184 1316 m 5
 184 769 l 5
 353 769 l 5
 353 1464 l 5
 199 1464 l 5
 41 1390 l 5
 72 1256 l 5
 184 1316 l 5
762 121 m 1
 1102 121 l 1
 1102 0 l 1
 1266 0 l 1
 1266 121 l 1
 1374 121 l 1
 1374 243 l 1
 1266 243 l 1
 1266 693 l 1
 1051 693 l 1
 762 220 l 1
 762 121 l 1
1102 243 m 1
 932 243 l 1
 1102 542 l 1
 1102 243 l 1
EndSplineSet
EndChar

StartChar: ordfeminine
Encoding: 106 170 255
Width: 946
VWidth: 0
Flags: W
PickledData: "(dp1
S'com.typemytype.robofont.layerData'
p2
(dp3
S'b'
(dp4
S'name'
p5
S'ordfeminine'
p6
sS'lib'
p7
(dp8
sS'unicodes'
p9
(tsS'width'
p10
I946
sS'contours'
p11
(tsS'components'
p12
(tsS'anchors'
p13
(tsss."
LayerCount: 2
Fore
SplineSet
635 814 m 1
 591 760 500 693 418 700 c 0
 341 707 304 755 314 832 c 0
 325 914 365 961 549 976 c 2
 635 983 l 1
 635 814 l 1
640 700 m 1
 659 603 l 1
 819 603 l 1
 819 1140 l 2
 819 1358 695 1474 495 1474 c 0
 398 1474 260 1422 185 1340 c 1
 185 1340 300 1234 300 1233 c 1
 357 1289 423 1325 497 1325 c 0
 590 1325 635 1266 635 1161 c 2
 635 1111 l 1
 548 1105 l 2
 321 1089 145 1018 145 804 c 0
 145 656 277 577 416 583 c 0
 523 588 596 644 640 700 c 1
EndSplineSet
EndChar

StartChar: ordmasculine
Encoding: 122 186 256
Width: 1000
VWidth: 0
Flags: W
PickledData: "(dp1
S'com.typemytype.robofont.layerData'
p2
(dp3
s."
LayerCount: 2
Fore
SplineSet
119 1028 m 0
 119 727 275 583 516 583 c 0
 757 583 913 728 913 1031 c 0
 913 1341 746 1474 517 1474 c 0
 285 1474 119 1340 119 1028 c 0
517 730 m 0
 381 730 317 845 317 1031 c 0
 317 1214 381 1330 516 1330 c 0
 650 1330 716 1214 716 1029 c 0
 716 844 650 730 517 730 c 0
EndSplineSet
EndChar

StartChar: oslash
Encoding: 184 248 257
Width: 1104
VWidth: 0
Flags: W
PickledData: "(dp1
S'com.typemytype.robofont.layerData'
p2
(dp3
s."
LayerCount: 2
Fore
SplineSet
942 1175 m 1
 835 1232 l 1
 182 -143 l 1
 291 -200 l 1
 942 1175 l 1
EndSplineSet
Refer: 242 111 N 1 0 0 1 0 0 2
EndChar

StartChar: p
Encoding: 80 112 259
Width: 1147
VWidth: 0
Flags: W
PickledData: "(dp1
S'com.typemytype.robofont.layerData'
p2
(dp3
s."
LayerCount: 2
Fore
SplineSet
616 -24 m 0
 899 -24 1059 169 1059 521 c 0
 1059 868 877 1047 615 1047 c 0
 375 1047 253 843 230 646 c 1
 230 351 l 1
 251 117 392 -24 616 -24 c 0
601 126 m 0
 369 126 325 275 325 522 c 0
 325 834 472 897 602 897 c 0
 767 897 842 761 842 518 c 0
 842 254 773 126 601 126 c 0
EndSplineSet
Refer: 221 -1 N 1 0 0 1 56 0 2
EndChar

StartChar: paragraph
Encoding: 118 182 260
Width: 1038
VWidth: 0
Flags: W
PickledData: "(dp1
S'com.typemytype.robofont.layerData'
p2
(dp3
s."
LayerCount: 2
Fore
SplineSet
386 0 m 1
 386 799 l 1
 173 799 57 930 57 1126 c 0
 57 1305 147 1464 547 1464 c 2
 1014 1464 l 1
 1014 1292 l 1
 887 1292 l 1
 887 0 l 1
 698 0 l 1
 698 799 l 1
 575 799 l 1
 575 0 l 1
 386 0 l 1
EndSplineSet
EndChar

StartChar: parenleft
Encoding: 8 40 261
Width: 602
VWidth: 0
Flags: W
PickledData: "(dp1
S'com.typemytype.robofont.layerData'
p2
(dp3
s."
LayerCount: 2
Fore
SplineSet
-5 703 m 0
 -5 164 232 -112 523 -181 c 1
 564 -54 l 1
 338 19 222 289 222 703 c 0
 222 1117 338 1387 564 1460 c 1
 523 1587 l 1
 232 1518 -5 1242 -5 703 c 0
EndSplineSet
EndChar

StartChar: parenright
Encoding: 9 41 262
Width: 602
VWidth: 0
Flags: W
PickledData: "(dp1
S'com.typemytype.robofont.layerData'
p2
(dp3
S'b'
(dp4
S'name'
p5
S'parenright'
p6
sS'lib'
p7
(dp8
sS'unicodes'
p9
(tsS'width'
p10
I602
sS'contours'
p11
(tsS'components'
p12
(tsS'anchors'
p13
(tsss."
LayerCount: 2
Fore
SplineSet
564 703 m 0
 564 1242 327 1518 36 1587 c 1
 -5 1460 l 1
 221 1387 337 1117 337 703 c 0
 337 289 221 19 -5 -54 c 1
 36 -181 l 1
 327 -112 564 164 564 703 c 0
EndSplineSet
EndChar

StartChar: percent
Encoding: 5 37 263
Width: 1677
VWidth: 0
Flags: W
PickledData: "(dp1
S'com.typemytype.robofont.layerData'
p2
(dp3
S'b'
(dp4
S'name'
p5
S'percent'
p6
sS'lib'
p7
(dp8
sS'unicodes'
p9
(tsS'width'
p10
I1677
sS'contours'
p11
((dp12
S'points'
p13
((dp14
S'segmentType'
p15
S'line'
p16
sS'x'
I268
sS'smooth'
p17
I00
sS'y'
I-14
s(dp18
g15
S'line'
p19
sS'x'
I1503
sg17
I00
sS'y'
I1415
s(dp20
g15
S'line'
p21
sS'x'
I1426
sg17
I00
sS'y'
I1481
s(dp22
g15
S'line'
p23
sS'x'
I190
sg17
I00
sS'y'
I52
stp24
s(dp25
g13
((dp26
g15
S'curve'
p27
sS'x'
I357
sg17
I01
sS'y'
I1466
s(dp28
S'y'
I1466
sS'x'
I558
sg17
I00
s(dp29
S'y'
I1292
sS'x'
I660
sg17
I00
s(dp30
g15
S'curve'
p31
sS'x'
I660
sg17
I01
sS'y'
I1120
s(dp32
S'y'
I946
sS'x'
I660
sg17
I00
s(dp33
S'y'
I774
sS'x'
I558
sg17
I00
s(dp34
g15
S'curve'
p35
sS'x'
I357
sg17
I01
sS'y'
I774
s(dp36
S'y'
I774
sS'x'
I152
sg17
I00
s(dp37
S'y'
I945
sS'x'
I50
sg17
I00
s(dp38
g15
S'curve'
p39
sS'x'
I50
sg17
I01
sS'y'
I1118
s(dp40
S'y'
I1291
sS'x'
I50
sg17
I00
s(dp41
S'y'
I1466
sS'x'
I154
sg17
I00
stp42
s(dp43
g13
((dp44
g15
S'curve'
p45
sS'x'
I1325
sg17
I01
sS'y'
I692
s(dp46
S'y'
I692
sS'x'
I1527
sg17
I00
s(dp47
S'y'
I518
sS'x'
I1628
sg17
I00
s(dp48
g15
S'curve'
p49
sS'x'
I1628
sg17
I01
sS'y'
I346
s(dp50
S'y'
I172
sS'x'
I1628
sg17
I00
s(dp51
S'y'
I0
sS'x'
I1527
sg17
I00
s(dp52
g15
S'curve'
p53
sS'x'
I1325
sg17
I01
sS'y'
I0
s(dp54
S'y'
I0
sS'x'
I1120
sg17
I00
s(dp55
S'y'
I171
sS'x'
I1019
sg17
I00
s(dp56
g15
S'curve'
p57
sS'x'
I1019
sg17
I01
sS'y'
I344
s(dp58
S'y'
I517
sS'x'
I1019
sg17
I00
s(dp59
S'y'
I692
sS'x'
I1122
sg17
I00
stp60
s(dp61
g13
((dp62
g15
S'curve'
p63
sS'x'
I357
sg17
I01
sS'y'
I1374
s(dp64
S'y'
I1374
sS'x'
I225
sg17
I00
s(dp65
S'y'
I1249
sS'x'
I161
sg17
I00
s(dp66
g15
S'curve'
p67
sS'x'
I161
sg17
I01
sS'y'
I1123
s(dp68
S'y'
I995
sS'x'
I161
sg17
I00
s(dp69
S'y'
I868
sS'x'
I227
sg17
I00
s(dp70
g15
S'curve'
p71
sS'x'
I357
sg17
I01
sS'y'
I868
s(dp72
S'y'
I868
sS'x'
I484
sg17
I00
s(dp73
S'y'
I995
sS'x'
I548
sg17
I00
s(dp74
g15
S'curve'
p75
sS'x'
I548
sg17
I01
sS'y'
I1122
s(dp76
S'y'
I1248
sS'x'
I548
sg17
I00
s(dp77
S'y'
I1374
sS'x'
I485
sg17
I00
stp78
s(dp79
g13
((dp80
g15
S'curve'
p81
sS'x'
I1325
sg17
I01
sS'y'
I599
s(dp82
S'y'
I599
sS'x'
I1194
sg17
I00
s(dp83
S'y'
I474
sS'x'
I1129
sg17
I00
s(dp84
g15
S'curve'
p85
sS'x'
I1129
sg17
I01
sS'y'
I349
s(dp86
S'y'
I221
sS'x'
I1129
sg17
I00
s(dp87
S'y'
I93
sS'x'
I1196
sg17
I00
s(dp88
g15
S'curve'
p89
sS'x'
I1325
sg17
I01
sS'y'
I93
s(dp90
S'y'
I93
sS'x'
I1452
sg17
I00
s(dp91
S'y'
I221
sS'x'
I1517
sg17
I00
s(dp92
g15
S'curve'
p93
sS'x'
I1517
sg17
I01
sS'y'
I348
s(dp94
S'y'
I473
sS'x'
I1517
sg17
I00
s(dp95
S'y'
I599
sS'x'
I1453
sg17
I00
stp96
stp97
sS'components'
p98
(tsS'anchors'
p99
(tsss."
LayerCount: 2
Fore
SplineSet
1279 115 m 0
 1179 115 1127 207 1127 325 c 0
 1127 436 1184 531 1279 531 c 0
 1377 531 1430 440 1430 324 c 0
 1430 207 1376 115 1279 115 c 0
1280 -24 m 0
 1481 -24 1593 148 1593 322 c 0
 1593 494 1481 668 1280 668 c 0
 1077 668 963 493 963 320 c 0
 963 147 1075 -24 1280 -24 c 0
356 913 m 0
 256 913 204 1005 204 1123 c 0
 204 1234 261 1329 356 1329 c 0
 454 1329 507 1238 507 1122 c 0
 507 1005 453 913 356 913 c 0
357 774 m 0
 558 774 670 946 670 1120 c 0
 670 1292 558 1466 357 1466 c 0
 154 1466 40 1291 40 1118 c 0
 40 945 152 774 357 774 c 0
281 -32 m 1
 1516 1398 l 1
 1405 1502 l 1
 169 73 l 1
 281 -32 l 1
EndSplineSet
EndChar

StartChar: period
Encoding: 14 46 264
Width: 434
VWidth: 0
Flags: W
PickledData: "(dp1
S'com.typemytype.robofont.layerData'
p2
(dp3
S'b'
(dp4
S'name'
p5
S'period'
p6
sS'lib'
p7
(dp8
sS'unicodes'
p9
(tsS'width'
p10
I434
sS'contours'
p11
((dp12
S'points'
p13
((dp14
S'segmentType'
p15
S'line'
p16
sS'x'
I85
sS'smooth'
p17
I00
sS'y'
I240
s(dp18
g15
S'line'
p19
sS'x'
I355
sg17
I00
sS'y'
I240
s(dp20
g15
S'line'
p21
sS'x'
I355
sg17
I01
sS'y'
I95
s(dp22
S'y'
I-103
sS'x'
I355
sg17
I00
s(dp23
S'y'
I-214
sS'x'
I324
sg17
I00
s(dp24
g15
S'curve'
p25
sS'x'
I182
sg17
I00
sS'y'
I-295
s(dp26
g15
S'line'
p27
sS'x'
I111
sg17
I00
sS'y'
I-203
s(dp28
S'y'
I-172
sS'x'
I144
sg17
I00
s(dp29
S'y'
I-92
sS'x'
I204
sg17
I00
s(dp30
g15
S'curve'
p31
sS'x'
I204
sg17
I00
sS'y'
I-13
s(dp32
g15
S'line'
p33
sS'x'
I85
sg17
I00
sS'y'
I0
stp34
stp35
sS'components'
p36
(tsS'anchors'
p37
(tsss."
LayerCount: 2
Fore
SplineSet
85 240 m 1
 345 240 l 1
 345 0 l 1
 85 0 l 1
 85 240 l 1
EndSplineSet
EndChar

StartChar: periodcentered
Encoding: 119 183 265
Width: 434
VWidth: 0
Flags: W
PickledData: "(dp1
S'com.typemytype.robofont.layerData'
p2
(dp3
s."
LayerCount: 2
Fore
SplineSet
85 766 m 1
 345 766 l 1
 345 526 l 1
 85 526 l 1
 85 766 l 1
EndSplineSet
EndChar

StartChar: plus
Encoding: 11 43 266
Width: 860
VWidth: 0
Flags: W
PickledData: "(dp1
S'com.typemytype.robofont.layerData'
p2
(dp3
s."
LayerCount: 2
Fore
SplineSet
72 652 m 1
 72 802 l 1
 351 802 l 1
 351 1100 l 1
 503 1100 l 1
 503 802 l 1
 778 802 l 1
 778 652 l 1
 503 652 l 1
 503 350 l 1
 351 350 l 1
 351 652 l 1
 72 652 l 1
EndSplineSet
EndChar

StartChar: plusminus
Encoding: 113 177 267
Width: 860
VWidth: 0
Flags: W
PickledData: "(dp1
S'com.typemytype.robofont.layerData'
p2
(dp3
s."
LayerCount: 2
Fore
SplineSet
127 212 m 1
 127 339 l 1
 730 339 l 1
 730 212 l 1
 127 212 l 1
128 651 m 1
 128 800 l 1
 353 800 l 1
 353 1023 l 1
 505 1023 l 1
 505 800 l 1
 730 800 l 1
 730 651 l 1
 505 651 l 1
 505 423 l 1
 353 423 l 1
 353 651 l 1
 128 651 l 1
EndSplineSet
EndChar

StartChar: q
Encoding: 81 113 268
Width: 1147
VWidth: 0
Flags: W
PickledData: "(dp1
S'com.typemytype.robofont.layerData'
p2
(dp3
S'b'
(dp4
S'name'
p5
S'q'
sS'lib'
p6
(dp7
sS'unicodes'
p8
(tsS'width'
p9
I1147
sS'contours'
p10
(tsS'components'
p11
(tsS'anchors'
p12
(tsss."
LayerCount: 2
Fore
SplineSet
531 -24 m 0
 755 -24 896 117 917 351 c 1
 917 646 l 1
 894 843 772 1047 532 1047 c 0
 270 1047 88 868 88 521 c 0
 88 169 248 -24 531 -24 c 0
546 126 m 0
 374 126 305 254 305 518 c 0
 305 761 380 897 545 897 c 0
 675 897 822 834 822 522 c 0
 822 275 778 126 546 126 c 0
EndSplineSet
Refer: 222 -1 N 1 0 0 1 765 0 2
EndChar

StartChar: question
Encoding: 31 63 269
Width: 1010
VWidth: 0
Flags: W
PickledData: "(dp1
S'com.typemytype.robofont.layerData'
p2
(dp3
s."
LayerCount: 2
Fore
SplineSet
722 1089 m 0
 722 841 538 775 332 358 c 1
 526 358 l 1
 734 715 941 805 941 1094 c 0
 941 1296 816 1491 497 1491 c 0
 327 1491 154 1440 35 1251 c 1
 184 1143 l 1
 214 1189 305 1316 488 1316 c 0
 659 1316 722 1227 722 1089 c 0
315 0 m 1
 557 0 l 1
 557 235 l 1
 315 235 l 1
 315 0 l 1
EndSplineSet
EndChar

StartChar: quotedbl
Encoding: 2 34 271
Width: 510
VWidth: 0
Flags: W
PickledData: "(dp1
S'com.typemytype.robofont.layerData'
p2
(dp3
s."
LayerCount: 2
Fore
SplineSet
438 1000 m 1
 365 1000 l 1
 303 1464 l 1
 499 1464 l 1
 438 1000 l 1
146 1000 m 1
 73 1000 l 1
 11 1464 l 1
 207 1464 l 1
 146 1000 l 1
EndSplineSet
EndChar

StartChar: quotedblbase
Encoding: 502 8222 272
Width: 744
VWidth: 0
Flags: W
LayerCount: 2
Fore
SplineSet
434 -81 m 2
 434 93 l 1
 628 93 l 1
 624 -87 627 -269 467 -382 c 1
 418 -319 l 1
 443 -296 494 -219 497 -99 c 1
 497 -99 434 -82 434 -81 c 2
126 -81 m 1
 126 93 l 1
 320 93 l 1
 316 -87 319 -269 159 -382 c 1
 110 -319 l 1
 135 -296 186 -219 189 -99 c 1
 189 -99 125 -82 126 -81 c 1
EndSplineSet
EndChar

StartChar: quotedblleft
Encoding: 500 8220 273
Width: 630
VWidth: 0
Flags: W
LayerCount: 2
Fore
SplineSet
459 1473 m 1
 508 1410 l 1
 483 1387 430 1319 427 1196 c 1
 530 1183 l 1
 530 995 l 1
 330 995 l 1
 330 1084 l 1
 335 1242 325 1378 459 1473 c 1
165 1473 m 1
 214 1410 l 1
 189 1387 136 1319 133 1197 c 1
 230 1183 l 1
 230 995 l 1
 30 995 l 1
 30 1084 l 2
 30 1240 31 1379 165 1473 c 1
EndSplineSet
EndChar

StartChar: quotedblright
Encoding: 501 8221 274
Width: 631
VWidth: 0
Flags: W
LayerCount: 2
Fore
SplineSet
401 1292 m 1
 401 1464 l 1
 601 1464 l 1
 596 1285 612 1103 453 991 c 1
 402 1054 l 1
 427 1075 479 1152 482 1273 c 1
 401 1292 l 1
100 1292 m 2
 100 1464 l 1
 301 1464 l 1
 297 1284 320 1104 160 991 c 1
 110 1054 l 1
 136 1077 187 1154 190 1274 c 1
 190 1273 100 1291 100 1292 c 2
EndSplineSet
EndChar

StartChar: quoteleft
Encoding: 497 8216 275
Width: 330
VWidth: 0
Flags: W
LayerCount: 2
Fore
SplineSet
145 1469 m 1
 145 1468 213 1431 214 1431 c 1
 157 1335 136 1298 136 1200 c 1
 230 1187 l 1
 230 1143.67 229.556 1100.33 229.556 1057 c 0
 229.556 1035.33 229.667 1013.67 230 992 c 1
 30 992 l 1
 30 1089 l 2
 30 1093.83 29.9978 1098.64 29.9978 1103.45 c 0
 29.9978 1243.95 31.8678 1374.24 145 1469 c 1
EndSplineSet
EndChar

StartChar: quoteright
Encoding: 498 8217 276
Width: 330
VWidth: 0
Flags: W
LayerCount: 2
Fore
SplineSet
100 1292 m 2
 100 1464 l 1
 300 1464 l 1
 296 1284 320 1104 160 991 c 1
 111 1054 l 1
 136 1077 187 1154 190 1274 c 1
 190 1273 100 1291 100 1292 c 2
EndSplineSet
EndChar

StartChar: quotesinglbase
Encoding: 499 8218 277
Width: 436
VWidth: 0
Flags: W
LayerCount: 2
Fore
SplineSet
128 -81 m 2
 128 93 l 1
 320 93 l 1
 316 -87 319 -269 159 -382 c 1
 110 -319 l 1
 135 -296 186 -219 189 -99 c 1
 189 -99 128 -82 128 -81 c 2
EndSplineSet
EndChar

StartChar: quotesingle
Encoding: 7 39 278
Width: 280
VWidth: 0
Flags: W
PickledData: "(dp1
S'com.typemytype.robofont.layerData'
p2
(dp3
s."
LayerCount: 2
Fore
SplineSet
195 1000 m 1
 122 1000 l 1
 60 1464 l 1
 256 1464 l 1
 195 1000 l 1
EndSplineSet
EndChar

StartChar: r
Encoding: 82 114 279
Width: 647
VWidth: 0
Flags: W
PickledData: "(dp1
S'com.typemytype.robofont.layerData'
p2
(dp3
S'b'
(dp4
S'name'
p5
S'r'
sS'lib'
p6
(dp7
sS'unicodes'
p8
(tsS'width'
p9
I647
sS'contours'
p10
((dp11
S'points'
p12
((dp13
S'segmentType'
p14
S'line'
p15
sS'x'
I283
sS'smooth'
p16
I00
sS'y'
I1023
s(dp17
g14
S'line'
p18
sS'x'
I283
sg16
I00
sS'y'
I831
s(dp19
S'y'
I977
sS'x'
I342
sg16
I00
s(dp20
S'y'
I1023
sS'x'
I477
sg16
I00
s(dp21
g14
S'curve'
p22
sS'x'
I589
sg16
I00
sS'y'
I1023
s(dp23
g14
S'line'
p24
sS'x'
I589
sg16
I00
sS'y'
I895
s(dp25
S'y'
I895
sS'x'
I360
sg16
I00
s(dp26
S'y'
I717
sS'x'
I287
sg16
I00
s(dp27
g14
S'curve'
p28
sS'x'
I287
sg16
I01
sS'y'
I532
s(dp29
g14
S'line'
p30
sS'x'
I287
sg16
I00
sS'y'
I0
s(dp31
g14
S'line'
p32
sS'x'
I145
sg16
I00
sS'y'
I0
s(dp33
g14
S'line'
p34
sS'x'
I145
sg16
I00
sS'y'
I1023
stp35
stp36
sS'components'
p37
(tsS'anchors'
p38
(tsss."
LayerCount: 2
Fore
SplineSet
328 502 m 1
 328 687 411 847 630 847 c 1
 630 1035 l 1
 430 1035 300 913 235 609 c 1
 328 502 l 1
EndSplineSet
Refer: 223 -1 N 1 0 0 1 18 0 2
EndChar

StartChar: registered
Encoding: 110 174 283
Width: 1702
VWidth: 0
Flags: W
PickledData: "(dp1
S'com.typemytype.robofont.layerData'
p2
(dp3
S'b'
(dp4
S'name'
p5
S'registered'
p6
sS'lib'
p7
(dp8
sS'unicodes'
p9
(tsS'width'
p10
I1702
sS'contours'
p11
(tsS'components'
p12
(tsS'anchors'
p13
(tsss."
LayerCount: 2
Fore
SplineSet
850 1497 m 0
 451 1497 123 1205 123 774 c 0
 123 335 451 53 850 53 c 0
 1251 53 1579 375 1579 774 c 0
 1579 1175 1251 1497 850 1497 c 0
204 773 m 0
 204 1154 483 1432 850 1432 c 0
 1218 1432 1498 1124 1498 773 c 0
 1498 423 1217 118 849 118 c 0
 482 118 204 383 204 773 c 0
702 1157 m 1
 702 867 l 1
 829 867 l 2
 947 867 1052 864 1052 1015 c 0
 1052 1139 960 1157 848 1157 c 2
 702 1157 l 1
857 1248 m 2
 1071 1248 1179 1173 1179 1017 c 0
 1179 900 1122 827 1014 790 c 1
 1200 379 l 1
 1067 379 l 1
 892 770 l 1
 699 770 l 1
 699 381 l 1
 578 381 l 1
 578 1248 l 1
 857 1248 l 2
EndSplineSet
EndChar

StartChar: ring
Encoding: 363 730 284
Width: 728
VWidth: 0
Flags: W
PickledData: "(dp1
S'com.typemytype.robofont.layerData'
p2
(dp3
s."
LayerCount: 2
Fore
SplineSet
365 1349 m 0
 440 1349 483 1293 483 1219 c 0
 483 1145 440 1089 365 1089 c 0
 290 1089 247 1145 247 1219 c 0
 247 1293 290 1349 365 1349 c 0
365 964 m 0
 533 964 627 1086 627 1219 c 0
 627 1352 533 1474 365 1474 c 0
 197 1474 103 1352 103 1219 c 0
 103 1086 197 964 365 964 c 0
EndSplineSet
EndChar

StartChar: s
Encoding: 83 115 285
Width: 931
VWidth: 0
Flags: W
PickledData: "(dp1
S'com.typemytype.robofont.layerData'
p2
(dp3
S'b'
(dp4
S'name'
p5
S's'
sS'lib'
p6
(dp7
sS'unicodes'
p8
(tsS'width'
p9
I931
sS'contours'
p10
((dp11
S'points'
p12
((dp13
S'segmentType'
p14
S'curve'
p15
sS'x'
I845
sS'smooth'
p16
I00
sS'y'
I846
s(dp17
S'y'
I846
sS'x'
I845
sg16
I00
s(dp18
S'y'
I791
sS'x'
I748
sg16
I00
s(dp19
g14
S'curve'
p20
sS'x'
I748
sg16
I00
sS'y'
I790
s(dp21
S'y'
I897
sS'x'
I702
sg16
I00
s(dp22
S'y'
I940
sS'x'
I623
sg16
I00
s(dp23
g14
S'curve'
p24
sS'x'
I490
sg16
I01
sS'y'
I940
s(dp25
S'y'
I940
sS'x'
I327
sg16
I00
s(dp26
S'y'
I879
sS'x'
I240
sg16
I00
s(dp27
g14
S'curve'
p28
sS'x'
I240
sg16
I01
sS'y'
I759
s(dp29
S'y'
I640
sS'x'
I240
sg16
I00
s(dp30
S'y'
I608
sS'x'
I353
sg16
I00
s(dp31
g14
S'curve'
p32
sS'x'
I505
sg16
I01
sS'y'
I580
s(dp33
S'y'
I540
sS'x'
I723
sg16
I00
s(dp34
S'y'
I463
sS'x'
I854
sg16
I00
s(dp35
g14
S'curve'
p36
sS'x'
I854
sg16
I01
sS'y'
I286
s(dp37
S'y'
I86
sS'x'
I854
sg16
I00
s(dp38
S'y'
I-25
sS'x'
I724
sg16
I00
s(dp39
g14
S'curve'
p40
sS'x'
I449
sg16
I01
sS'y'
I-25
s(dp41
S'y'
I-25
sS'x'
I295
sg16
I00
s(dp42
S'y'
I34
sS'x'
I123
sg16
I00
s(dp43
g14
S'curve'
p44
sS'x'
I71
sg16
I00
sS'y'
I225
s(dp45
g14
S'line'
p46
sS'x'
I179
sg16
I00
sS'y'
I269
s(dp47
S'y'
I140
sS'x'
I226
sg16
I00
s(dp48
S'y'
I80
sS'x'
I299
sg16
I00
s(dp49
g14
S'curve'
p50
sS'x'
I462
sg16
I01
sS'y'
I80
s(dp51
S'y'
I80
sS'x'
I602
sg16
I00
s(dp52
S'y'
I118
sS'x'
I725
sg16
I00
s(dp53
g14
S'curve'
p54
sS'x'
I725
sg16
I01
sS'y'
I259
s(dp55
S'y'
I390
sS'x'
I725
sg16
I00
s(dp56
S'y'
I422
sS'x'
I662
sg16
I00
s(dp57
g14
S'curve'
p58
sS'x'
I412
sg16
I01
sS'y'
I474
s(dp59
S'y'
I510
sS'x'
I243
sg16
I00
s(dp60
S'y'
I560
sS'x'
I106
sg16
I00
s(dp61
g14
S'curve'
p62
sS'x'
I106
sg16
I01
sS'y'
I761
s(dp63
S'y'
I946
sS'x'
I106
sg16
I00
s(dp64
S'y'
I1044
sS'x'
I265
sg16
I00
s(dp65
g14
S'curve'
p66
sS'x'
I484
sg16
I01
sS'y'
I1044
s(dp67
S'y'
I1044
sS'x'
I661
sg16
I00
s(dp68
S'y'
I993
sS'x'
I772
sg16
I00
stp69
stp70
sS'components'
p71
(tsS'anchors'
p72
(tsss."
LayerCount: 2
Fore
SplineSet
853 849 m 1
 853 849 723 775 723 774 c 1
 669 870 616 897 490 897 c 0
 332 897 293 858 290 761 c 0
 287 661 338 645 502 608 c 0
 768 548 866 484 866 286 c 0
 866 86 754 -24 463 -24 c 0
 280 -24 115 33 63 224 c 1
 218 288 l 1
 268 160 315 126 478 126 c 0
 605 126 681 155 683 260 c 0
 685 391 658 395 412 452 c 0
 186 504 92 557 92 761 c 0
 92 946 249 1047 484 1047 c 0
 666 1047 780 996 853 849 c 1
EndSplineSet
EndChar

StartChar: section
Encoding: 103 167 291
Width: 1005
VWidth: 0
Flags: W
PickledData: "(dp1
S'com.typemytype.robofont.layerData'
p2
(dp3
S'b'
(dp4
S'name'
p5
S'section'
p6
sS'lib'
p7
(dp8
sS'unicodes'
p9
(tsS'width'
p10
I1005
sS'contours'
p11
((dp12
S'points'
p13
((dp14
S'segmentType'
p15
S'curve'
p16
sS'x'
I535
sS'smooth'
p17
I01
sS'y'
I-25
s(dp18
S'y'
I-25
sS'x'
I776
sg17
I00
s(dp19
S'y'
I72
sS'x'
I918
sg17
I00
s(dp20
g15
S'curve'
p21
sS'x'
I918
sg17
I01
sS'y'
I261
s(dp22
S'y'
I363
sS'x'
I918
sg17
I00
s(dp23
S'y'
I429
sS'x'
I858
sg17
I00
s(dp24
g15
S'curve'
p25
sS'x'
I783
sg17
I00
sS'y'
I479
s(dp26
S'y'
I576
sS'x'
I844
sg17
I00
s(dp27
S'y'
I647
sS'x'
I893
sg17
I00
s(dp28
g15
S'curve'
p29
sS'x'
I893
sg17
I01
sS'y'
I714
s(dp30
S'y'
I852
sS'x'
I893
sg17
I00
s(dp31
S'y'
I919
sS'x'
I788
sg17
I00
s(dp32
g15
S'curve'
p33
sS'x'
I565
sg17
I01
sS'y'
I1005
s(dp34
S'y'
I1070
sS'x'
I397
sg17
I00
s(dp35
S'y'
I1090
sS'x'
I348
sg17
I00
s(dp36
g15
S'curve'
p37
sS'x'
I348
sg17
I00
sS'y'
I1197
s(dp38
S'y'
I1256
sS'x'
I350
sg17
I00
s(dp39
S'y'
I1308
sS'x'
I394
sg17
I00
s(dp40
g15
S'curve'
p41
sS'x'
I534
sg17
I01
sS'y'
I1314
s(dp42
S'y'
I1318
sS'x'
I616
sg17
I00
s(dp43
S'y'
I1304
sS'x'
I691
sg17
I00
s(dp44
g15
S'curve'
p45
sS'x'
I747
sg17
I00
sS'y'
I1198
s(dp46
S'y'
I1199
sS'x'
I747
sg17
I00
s(dp47
S'y'
I1284
sS'x'
I884
sg17
I00
s(dp48
g15
S'curve'
p49
sS'x'
I884
sg17
I00
sS'y'
I1284
s(dp50
S'y'
I1436
sS'x'
I812
sg17
I00
s(dp51
S'y'
I1489
sS'x'
I704
sg17
I00
s(dp52
g15
S'curve'
p53
sS'x'
I527
sg17
I01
sS'y'
I1489
s(dp54
S'y'
I1489
sS'x'
I308
sg17
I00
s(dp55
S'y'
I1391
sS'x'
I147
sg17
I00
s(dp56
g15
S'curve'
p57
sS'x'
I147
sg17
I01
sS'y'
I1203
s(dp58
S'y'
I1085
sS'x'
I147
sg17
I00
s(dp59
S'y'
I1033
sS'x'
I213
sg17
I00
s(dp60
g15
S'curve'
p61
sS'x'
I281
sg17
I00
sS'y'
I992
s(dp62
S'y'
I891
sS'x'
I200
sg17
I00
s(dp63
S'y'
I823
sS'x'
I154
sg17
I00
s(dp64
g15
S'curve'
p65
sS'x'
I154
sg17
I01
sS'y'
I755
s(dp66
S'y'
I617
sS'x'
I154
sg17
I00
s(dp67
S'y'
I544
sS'x'
I259
sg17
I00
s(dp68
g15
S'curve'
p69
sS'x'
I450
sg17
I01
sS'y'
I475
s(dp70
S'y'
I380
sS'x'
I713
sg17
I00
s(dp71
S'y'
I376
sS'x'
I722
sg17
I00
s(dp72
g15
S'curve'
p73
sS'x'
I726
sg17
I00
sS'y'
I251
s(dp74
S'y'
I204
sS'x'
I726
sg17
I00
s(dp75
S'y'
I152
sS'x'
I685
sg17
I00
s(dp76
g15
S'curve'
p77
sS'x'
I540
sg17
I01
sS'y'
I152
s(dp78
S'y'
I152
sS'x'
I418
sg17
I00
s(dp79
S'y'
I196
sS'x'
I329
sg17
I00
s(dp80
g15
S'curve'
p81
sS'x'
I280
sg17
I00
sS'y'
I328
s(dp82
g15
S'line'
p83
sS'x'
I127
sg17
I00
sS'y'
I273
s(dp84
S'y'
I49
sS'x'
I168
sg17
I00
s(dp85
S'y'
I-25
sS'x'
I370
sg17
I00
stp86
s(dp87
g13
((dp88
g15
S'curve'
p89
sS'x'
I321
sg17
I01
sS'y'
I739
s(dp90
S'y'
I790
sS'x'
I321
sg17
I00
s(dp91
S'y'
I814
sS'x'
I372
sg17
I00
s(dp92
g15
S'curve'
p93
sS'x'
I447
sg17
I00
sS'y'
I911
s(dp94
S'y'
I829
sS'x'
I660
sg17
I00
s(dp95
S'y'
I822
sS'x'
I719
sg17
I00
s(dp96
g15
S'curve'
p97
sS'x'
I719
sg17
I01
sS'y'
I711
s(dp98
S'y'
I668
sS'x'
I719
sg17
I00
s(dp99
S'y'
I593
sS'x'
I657
sg17
I00
s(dp100
g15
S'curve'
p101
sS'x'
I622
sg17
I00
sS'y'
I558
s(dp102
S'y'
I558
sS'x'
I622
sg17
I00
s(dp103
S'y'
I626
sS'x'
I321
sg17
I00
stp104
stp105
sS'components'
p106
(tsS'anchors'
p107
(tsss."
LayerCount: 2
Fore
SplineSet
541 -24 m 0
 772 -24 918 76 918 265 c 0
 918 367 846 433 771 483 c 1
 875 588 878 645 885 712 c 0
 914 994 345 1060 358 1215 c 1
 360 1274 414 1317 529 1319 c 0
 611 1320 691 1304 747 1198 c 1
 747 1199 884 1284 884 1284 c 1
 812 1436 707 1489 530 1489 c 0
 311 1489 147 1391 147 1203 c 0
 147 1085 225 1028 293 987 c 1
 179 895 155 823 154 755 c 0
 149 429 753 406 728 247 c 0
 720 197 679 152 544 152 c 0
 422 152 329 196 280 328 c 1
 127 273 l 1
 168 49 376 -24 541 -24 c 0
622 558 m 1
 354 675 240 725 418 916 c 1
 712 791 752 739 622 558 c 1
EndSplineSet
EndChar

StartChar: semicolon
Encoding: 27 59 292
Width: 478
VWidth: 0
Flags: W
PickledData: "(dp1
S'com.typemytype.robofont.layerData'
p2
(dp3
S'b'
(dp4
S'name'
p5
S'semicolon'
p6
sS'lib'
p7
(dp8
sS'unicodes'
p9
(tsS'width'
p10
I478
sS'contours'
p11
(tsS'components'
p12
(tsS'anchors'
p13
(tsss."
LayerCount: 2
Fore
SplineSet
116 1047 m 1
 375 1047 l 1
 375 808 l 1
 116 808 l 1
 116 1047 l 1
123 240 m 1
 393 240 l 1
 393 95 l 2
 393 -103 362 -214 220 -295 c 1
 149 -203 l 1
 182 -172 242 -92 242 -13 c 1
 123 0 l 1
 123 240 l 1
EndSplineSet
EndChar

StartChar: seven
Encoding: 23 55 293
Width: 1246
VWidth: 0
Flags: W
PickledData: "(dp1
S'com.typemytype.robofont.layerData'
p2
(dp3
s."
LayerCount: 2
Fore
SplineSet
255 1294 m 1
 239 1464 l 1
 1086 1464 l 1
 1086 1295 l 1
 532 -1 l 1
 292 0 l 1
 855 1294 l 1
 255 1294 l 1
EndSplineSet
EndChar

StartChar: six
Encoding: 22 54 294
Width: 1246
VWidth: 0
Flags: W
PickledData: "(dp1
S'com.typemytype.robofont.layerData'
p2
(dp3
s."
LayerCount: 2
Fore
SplineSet
360 850 m 1
 464 925 573 948 686 948 c 0
 933 948 1134 782 1134 477 c 0
 1134 217 957 -24 658 -24 c 0
 323 -24 119 248 119 696 c 0
 119 1197 337 1489 669 1489 c 0
 767 1489 910 1460 1026 1396 c 1
 966 1229 l 1
 863 1288 765 1313 683 1313 c 0
 505 1313 374 1202 360 850 c 1
360 671 m 1
 360 639 l 2
 360 393 437 153 658 153 c 0
 811 153 907 262 907 473 c 0
 907 702 825 779 656 779 c 0
 553 779 460 746 360 671 c 1
EndSplineSet
EndChar

StartChar: slash
Encoding: 15 47 295
Width: 592
VWidth: 0
Flags: W
PickledData: "(dp1
S'com.typemytype.robofont.layerData'
p2
(dp3
s."
LayerCount: 2
Fore
SplineSet
203 -47 m 1
 43 -8 l 1
 458 1534 l 1
 632 1495 l 1
 203 -47 l 1
EndSplineSet
EndChar

StartChar: sterling
Encoding: 99 163 297
Width: 1168
VWidth: 0
Flags: W
PickledData: "(dp1
S'com.typemytype.robofont.layerData'
p2
(dp3
s."
LayerCount: 2
Fore
SplineSet
677 42 m 0
 807.432 42 878.668 20.5116 979 0 c 1
 1020 176 l 1
 932 199 849 230 739 230 c 0
 615 230 535 214 352 147 c 1
 392 226 449 318 449 502 c 0
 449 556 441 604 435 676 c 1
 773 676 l 1
 773 829 l 1
 426 829 l 1
 421 886 409 955 409 1007 c 0
 409 1221 484 1313 651 1313 c 0
 733 1313 790 1295 826 1126 c 1
 1003 1152 l 1
 971 1372 878 1489 645 1489 c 0
 359 1489 199 1321 199 988 c 0
 199 942 211 879 215 829 c 1
 52 829 l 1
 52 676 l 1
 228 676 l 1
 237 636 250 574 250 525 c 0
 250 341 173 172 125 97 c 1
 219 -26 l 1
 431 17 555.553 42 677 42 c 0
EndSplineSet
EndChar

StartChar: t
Encoding: 84 116 298
Width: 693
VWidth: 0
Flags: W
PickledData: "(dp1
S'com.typemytype.robofont.layerData'
p2
(dp3
S'b'
(dp4
S'name'
p5
S't'
sS'lib'
p6
(dp7
sS'unicodes'
p8
(tsS'width'
p9
I693
sS'contours'
p10
((dp11
S'points'
p12
((dp13
S'segmentType'
p14
S'curve'
p15
sS'x'
I616
sS'smooth'
p16
I00
sS'y'
I125
s(dp17
g14
S'line'
p18
sS'x'
I640
sg16
I00
sS'y'
I32
s(dp19
S'y'
I2
sS'x'
I593
sg16
I00
s(dp20
S'y'
I-16
sS'x'
I530
sg16
I00
s(dp21
g14
S'curve'
p22
sS'x'
I464
sg16
I01
sS'y'
I-16
s(dp23
S'y'
I-16
sS'x'
I288
sg16
I00
s(dp24
S'y'
I84
sS'x'
I213
sg16
I00
s(dp25
g14
S'curve'
p26
sS'x'
I213
sg16
I01
sS'y'
I325
s(dp27
g14
S'line'
p28
sS'x'
I213
sg16
I00
sS'y'
I924
s(dp29
g14
S'line'
p30
sS'x'
I60
sg16
I00
sS'y'
I924
s(dp31
g14
S'line'
p32
sS'x'
I60
sg16
I00
sS'y'
I1023
s(dp33
g14
S'line'
p34
sS'x'
I222
sg16
I00
sS'y'
I1023
s(dp35
g14
S'line'
p36
sS'x'
I222
sg16
I00
sS'y'
I1350
s(dp37
g14
S'line'
p38
sS'x'
I355
sg16
I00
sS'y'
I1387
s(dp39
g14
S'line'
p40
sS'x'
I355
sg16
I00
sS'y'
I1023
s(dp41
g14
S'line'
p42
sS'x'
I579
sg16
I00
sS'y'
I1023
s(dp43
g14
S'line'
p44
sS'x'
I579
sg16
I00
sS'y'
I924
s(dp45
g14
S'line'
p46
sS'x'
I355
sg16
I00
sS'y'
I924
s(dp47
g14
S'line'
p48
sS'x'
I355
sg16
I01
sS'y'
I261
s(dp49
S'y'
I132
sS'x'
I355
sg16
I00
s(dp50
S'y'
I91
sS'x'
I413
sg16
I00
s(dp51
g14
S'curve'
p52
sS'x'
I493
sg16
I01
sS'y'
I91
s(dp53
S'y'
I91
sS'x'
I529
sg16
I00
s(dp54
S'y'
I107
sS'x'
I575
sg16
I00
stp55
stp56
sS'components'
p57
(tsS'anchors'
p58
(tsss."
LayerCount: 2
Fore
SplineSet
643 173 m 1
 677 32 l 1
 612 1 542 -16 477 -16 c 0
 316 -16 173 61 173 298 c 2
 173 879 l 1
 30 879 l 1
 30 1023 l 1
 174 1023 l 1
 182 1340 l 1
 385 1394 l 1
 385 1023 l 1
 610 1023 l 1
 610 879 l 1
 385 879 l 1
 385 311 l 2
 385 183 438 141 512 141 c 0
 547 141 595 153 643 173 c 1
EndSplineSet
EndChar

StartChar: thorn
Encoding: 190 254 300
Width: 1058
VWidth: 0
Flags: W
PickledData: "(dp1
S'com.typemytype.robofont.layerData'
p2
(dp3
s."
LayerCount: 2
Fore
SplineSet
571 128 m 0
 407 128 297 230 294 519 c 0
 291 816 426 897 557 895 c 0
 690 893 796 780 796 521 c 0
 796 293 736 128 571 128 c 0
82 1464 m 1
 82 -394 l 1
 294 -372 l 1
 294 94 l 1
 351 34 448 -24 587 -24 c 0
 853 -24 1014 217 1014 520 c 0
 1014 842 866 1047 580 1047 c 0
 438 1047 351 990 293 932 c 1
 293 1464 l 1
 82 1464 l 1
EndSplineSet
EndChar

StartChar: three
Encoding: 19 51 301
Width: 1246
VWidth: 0
Flags: W
PickledData: "(dp1
S'com.typemytype.robofont.layerData'
p2
(dp3
s."
LayerCount: 2
Fore
SplineSet
1015 1156 m 0
 1015 1355 854 1489 600 1489 c 0
 430 1489 288 1412 188 1256 c 1
 346 1161 l 1
 428 1282 505 1316 607 1316 c 0
 729 1316 802 1240 802 1140 c 0
 802 1006 768 894 494 894 c 1
 494 726 l 1
 721 726 872 660 863 396 c 0
 859 265 786 146 595 152 c 0
 447 157 388 243 340 378 c 1
 154 316 l 1
 215 68 387 -23 612 -24 c 0
 922 -25 1086 196 1086 399 c 0
 1086 577 1018 754 803 821 c 1
 967 882 1015 1016 1015 1156 c 0
EndSplineSet
EndChar

StartChar: threequarters
Encoding: 126 190 302
Width: 1441
VWidth: 0
Flags: W
PickledData: "(dp1
S'com.typemytype.robofont.layerData'
p2
(dp3
S'b'
(dp4
S'name'
p5
S'threequarters'
p6
sS'lib'
p7
(dp8
sS'unicodes'
p9
(tsS'width'
p10
I1441
sS'contours'
p11
(tsS'components'
p12
(tsS'anchors'
p13
(tsss."
LayerCount: 2
Fore
SplineSet
611 1303 m 4
 611 1411 505 1481 363 1481 c 4
 281 1481 176 1441 146 1359 c 5
 250 1281 l 5
 273 1321 310 1354 364 1354 c 4
 418 1354 455 1333 458 1295 c 4
 462 1237 440 1204 318 1202 c 5
 318 1072 l 5
 454 1072 477 1024 477 957 c 4
 477 907 430 874 376 874 c 4
 330 874 272 889 246 973 c 5
 130 910 l 5
 159 791 275 744 369 743 c 4
 535 740 633 824 636 954 c 4
 637 1006 632 1098 501 1145 c 5
 582 1174 611 1237 611 1303 c 4
324 -14 m 1
 1559 1415 l 1
 1443 1513 l 1
 207 84 l 1
 324 -14 l 1
1280 121 m 1
 1280 0 l 1
 1448 0 l 1
 1448 121 l 1
 1552 121 l 1
 1552 243 l 1
 1448 243 l 1
 1448 693 l 1
 1229 693 l 1
 940 220 l 1
 940 121 l 1
 1280 121 l 1
1110 243 m 1
 1280 542 l 1
 1280 243 l 1
 1110 243 l 1
EndSplineSet
EndChar

StartChar: tilde
Encoding: 365 732 303
Width: 798
VWidth: 0
Flags: W
PickledData: "(dp1
S'com.typemytype.robofont.layerData'
p2
(dp3
s."
LayerCount: 2
Fore
SplineSet
283 1248 m 1
 339 1244 446 1167 580 1152 c 0
 672 1142 705 1251 693 1395 c 1
 562 1395 l 1
 562 1336 550 1299 523 1299 c 0
 473 1299 344 1385 236 1401 c 0
 155 1413 84 1336 107 1160 c 1
 237 1160 l 1
 237 1220 259 1248 283 1248 c 1
EndSplineSet
EndChar

StartChar: trademark
Encoding: 512 8482 304
Width: 1847
VWidth: 0
Flags: W
PickledData: "(dp1
S'com.typemytype.robofont.layerData'
p2
(dp3
s."
LayerCount: 2
Fore
SplineSet
116 1341 m 1
 116 1464 l 1
 757 1464 l 1
 757 1341 l 1
 518 1341 l 1
 518 615 l 1
 352 615 l 1
 352 1341 l 1
 116 1341 l 1
912 615 m 1
 912 1464 l 1
 1111 1464 l 1
 1335 945 l 1
 1557 1463 l 1
 1744 1463 l 1
 1744 615 l 1
 1593 615 l 1
 1593 1185 l 1
 1398 731 l 1
 1262 731 l 1
 1069 1188 l 1
 1069 615 l 1
 912 615 l 1
EndSplineSet
EndChar

StartChar: two
Encoding: 18 50 305
Width: 1246
VWidth: 0
Flags: W
PickledData: "(dp1
S'com.typemytype.robofont.layerData'
p2
(dp3
s."
LayerCount: 2
Fore
SplineSet
296 1064 m 1
 380 1231 472 1314 621 1314 c 0
 766 1314 846 1206 846 1052 c 0
 846 615 152 538 147 0 c 1
 1085 0 l 1
 1085 168 l 1
 375 168 l 1
 573 475 1075 579 1073 1044 c 0
 1072 1346 876 1489 609 1489 c 0
 384 1489 221 1396 103 1141 c 1
 296 1064 l 1
EndSplineSet
EndChar

StartChar: u
Encoding: 85 117 306
Width: 1110
VWidth: 0
Flags: W
PickledData: "(dp1
S'com.typemytype.robofont.layerData'
p2
(dp3
s."
LayerCount: 2
Fore
SplineSet
312 1023 m 1
 100 1023 l 1
 100 428 l 2
 100 220 141 -24 464 -24 c 0
 717 -24 839 136 886 399 c 1
 785 532 l 1
 785 328 724 126 505 126 c 0
 360 126 312 222 312 421 c 2
 312 1023 l 1
EndSplineSet
Refer: 223 -1 N 1 0 0 1 687 0 2
EndChar

StartChar: uc_main_stem
Encoding: 532 -1 309
Width: 1457
VWidth: 0
Flags: W
PickledData: "(dp1
S'com.typemytype.robofont.layerData'
p2
(dp3
S'b'
(dp4
S'name'
p5
S'uc_main_stem'
p6
sS'lib'
p7
(dp8
sS'unicodes'
p9
(tsS'width'
p10
I1457
sS'contours'
p11
(tsS'components'
p12
(tsS'anchors'
p13
(tsssS'com.typemytype.robofont.mark'
p14
(F1
F0
F0
F1
tp15
s."
LayerCount: 2
Fore
SplineSet
324 0 m 1
 104 0 l 1
 104 1464 l 1
 324 1464 l 1
 324 0 l 1
EndSplineSet
EndChar

StartChar: underscore
Encoding: 63 95 315
Width: 870
VWidth: 0
Flags: W
PickledData: "(dp1
S'com.typemytype.robofont.layerData'
p2
(dp3
s."
LayerCount: 2
Fore
SplineSet
99 -1 m 1
 750 -1 l 1
 750 -147 l 1
 99 -147 l 1
 99 -1 l 1
EndSplineSet
EndChar

StartChar: uni00B2
Encoding: 114 178 316
Width: 1230
VWidth: 0
Flags: HW
LayerCount: 2
Fore
SplineSet
870 779 m 1
 870 898 l 1
 601 899 l 1
 769 1045 889 1123 869 1295 c 0
 852 1437 736 1491 619 1491 c 0
 513 1491 399 1437 356 1316 c 1
 490 1249 l 1
 508 1311 539 1352 610 1352 c 0
 675 1352 702 1315 704 1266 c 0
 708 1158 568 1072 377 902 c 1
 377 779 l 1
 870 779 l 1
EndSplineSet
EndChar

StartChar: uni00B3
Encoding: 115 179 317
Width: 772
VWidth: 0
Flags: HW
LayerCount: 2
Fore
SplineSet
611 1303 m 0
 611 1411 505 1481 363 1481 c 0
 281 1481 176 1441 146 1359 c 1
 250 1281 l 1
 273 1321 310 1354 364 1354 c 0
 418 1354 455 1333 458 1295 c 0
 462 1237 440 1204 318 1202 c 1
 318 1072 l 1
 454 1072 477 1024 477 957 c 0
 477 907 430 874 376 874 c 0
 330 874 272 889 246 973 c 1
 130 910 l 1
 159 791 275 744 369 743 c 0
 535 740 633 824 636 954 c 0
 637 1006 632 1098 501 1145 c 1
 582 1174 611 1237 611 1303 c 0
EndSplineSet
EndChar

StartChar: mu
Encoding: 117 181 318
Width: 1122
VWidth: 0
Flags: W
LayerCount: 2
Fore
SplineSet
261 -350 m 1
 261 57 l 1
 301 12 381 -24 467 -24 c 0
 604 -24 741 21 829 159 c 1
 833 0 l 1
 970 0 l 1
 970 1023 l 1
 828 1023 l 1
 828 436 l 2
 828 331 755 87 492 87 c 0
 321 87 268 209 268 406 c 2
 268 1023 l 1
 121 1023 l 1
 121 481 l 1
 119 481 l 1
 119 -350 l 1
 261 -350 l 1
EndSplineSet
EndChar

StartChar: uni00B9
Encoding: 121 185 319
Width: 546
VWidth: 0
Flags: HW
LayerCount: 2
Fore
SplineSet
206 1316 m 1
 206 769 l 1
 375 769 l 1
 375 1464 l 1
 221 1464 l 1
 63 1390 l 1
 94 1256 l 1
 206 1316 l 1
EndSplineSet
EndChar

StartChar: uni0237
Encoding: 358 567 347
Width: 513
VWidth: 0
Flags: W
PickledData: "(dp1
S'com.typemytype.robofont.layerData'
p2
(dp3
S'b'
(dp4
S'name'
p5
S'j'
sS'lib'
p6
(dp7
sS'unicodes'
p8
(tsS'width'
p9
I513
sS'contours'
p10
((dp11
S'points'
p12
((dp13
S'segmentType'
p14
S'curve'
p15
sS'x'
I195
sS'smooth'
p16
I01
sS'y'
I-91
s(dp17
g14
S'line'
p18
sS'x'
I195
sg16
I00
sS'y'
I1023
s(dp19
g14
S'line'
p20
sS'x'
I407
sg16
I00
sS'y'
I1023
s(dp21
g14
S'line'
p22
sS'x'
I407
sg16
I01
sS'y'
I-12
s(dp23
S'y'
I-217
sS'x'
I407
sg16
I00
s(dp24
S'y'
I-325
sS'x'
I310
sg16
I00
s(dp25
g14
S'curve'
p26
sS'x'
I118
sg16
I01
sS'y'
I-325
s(dp27
S'y'
I-325
sS'x'
I67
sg16
I00
s(dp28
S'y'
I-312
sS'x'
I4
sg16
I00
s(dp29
g14
S'curve'
p30
sS'x'
I-44
sg16
I00
sS'y'
I-284
s(dp31
g14
S'line'
p32
sS'x'
I-20
sg16
I00
sS'y'
I-177
s(dp33
S'y'
I-191
sS'x'
I18
sg16
I00
s(dp34
S'y'
I-208
sS'x'
I66
sg16
I00
s(dp35
g14
S'curve'
p36
sS'x'
I99
sg16
I01
sS'y'
I-208
s(dp37
S'y'
I-208
sS'x'
I158
sg16
I00
s(dp38
S'y'
I-182
sS'x'
I195
sg16
I00
stp39
s(dp40
g12
((dp41
g14
S'line'
p42
sS'x'
I197
sg16
I00
sS'y'
I1188
s(dp43
g14
S'line'
p44
sS'x'
I197
sg16
I00
sS'y'
I1421
s(dp45
g14
S'line'
p46
sS'x'
I408
sg16
I00
sS'y'
I1421
s(dp47
g14
S'line'
p48
sS'x'
I408
sg16
I00
sS'y'
I1188
stp49
stp50
sS'components'
p51
(tsS'anchors'
p52
(tsss."
LayerCount: 2
Fore
SplineSet
134 -380 m 0
 323 -380 407 -304 407 -42 c 2
 407 1023 l 1
 195 1023 l 1
 195 -91 l 2
 195 -177 155 -207 100 -207 c 0
 64 -207 22 -195 -20 -176 c 1
 -61 -334 l 1
 -13 -362 63 -380 134 -380 c 0
EndSplineSet
EndChar

StartChar: uni0307
Encoding: 373 775 348
Width: 539
VWidth: 0
Flags: W
LayerCount: 2
Fore
SplineSet
270 1268 m 0
 189 1268 148 1331 148 1393 c 0
 148 1455 189 1517 270 1517 c 0
 351 1517 392 1455 392 1393 c 0
 392 1331 351 1268 270 1268 c 0
EndSplineSet
EndChar

StartChar: uni030F
Encoding: 377 783 349
Width: 745
VWidth: 0
Flags: W
PickledData: "(dp1
S'com.typemytype.robofont.layerData'
p2
(dp3
S'b'
(dp4
S'name'
p5
S'uni030F'
p6
sS'lib'
p7
(dp8
sS'unicodes'
p9
(tsS'width'
p10
I745
sS'contours'
p11
(tsS'components'
p12
(tsS'anchors'
p13
(tsss."
LayerCount: 2
Fore
SplineSet
690 1492 m 1
 755 1152 l 1
 657 1152 l 1
 411 1492 l 1
 690 1492 l 1
335 1492 m 1
 427 1152 l 1
 319 1152 l 1
 47 1492 l 1
 335 1492 l 1
EndSplineSet
EndChar

StartChar: uni0311
Encoding: 378 785 350
Width: 805
VWidth: 0
Flags: W
PickledData: "(dp1
S'com.typemytype.robofont.layerData'
p2
(dp3
S'b'
(dp4
S'name'
p5
S'uni0311'
p6
sS'lib'
p7
(dp8
sS'unicodes'
p9
(tsS'width'
p10
I805
sS'contours'
p11
(tsS'components'
p12
(tsS'anchors'
p13
(tsss."
LayerCount: 2
Fore
SplineSet
402 1438 m 0
 539 1438 687 1362 691 1162 c 1
 518 1162 l 1
 518 1229 496 1283 402 1283 c 0
 308 1283 286 1229 286 1162 c 1
 113 1162 l 1
 117 1362 265 1438 402 1438 c 0
EndSplineSet
EndChar

StartChar: uni0326
Encoding: 379 806 351
Width: 409
VWidth: 0
Flags: HW
LayerCount: 2
Fore
SplineSet
76 0 m 1
 346 0 l 1
 346 -145 l 2
 346 -343 315 -454 173 -535 c 1
 102 -443 l 1
 135 -412 195 -332 195 -253 c 1
 76 -240 l 1
 76 0 l 1
EndSplineSet
EndChar

StartChar: uni2074
Encoding: 509 8308 352
Width: 1441
VWidth: 0
Flags: W
PickledData: "(dp1
S'com.typemytype.robofont.layerData'
p2
(dp3
s."
LayerCount: 2
Fore
SplineSet
690 1024 m 1
 520 1024 l 1
 690 1323 l 1
 690 1024 l 1
350 902 m 1
 690 902 l 1
 690 781 l 1
 854 781 l 1
 854 902 l 1
 962 902 l 1
 962 1024 l 1
 854 1024 l 1
 854 1474 l 1
 639 1474 l 1
 350 1001 l 1
 350 902 l 1
EndSplineSet
EndChar

StartChar: v
Encoding: 86 118 357
Width: 959
VWidth: 0
Flags: W
PickledData: "(dp1
S'com.typemytype.robofont.guides'
p2
(tsS'com.typemytype.robofont.layerData'
p3
(dp4
s."
LayerCount: 2
Fore
SplineSet
744 1023 m 1
 947 1023 l 1
 559 0 l 1
 381 0 l 1
 12 1023 l 1
 225 1023 l 1
 482 271 l 1
 744 1023 l 1
EndSplineSet
EndChar

StartChar: w
Encoding: 87 119 358
Width: 1499
VWidth: 0
Flags: W
PickledData: "(dp1
S'com.typemytype.robofont.layerData'
p2
(dp3
S'b'
(dp4
S'name'
p5
S'w'
sS'lib'
p6
(dp7
sS'unicodes'
p8
(tsS'width'
p9
I1499
sS'contours'
p10
((dp11
S'points'
p12
((dp13
S'segmentType'
p14
S'line'
p15
sS'x'
I1329
sS'smooth'
p16
I00
sS'y'
I1023
s(dp17
g14
S'line'
p18
sS'x'
I1532
sg16
I00
sS'y'
I1023
s(dp19
g14
S'line'
p20
sS'x'
I1144
sg16
I00
sS'y'
I0
s(dp21
g14
S'line'
p22
sS'x'
I966
sg16
I00
sS'y'
I0
s(dp23
g14
S'line'
p24
sS'x'
I597
sg16
I00
sS'y'
I1023
s(dp25
g14
S'line'
p26
sS'x'
I810
sg16
I00
sS'y'
I1023
s(dp27
g14
S'line'
p28
sS'x'
I1067
sg16
I00
sS'y'
I271
stp29
s(dp30
g12
((dp31
g14
S'line'
p32
sS'x'
I698
sg16
I00
sS'y'
I1023
s(dp33
g14
S'line'
p34
sS'x'
I901
sg16
I00
sS'y'
I1023
s(dp35
g14
S'line'
p36
sS'x'
I513
sg16
I00
sS'y'
I0
s(dp37
g14
S'line'
p38
sS'x'
I335
sg16
I00
sS'y'
I0
s(dp39
g14
S'line'
p40
sS'x'
I-34
sg16
I00
sS'y'
I1023
s(dp41
g14
S'line'
p42
sS'x'
I179
sg16
I00
sS'y'
I1023
s(dp43
g14
S'line'
p44
sS'x'
I436
sg16
I00
sS'y'
I271
stp45
stp46
sS'components'
p47
(tsS'anchors'
p48
(tsss."
LayerCount: 2
Fore
SplineSet
335 0 m 1
 -7 1023 l 1
 214 1023 l 1
 436 271 l 1
 699 1023 l 1
 811 1023 l 1
 1067 271 l 1
 1294 1023 l 1
 1503 1023 l 1
 1145 0 l 1
 967 0 l 1
 746 657 l 1
 514 0 l 1
 335 0 l 1
EndSplineSet
EndChar

StartChar: x
Encoding: 88 120 359
Width: 979
VWidth: 0
Flags: W
PickledData: "(dp1
S'com.typemytype.robofont.layerData'
p2
(dp3
S'b'
(dp4
S'name'
p5
S'x'
sS'lib'
p6
(dp7
sS'unicodes'
p8
(tsS'width'
p9
I979
sS'contours'
p10
(tsS'components'
p11
(tsS'anchors'
p12
(tsss."
LayerCount: 2
Fore
SplineSet
386 523 m 1
 465 606 l 1
 755 1023 l 1
 979 1023 l 1
 587 480 l 1
 528 420 l 1
 228 0 l 1
 4 0 l 1
 386 523 l 1
-2 1023 m 1
 231 1023 l 1
 981 0 l 1
 748 0 l 1
 -2 1023 l 1
EndSplineSet
EndChar

StartChar: y
Encoding: 89 121 360
Width: 971
VWidth: 0
Flags: W
PickledData: "(dp1
S'com.typemytype.robofont.layerData'
p2
(dp3
S'b'
(dp4
S'name'
p5
S'y'
sS'lib'
p6
(dp7
sS'unicodes'
p8
(tsS'width'
p9
I971
sS'contours'
p10
((dp11
S'points'
p12
((dp13
S'segmentType'
p14
S'curve'
p15
sS'x'
I166
sS'smooth'
p16
I01
sS'y'
I-320
s(dp17
S'y'
I-320
sS'x'
I384
sg16
I00
s(dp18
S'y'
I-171
sS'x'
I474
sg16
I00
s(dp19
g14
S'curve'
p20
sS'x'
I581
sg16
I01
sS'y'
I97
s(dp21
g14
S'line'
p22
sS'x'
I952
sg16
I00
sS'y'
I1023
s(dp23
g14
S'line'
p24
sS'x'
I742
sg16
I00
sS'y'
I1023
s(dp25
g14
S'line'
p26
sS'x'
I497
sg16
I00
sS'y'
I383
s(dp27
g14
S'line'
p28
sS'x'
I247
sg16
I00
sS'y'
I1023
s(dp29
g14
S'line'
p30
sS'x'
I31
sg16
I00
sS'y'
I1023
s(dp31
g14
S'line'
p32
sS'x'
I385
sg16
I00
sS'y'
I160
s(dp33
g14
S'line'
p34
sS'x'
I365
sg16
I01
sS'y'
I94
s(dp35
S'y'
I-76
sS'x'
I314
sg16
I00
s(dp36
S'y'
I-138
sS'x'
I256
sg16
I00
s(dp37
g14
S'curve'
p38
sS'x'
I145
sg16
I01
sS'y'
I-138
s(dp39
S'y'
I-138
sS'x'
I127
sg16
I00
s(dp40
S'y'
I-136
sS'x'
I108
sg16
I00
s(dp41
g14
S'curve'
p42
sS'x'
I86
sg16
I00
sS'y'
I-133
s(dp43
g14
S'line'
p44
sS'x'
I61
sg16
I00
sS'y'
I-306
s(dp45
S'y'
I-316
sS'x'
I98
sg16
I00
s(dp46
S'y'
I-320
sS'x'
I133
sg16
I00
stp47
stp48
sS'components'
p49
(tsS'anchors'
p50
(tsss."
LayerCount: 2
Fore
SplineSet
153 -317 m 0
 371 -317 474 -199 581 68 c 2
 965 1023 l 1
 755 1023 l 1
 495 353 l 1
 231 1023 l 1
 13 1023 l 1
 386 135 l 1
 373 94 l 2
 312 -98 245 -135 130 -135 c 0
 112 -135 91 -132 69 -129 c 1
 44 -302 l 1
 81 -312 120 -317 153 -317 c 0
EndSplineSet
EndChar

StartChar: yen
Encoding: 101 165 363
Width: 1162
VWidth: 0
Flags: W
PickledData: "(dp1
S'com.typemytype.robofont.layerData'
p2
(dp3
S'b'
(dp4
S'name'
p5
S'yen'
p6
sS'lib'
p7
(dp8
sS'unicodes'
p9
(tsS'width'
p10
I1162
sS'contours'
p11
(tsS'components'
p12
(tsS'anchors'
p13
(tsss."
LayerCount: 2
Fore
SplineSet
216 542 m 1
 216 669 l 1
 950 669 l 1
 950 542 l 1
 216 542 l 1
950 432 m 1
 950 304 l 1
 216 304 l 1
 216 432 l 1
 950 432 l 1
EndSplineSet
Refer: 108 89 N 1 0 0 1 0 0 2
EndChar

StartChar: z
Encoding: 90 122 364
Width: 878
VWidth: 0
Flags: W
PickledData: "(dp1
S'com.typemytype.robofont.layerData'
p2
(dp3
S'b'
(dp4
S'name'
p5
S'z'
sS'lib'
p6
(dp7
sS'unicodes'
p8
(tsS'width'
p9
I878
sS'contours'
p10
((dp11
S'points'
p12
((dp13
S'segmentType'
p14
S'line'
p15
sS'x'
I86
sS'smooth'
p16
I00
sS'y'
I919
s(dp17
g14
S'line'
p18
sS'x'
I86
sg16
I00
sS'y'
I1023
s(dp19
g14
S'line'
p20
sS'x'
I836
sg16
I00
sS'y'
I1023
s(dp21
g14
S'line'
p22
sS'x'
I836
sg16
I00
sS'y'
I928
s(dp23
g14
S'line'
p24
sS'x'
I227
sg16
I00
sS'y'
I103
s(dp25
g14
S'line'
p26
sS'x'
I834
sg16
I00
sS'y'
I103
s(dp27
g14
S'line'
p28
sS'x'
I834
sg16
I00
sS'y'
I0
s(dp29
g14
S'line'
p30
sS'x'
I66
sg16
I00
sS'y'
I0
s(dp31
g14
S'line'
p32
sS'x'
I66
sg16
I00
sS'y'
I94
s(dp33
g14
S'line'
p34
sS'x'
I667
sg16
I00
sS'y'
I919
stp35
stp36
sS'components'
p37
(tsS'anchors'
p38
(tsss."
LayerCount: 2
Fore
SplineSet
86 870 m 1
 86 1023 l 1
 836 1023 l 1
 836 878 l 1
 299 152 l 1
 834 152 l 1
 834 0 l 1
 62 0 l 1
 62 144 l 1
 587 870 l 1
 86 870 l 1
EndSplineSet
EndChar

StartChar: zero
Encoding: 16 48 368
Width: 1246
VWidth: 0
Flags: W
PickledData: "(dp1
S'com.typemytype.robofont.layerData'
p2
(dp3
S'b'
(dp4
S'name'
p5
S'zero'
p6
sS'lib'
p7
(dp8
sS'unicodes'
p9
(tsS'width'
p10
I1246
sS'contours'
p11
(tsS'components'
p12
(tsS'anchors'
p13
(tsss."
LayerCount: 2
Fore
SplineSet
71 724 m 0
 71 264 243 -24 623 -24 c 0
 1003 -24 1175 264 1175 724 c 0
 1175 1184 1003 1489 623 1489 c 0
 243 1489 71 1184 71 724 c 0
304 724 m 0
 304 1101 390 1313 623 1313 c 0
 856 1313 942 1101 942 724 c 0
 942 347 856 152 623 152 c 0
 390 152 304 347 304 724 c 0
EndSplineSet
EndChar

StartChar: uni00AD
Encoding: 109 173 371
Width: 724
VWidth: 0
Flags: HW
LayerCount: 2
Fore
SplineSet
100 360 m 1
 100 527 l 1
 600 527 l 1
 600 360 l 1
 100 360 l 1
EndSplineSet
EndChar

StartChar: Tbar
Encoding: 291 358 377
Width: 1119
VWidth: 0
Flags: HW
LayerCount: 2
Fore
SplineSet
286 698 m 5
 286 848 l 5
 860 848 l 5
 860 698 l 5
 286 698 l 5
EndSplineSet
Refer: 92 84 N 1 0 0 1 0 0 3
EndChar

StartChar: tbar
Encoding: 292 359 378
Width: 1119
VWidth: 0
Flags: HW
LayerCount: 2
Fore
SplineSet
305 540 m 1
 305 690 l 1
 879 690 l 1
 879 540 l 1
 305 540 l 1
EndSplineSet
Refer: 298 116 N 1 0 0 1 278 0 2
EndChar

StartChar: eng
Encoding: 264 331 379
Width: 1111
VWidth: 0
Flags: HW
LayerCount: 2
Fore
SplineSet
1010 -76 m 6
 1010 204 l 5
 799 205 l 5
 798 -52 l 6
 798 -278.001773013 705.984496104 -366.418329116 566.750033909 -366.418329116 c 4
 471.487928093 -366.418329116 354.122208995 -325.029754819 229 -258 c 5
 174 -394 l 5
 322.333209395 -482.422472754 472.489983499 -528.413866369 603.832957812 -528.413866369 c 4
 836.413629881 -528.413866369 1010 -384.19897133 1010 -76 c 6
EndSplineSet
Refer: 235 110 N 1 0 0 1 0 0 2
EndChar

StartChar: Eng
Encoding: 263 330 380
Width: 1496
VWidth: 0
Flags: HW
LayerCount: 2
Fore
SplineSet
1360 -76 m 2
 1360 -384.19921875 1186.4140625 -528.4140625 953.833007812 -528.4140625 c 0
 822.490234375 -528.4140625 672.333007812 -482.422851562 524 -394 c 1
 579 -258 l 1
 704.122070312 -325.029296875 843.48828125 -366.41796875 938.75 -366.41796875 c 0
 1077.984375 -366.41796875 1170 -281.001953125 1170 -55 c 2
 1170 204 l 1
 1360 204 l 1
 1360 -76 l 2
EndSplineSet
Refer: 64 78 N 1 0 0 1 0 0 2
EndChar

StartChar: acutecomb
Encoding: 368 769 420
Width: 496
VWidth: 0
Flags: HW
LayerCount: 2
Fore
SplineSet
487 1492 m 1
 136 1172 l 1
 -5 1172 l 1
 197 1492 l 1
 487 1492 l 1
EndSplineSet
EndChar

StartChar: gravecomb
Encoding: 367 768 421
Width: 496
VWidth: 0
Flags: HW
LayerCount: 2
Fore
SplineSet
-5 1492 m 1
 285 1492 l 1
 487 1172 l 1
 346 1172 l 1
 -5 1492 l 1
EndSplineSet
EndChar

StartChar: uni0302
Encoding: 369 770 422
Width: 838
VWidth: 0
Flags: HW
LayerCount: 2
Fore
SplineSet
297 1492 m 1
 552 1492 l 1
 707 1172 l 1
 565 1172 l 1
 424 1390 l 1
 284 1172 l 1
 142 1172 l 1
 297 1492 l 1
EndSplineSet
EndChar

StartChar: tildecomb
Encoding: 370 771 423
Width: 798
VWidth: 0
Flags: HW
LayerCount: 2
Fore
SplineSet
283 1248 m 1
 339 1244 446 1167 580 1152 c 0
 672 1142 705 1251 693 1395 c 1
 562 1395 l 1
 562 1336 550 1299 523 1299 c 0
 473 1299 344 1385 236 1401 c 0
 155 1413 84 1336 107 1160 c 1
 237 1160 l 1
 237 1220 259 1248 283 1248 c 1
EndSplineSet
EndChar

StartChar: uni0306
Encoding: 372 774 424
Width: 805
VWidth: 0
Flags: HW
LayerCount: 2
Fore
SplineSet
402 1162 m 0
 265 1162 117 1238 113 1438 c 1
 286 1438 l 1
 286 1371 308 1317 402 1317 c 0
 496 1317 518 1371 518 1438 c 1
 691 1438 l 1
 687 1238 539 1162 402 1162 c 0
EndSplineSet
EndChar

StartChar: uni0304
Encoding: 371 772 425
Width: 724
VWidth: 0
Flags: HW
LayerCount: 2
Fore
SplineSet
135 1179 m 1
 135 1329 l 1
 589 1329 l 1
 589 1179 l 1
 135 1179 l 1
EndSplineSet
EndChar

StartChar: uni0308
Encoding: 374 776 426
Width: 860
VWidth: 0
Flags: HW
LayerCount: 2
Fore
SplineSet
750 1395 m 1
 750 1161 l 1
 514 1161 l 1
 514 1395 l 1
 750 1395 l 1
65 1395 m 1
 301 1395 l 1
 301 1161 l 1
 65 1161 l 1
 65 1395 l 1
EndSplineSet
EndChar

StartChar: uni030A
Encoding: 375 778 427
Width: 728
VWidth: 0
Flags: HW
LayerCount: 2
Fore
SplineSet
365 1349 m 0
 440 1349 483 1293 483 1219 c 0
 483 1145 440 1089 365 1089 c 0
 290 1089 247 1145 247 1219 c 0
 247 1293 290 1349 365 1349 c 0
365 964 m 0
 533 964 627 1086 627 1219 c 0
 627 1352 533 1474 365 1474 c 0
 197 1474 103 1352 103 1219 c 0
 103 1086 197 964 365 964 c 0
EndSplineSet
EndChar

StartChar: uni030C
Encoding: 376 780 428
Width: 838
VWidth: 0
Flags: HW
LayerCount: 2
Fore
SplineSet
297 1172 m 1
 142 1492 l 1
 284 1492 l 1
 424 1274 l 1
 565 1492 l 1
 707 1492 l 1
 552 1172 l 1
 297 1172 l 1
EndSplineSet
EndChar
